<svg width="20" height="20" viewBox="0 0 20 20" fill="none" xmlns="http://www.w3.org/2000/svg">
<path d="M12.01 5.60812L12.0088 8.57311C12.0088 8.68569 12.0537 8.79329 12.1335 8.87275L14.2643 10.9934L14.8663 10.3941L12.8602 8.39761L12.8615 5.60812H12.01Z" fill="#547100" stroke="#547100" stroke-width="0.4"/>
<path fill-rule="evenodd" clip-rule="evenodd" d="M8.17858 4.54466C9.21198 3.20758 10.8047 2.31784 12.6223 2.24328C15.8916 2.10918 18.6604 4.66019 18.7945 7.92907C18.8935 10.3424 17.5292 12.4834 15.4928 13.4928L14.8541 12.8541C16.7442 12.0489 18.0366 10.1352 17.9475 7.96382C17.8326 5.16143 15.4594 2.97533 12.657 3.09029C11.0987 3.15422 9.73307 3.91709 8.84724 5.06359L8.17858 4.54466Z" fill="#547100"/>
<path d="M12.6223 2.24328L12.61 1.94353L12.61 1.94353L12.6223 2.24328ZM8.17858 4.54466L7.94122 4.36121L7.75813 4.5981L7.99465 4.78167L8.17858 4.54466ZM15.4928 13.4928L15.2806 13.7049L15.433 13.8572L15.626 13.7616L15.4928 13.4928ZM14.8541 12.8541L14.7365 12.5781L14.3279 12.7521L14.6419 13.0662L14.8541 12.8541ZM8.84724 5.06359L8.66331 5.30059L8.90082 5.48492L9.08463 5.24701L8.84724 5.06359ZM12.61 1.94353C10.6998 2.02189 9.02623 2.95734 7.94122 4.36121L8.41595 4.72812C9.39774 3.45782 10.9097 2.61379 12.6346 2.54303L12.61 1.94353ZM19.0943 7.91677C18.9534 4.48236 16.0449 1.80265 12.61 1.94353L12.6346 2.54303C15.7383 2.41572 18.3675 4.83802 18.4948 7.94137L19.0943 7.91677ZM15.626 13.7616C17.7644 12.7017 19.1983 10.4531 19.0943 7.91677L18.4948 7.94137C18.5887 10.2318 17.2941 12.2651 15.3595 13.224L15.626 13.7616ZM15.7049 13.2806L15.0662 12.6419L14.6419 13.0662L15.2806 13.7049L15.7049 13.2806ZM17.6478 7.97612C17.7316 10.0185 16.516 11.82 14.7365 12.5781L14.9716 13.1301C16.9725 12.2777 18.3417 10.2519 18.2473 7.95152L17.6478 7.97612ZM12.6693 3.39004C15.3062 3.28187 17.5396 5.33927 17.6478 7.97612L18.2473 7.95152C18.1255 4.98358 15.6127 2.66879 12.6447 2.79054L12.6693 3.39004ZM9.08463 5.24701C9.91884 4.16732 11.2036 3.45017 12.6693 3.39004L12.6447 2.79054C10.9938 2.85827 9.5473 3.66685 8.60984 4.88017L9.08463 5.24701ZM9.03117 4.82659L8.36251 4.30766L7.99465 4.78167L8.66331 5.30059L9.03117 4.82659Z" fill="#547100"/>
<path d="M7.60059 5.80011L7.48958 3.40268L9.99802 5.6891L7.60059 5.80011Z" fill="#547100"/>
<path d="M11.2876 15.2337L11.6456 15.5827C12.0317 15.1867 12.425 14.7968 12.8217 14.4034L12.822 14.4031C13.0063 14.2199 13.1781 14.1613 13.3157 14.1613C13.4535 14.1613 13.6263 14.22 13.8124 14.4035C14.4482 15.036 15.0829 15.6674 15.7142 16.302C15.9056 16.4946 15.9644 16.6692 15.9638 16.8073C15.9632 16.9462 15.9021 17.1247 15.7066 17.3227C15.5975 17.4327 15.4791 17.5479 15.3568 17.6669C15.1072 17.9096 14.8415 18.1679 14.6074 18.4296L14.607 18.4301C14.2354 18.8466 13.7791 18.9932 13.1801 18.9596L13.1794 18.9596C12.2378 18.9081 11.3542 18.5956 10.4641 18.1635C8.48783 17.2027 6.7986 15.8718 5.38084 14.186L5.38065 14.1858C4.32661 12.9339 3.46813 11.5813 2.9065 10.0687L2.90651 10.0687L2.90585 10.0669C2.63029 9.33318 2.45503 8.6307 2.5101 7.90739C2.54138 7.50992 2.6833 7.1933 2.96135 6.93001L2.96135 6.93001L2.9621 6.9293C3.20846 6.69506 3.45639 6.44473 3.69802 6.20076C3.85429 6.04298 4.00792 5.88787 4.15677 5.74149L4.15747 5.7408C4.34141 5.55922 4.51372 5.5002 4.65303 5.5C4.79254 5.4998 4.96587 5.55853 5.15157 5.73935C5.36434 5.94774 5.57216 6.15702 5.78279 6.36912C5.88926 6.47633 5.99644 6.58426 6.10533 6.69316C6.2608 6.85029 6.41612 7.00561 6.57035 7.15984L6.57074 7.16023C6.72572 7.31521 6.8796 7.46909 7.03332 7.62447L7.03414 7.62529C7.23916 7.83156 7.29852 8.00879 7.29871 8.1421C7.2989 8.27517 7.24024 8.45099 7.03746 8.65502L7.03704 8.65544C6.98073 8.71223 6.92465 8.76886 6.86872 8.82534C6.53545 9.16186 6.20773 9.49278 5.87264 9.8166L5.87259 9.81655L5.86655 9.82259C5.77583 9.91331 5.67238 10.0482 5.63906 10.237C5.6064 10.4221 5.65565 10.5793 5.69922 10.6828C5.98704 11.3678 6.39403 11.9651 6.83454 12.5062L6.83476 12.5064C7.71163 13.582 8.71312 14.5519 9.91934 15.3107L9.92159 15.312C10.0664 15.4021 10.2144 15.4775 10.3478 15.5436C10.3781 15.5586 10.4074 15.573 10.4358 15.587C10.5376 15.637 10.6288 15.6819 10.7194 15.7312C10.8455 15.8016 11.0232 15.8642 11.2313 15.8226C11.4283 15.7832 11.5642 15.6667 11.6466 15.5817L11.2876 15.2337ZM11.2876 15.2337C11.6772 14.8341 12.0734 14.4413 12.4696 14.0484L10.2455 18.6131C8.20449 17.6209 6.45983 16.2458 4.99817 14.5078C3.91608 13.2227 3.02377 11.8209 2.43777 10.2427C2.15144 9.48028 1.94833 8.69784 2.0116 7.86879C2.05155 7.35938 2.24133 6.92321 2.61757 6.56695C2.86125 6.33526 3.09654 6.09757 3.33207 5.85964C3.48916 5.70096 3.64635 5.54217 3.8062 5.38498C4.32561 4.87223 4.97819 4.87223 5.50093 5.38165C5.71624 5.59252 5.92858 5.80634 6.14093 6.02017C6.24711 6.12709 6.35328 6.234 6.45983 6.34055C6.61465 6.49703 6.76947 6.65186 6.9243 6.80668C7.07912 6.9615 7.23394 7.11632 7.38876 7.27281C7.9348 7.82218 7.9348 8.46145 7.39209 9.00749C7.33619 9.06387 7.28036 9.12025 7.22455 9.1766C6.89148 9.51292 6.55946 9.8482 6.2201 10.1761C6.11689 10.2794 6.1069 10.3626 6.16017 10.4891C6.4232 11.1151 6.79944 11.6711 7.22229 12.1905C8.07464 13.236 9.03687 14.1649 10.1856 14.8874C10.3343 14.9799 10.4928 15.0578 10.6514 15.1358C10.7555 15.187 10.8597 15.2382 10.9613 15.2936C11.0912 15.3669 11.1811 15.3435 11.2876 15.2337Z" stroke="#547100"/>
</svg>
