<svg width="20" height="20" viewBox="0 0 20 20" fill="none" xmlns="http://www.w3.org/2000/svg">
<path fill-rule="evenodd" clip-rule="evenodd" d="M1.875 2H18.125L18.75 2.625V17.625L18.125 18.25H1.875L1.25 17.625V2.625L1.875 2ZM2.5 7V17H17.5V7H2.5ZM2.5 5.75H17.5V3.25H2.5V5.75Z" fill="#547100"/>
<path d="M12.733 15.651L13.797 14.586C13.927 14.456 14 14.282 14 14.098C14 13.914 13.928 13.74 13.797 13.61L12.652 12.463C12.522 12.333 12.347 12.26 12.163 12.26C11.978 12.26 11.805 12.332 11.674 12.463L10.777 13.359C10.3014 13.1549 9.86929 12.8616 9.50398 12.495C9.13498 12.128 8.84398 11.699 8.63798 11.223L9.53498 10.327C9.66498 10.197 9.73798 10.023 9.73798 9.83901C9.73832 9.74825 9.72054 9.65834 9.68568 9.57454C9.65082 9.49075 9.59959 9.41475 9.53498 9.35101L8.38998 8.203C8.25998 8.073 8.08497 8 7.90097 8C7.71597 8 7.54297 8.072 7.41197 8.203L6.34797 9.26701C6.12597 9.48901 5.99897 9.79501 5.99897 10.109C5.99897 10.174 6.00397 10.237 6.01497 10.301C6.23297 11.625 6.93797 12.939 7.99797 14C9.05998 15.06 10.374 15.764 11.699 15.984C12.075 16.047 12.462 15.921 12.733 15.651ZM11.818 15.275C10.639 15.08 9.46298 14.446 8.50798 13.491C7.55297 12.536 6.91897 11.361 6.72397 10.182C6.69897 10.034 6.74897 9.88201 6.85597 9.77401L7.90097 8.729L9.00998 9.83701L7.80997 11.035L7.80097 11.044L7.88097 11.26C8.12177 11.9149 8.5021 12.5097 8.9956 13.003C9.4891 13.4963 10.084 13.8765 10.739 14.117L10.955 14.197L12.162 12.989L13.271 14.097L12.226 15.142C12.118 15.25 11.966 15.3 11.818 15.275Z" fill="#547100"/>
</svg>
