<svg width="20" height="20" viewBox="0 0 20 20" fill="none" xmlns="http://www.w3.org/2000/svg">
<path d="M1.66699 3.33332V15L5.66699 12C5.95533 11.7833 6.30616 11.6667 6.66699 11.6667H13.3337C13.7757 11.6667 14.1996 11.4911 14.5122 11.1785C14.8247 10.8659 15.0003 10.442 15.0003 9.99999V3.33332C15.0003 2.8913 14.8247 2.46737 14.5122 2.15481C14.1996 1.84225 13.7757 1.66666 13.3337 1.66666H3.33366C2.89163 1.66666 2.46771 1.84225 2.15515 2.15481C1.84259 2.46737 1.66699 2.8913 1.66699 3.33332ZM3.33366 11.6667V3.33332H13.3337V9.99999H6.11199C5.75122 9.99902 5.40003 10.1161 5.11199 10.3333L3.33366 11.6667Z" fill="#547100"/>
<path d="M18.334 18.3333V7.49998C18.334 7.05795 18.1584 6.63403 17.8458 6.32147C17.5333 6.00891 17.1093 5.83331 16.6673 5.83331V15L14.889 13.6666C14.6009 13.4494 14.2498 13.3323 13.889 13.3333H5.83398C5.83398 13.5522 5.87709 13.7689 5.96085 13.9711C6.04461 14.1733 6.16738 14.3571 6.32214 14.5118C6.4769 14.6666 6.66064 14.7894 6.86285 14.8731C7.06506 14.9569 7.28178 15 7.50065 15H13.334C13.6948 15 14.0457 15.1166 14.334 15.3333L18.334 18.3333Z" fill="#547100"/>
</svg>
