<svg width="24" height="24" viewBox="0 0 24 24" fill="none" xmlns="http://www.w3.org/2000/svg">
<path d="M16.2 20H8.2C7.77565 20 7.36869 19.8314 7.06863 19.5314C6.76857 19.2313 6.6 18.8243 6.6 18.4V8H5V6.4H8.2V5.6C8.2 5.17565 8.36857 4.76869 8.66863 4.46863C8.96869 4.16857 9.37565 4 9.8 4H14.6C15.0243 4 15.4313 4.16857 15.7314 4.46863C16.0314 4.76869 16.2 5.17565 16.2 5.6V6.4H19.4V8H17.8V18.4C17.8 18.8243 17.6314 19.2313 17.3314 19.5314C17.0313 19.8314 16.6243 20 16.2 20ZM8.2 8V18.4H16.2V8H8.2ZM9.8 5.6V6.4H14.6V5.6H9.8ZM14.6 16.8H13V9.6H14.6V16.8ZM11.4 16.8H9.8V9.6H11.4V16.8Z" fill="#99CC00"/>
</svg>
