<svg width="20" height="20" viewBox="0 0 20 20" fill="none" xmlns="http://www.w3.org/2000/svg">
<path d="M3.28125 1.71875L2.92937 2.05062L2.05062 2.92937L1.71875 3.28125L1.9725 3.69125L3.28125 5.87875L3.45688 6.19125H5.29375L7.79375 8.67188C5.56 10.9156 2.71813 13.7669 2.61813 13.8675C1.63875 14.8462 1.63687 16.45 2.63687 17.3831C3.61375 18.3469 5.20563 18.3719 6.13375 17.3831L6.1525 17.3631L10 13.4963L13.8675 17.3825L13.9256 17.4219C14.9069 18.3469 16.4675 18.3594 17.3831 17.3825V17.3637H17.4019C18.3594 16.3844 18.3694 14.7925 17.3831 13.8669L17.3631 13.8481L14.1019 10.6056C16.2963 10.4006 18.015 8.5475 18.0469 6.30875H18.0663C18.0688 6.29625 18.0663 6.28188 18.0663 6.26937V6.25C18.1275 5.5275 17.9713 4.83625 17.5975 4.23813L17.1688 3.575L14.2581 6.485L13.3794 5.56687L16.3481 2.59813L15.4888 2.24688C14.9406 2.00571 14.3489 1.87916 13.75 1.875C11.3475 1.875 9.375 3.8475 9.375 6.25C9.375 6.51125 9.43125 6.73812 9.4725 6.9725C9.19938 7.24625 8.99438 7.47062 8.67188 7.79313L6.19125 5.3125V3.45688L5.87875 3.28125L3.69125 1.9725L3.28125 1.71875ZM13.75 3.125C13.8375 3.125 13.8988 3.17625 13.9844 3.18375L11.6213 5.54688L12.0506 5.99625L13.8088 7.8125L14.2381 8.26188L16.7188 5.78125C16.7313 5.925 16.8338 6.03 16.8163 6.19125V6.25C16.8163 7.97125 15.4125 9.375 13.6913 9.375C13.4619 9.375 13.1838 9.32125 12.8713 9.2575L12.5388 9.19938L12.3044 9.43375L5.25437 16.5037H5.23438V16.5238C4.79063 17.0094 4.01375 17.0212 3.49625 16.5037V16.4844H3.47625C2.99063 16.0406 2.97875 15.2638 3.49625 14.7463C3.73313 14.5087 8.32 9.8825 10.5663 7.63688L10.8206 7.38312L10.7225 7.03125C10.6632 6.77489 10.6305 6.51308 10.625 6.25C10.625 4.52875 12.0288 3.125 13.75 3.125ZM3.47625 3.28125L4.94125 4.18V4.805L4.805 4.94125H4.18L3.28125 3.47688L3.47625 3.28125ZM12.6169 10.8787L16.5044 14.7463V14.7656H16.5231C17.0094 15.2094 17.0213 15.9862 16.5044 16.5037H16.4844V16.5238C16.0406 17.0094 15.2638 17.0212 14.7463 16.5037L10.8788 12.6175L12.6169 10.8787Z" fill="#547100"/>
</svg>
