<svg width="20" height="20" viewBox="0 0 20 20" fill="none" xmlns="http://www.w3.org/2000/svg">
<path d="M10.0097 1.875C10.6214 1.88167 11.2305 1.9525 11.828 2.08583C11.9551 2.11421 12.0702 2.18159 12.1572 2.27855C12.2441 2.37552 12.2986 2.49722 12.313 2.62667L12.4547 3.89917C12.4747 4.07857 12.5365 4.25077 12.6352 4.40192C12.7339 4.55307 12.8667 4.67894 13.0229 4.76941C13.1791 4.85987 13.3544 4.91241 13.5346 4.92279C13.7148 4.93317 13.895 4.9011 14.0605 4.82917L15.228 4.31667C15.3466 4.26446 15.4784 4.25037 15.6053 4.27634C15.7322 4.30232 15.8479 4.36708 15.9364 4.46167C16.7796 5.36257 17.4076 6.44301 17.773 7.62167C17.8113 7.74553 17.8102 7.87825 17.7697 8.00143C17.7293 8.1246 17.6515 8.23215 17.5472 8.30917L16.5122 9.0725C16.3666 9.17941 16.2483 9.31908 16.1667 9.48021C16.0852 9.64134 16.0427 9.8194 16.0427 10C16.0427 10.1806 16.0852 10.3587 16.1667 10.5198C16.2483 10.6809 16.3666 10.8206 16.5122 10.9275L17.548 11.69C17.6526 11.767 17.7307 11.8746 17.7713 11.998C17.8119 12.1213 17.8131 12.2543 17.7747 12.3783C17.4091 13.5569 16.7812 14.6373 15.938 15.5383C15.8498 15.6327 15.7344 15.6974 15.6079 15.7235C15.4813 15.7496 15.3498 15.7359 15.2314 15.6842L14.0589 15.17C13.8935 15.0975 13.7134 15.065 13.5332 15.075C13.3529 15.085 13.1776 15.1373 13.0213 15.2277C12.865 15.3181 12.7322 15.444 12.6336 15.5953C12.535 15.7465 12.4735 15.9189 12.4539 16.0983L12.313 17.37C12.2988 17.498 12.2454 17.6186 12.1601 17.7151C12.0748 17.8116 11.9617 17.8794 11.8364 17.9092C10.6293 18.1963 9.37173 18.1963 8.16469 17.9092C8.03936 17.8794 7.92629 17.8116 7.84097 17.7151C7.75564 17.6186 7.70222 17.498 7.68802 17.37L7.54802 16.1C7.52761 15.921 7.46548 15.7493 7.36662 15.5986C7.26777 15.448 7.13495 15.3226 6.97884 15.2327C6.82273 15.1427 6.64769 15.0906 6.46779 15.0806C6.28789 15.0706 6.10815 15.1029 5.94302 15.175L4.77136 15.6883C4.65284 15.7402 4.52113 15.7541 4.39441 15.728C4.26768 15.7019 4.15218 15.6371 4.06386 15.5425C3.22028 14.6405 2.5923 13.5589 2.22719 12.3792C2.18877 12.2551 2.18995 12.1222 2.23058 11.9988C2.2712 11.8754 2.34924 11.7678 2.45386 11.6908L3.48969 10.9275C3.6354 10.8207 3.75389 10.6811 3.83557 10.5199C3.91724 10.3588 3.95981 10.1807 3.95981 10C3.95981 9.81934 3.91724 9.64122 3.83557 9.48008C3.75389 9.31894 3.6354 9.17931 3.48969 9.0725L2.45386 8.31083C2.34939 8.23376 2.27151 8.12607 2.23104 8.00272C2.19057 7.87937 2.18952 7.74648 2.22802 7.6225C2.59346 6.44385 3.22143 5.36343 4.06469 4.4625C4.15318 4.36791 4.26887 4.30315 4.39576 4.27718C4.52266 4.2512 4.65449 4.26529 4.77302 4.3175L5.93969 4.83C6.10554 4.90189 6.28594 4.93388 6.4664 4.92341C6.64685 4.91293 6.82234 4.86027 6.97875 4.76966C7.13516 4.67906 7.26815 4.55303 7.36701 4.4017C7.46588 4.25037 7.52788 4.07797 7.54802 3.89833L7.68969 2.62667C7.70399 2.49696 7.75853 2.37499 7.84566 2.27785C7.93279 2.1807 8.04813 2.11327 8.17552 2.085C8.77302 1.9525 9.38386 1.8825 10.0097 1.875ZM10.0097 3.125C9.63168 3.12944 9.25453 3.16203 8.88136 3.2225L8.79052 4.03667C8.74892 4.4113 8.61984 4.77091 8.4137 5.08649C8.20756 5.40207 7.93012 5.66477 7.60378 5.85341C7.27744 6.04204 6.91133 6.15133 6.53498 6.17245C6.15863 6.19357 5.78259 6.12594 5.43719 5.975L4.68886 5.64667C4.21218 6.2251 3.83278 6.87723 3.56552 7.5775L4.23052 8.06667C4.53404 8.28972 4.78081 8.58106 4.95089 8.91714C5.12098 9.25321 5.2096 9.62459 5.2096 10.0013C5.2096 10.3779 5.12098 10.7493 4.95089 11.0854C4.78081 11.4214 4.53404 11.7128 4.23052 11.9358L3.56469 12.4258C3.83136 13.1275 4.21136 13.7808 4.68802 14.3608L5.44219 14.03C5.78677 13.8796 6.16185 13.8121 6.53725 13.8331C6.91265 13.8541 7.27788 13.9629 7.60354 14.1508C7.9292 14.3388 8.20618 14.6005 8.4122 14.915C8.61822 15.2296 8.74752 15.5881 8.78969 15.9617L8.88136 16.7817C9.62219 16.9067 10.3797 16.9067 11.1205 16.7817L11.2122 15.9617C11.2537 15.5876 11.3825 15.2285 11.5884 14.9134C11.7942 14.5982 12.0712 14.3359 12.3971 14.1476C12.723 13.9593 13.0886 13.8502 13.4644 13.8292C13.8402 13.8082 14.2157 13.8758 14.5605 14.0267L15.3147 14.3567C15.7911 13.7779 16.1702 13.1255 16.4372 12.425L15.7722 11.935C15.4687 11.7119 15.2219 11.4206 15.0518 11.0845C14.8817 10.7485 14.7931 10.3771 14.7931 10.0004C14.7931 9.62375 14.8817 9.25238 15.0518 8.9163C15.2219 8.58023 15.4687 8.28889 15.7722 8.06583L16.4355 7.57667C16.1683 6.8764 15.7889 6.22427 15.3122 5.64583L14.5655 5.97333C14.2203 6.12446 13.8444 6.19229 13.4682 6.17135C13.0919 6.1504 12.7258 6.04128 12.3995 5.85278C12.0732 5.66428 11.7958 5.40169 11.5897 5.08621C11.3836 4.77073 11.2546 4.41121 11.213 4.03667L11.1214 3.22333C10.754 3.16328 10.3827 3.13069 10.0105 3.12583L10.0097 3.125ZM9.99969 6.875C10.8285 6.875 11.6233 7.20424 12.2094 7.79029C12.7955 8.37634 13.1247 9.1712 13.1247 10C13.1247 10.8288 12.7955 11.6237 12.2094 12.2097C11.6233 12.7958 10.8285 13.125 9.99969 13.125C9.17089 13.125 8.37603 12.7958 7.78998 12.2097C7.20393 11.6237 6.87469 10.8288 6.87469 10C6.87469 9.1712 7.20393 8.37634 7.78998 7.79029C8.37603 7.20424 9.17089 6.875 9.99969 6.875ZM9.99969 8.125C9.50241 8.125 9.0255 8.32254 8.67387 8.67417C8.32224 9.02581 8.12469 9.50272 8.12469 10C8.12469 10.4973 8.32224 10.9742 8.67387 11.3258C9.0255 11.6775 9.50241 11.875 9.99969 11.875C10.497 11.875 10.9739 11.6775 11.3255 11.3258C11.6771 10.9742 11.8747 10.4973 11.8747 10C11.8747 9.50272 11.6771 9.02581 11.3255 8.67417C10.9739 8.32254 10.497 8.125 9.99969 8.125Z" fill="#547100"/>
</svg>
