<svg width="24" height="24" viewBox="0 0 24 24" fill="none" xmlns="http://www.w3.org/2000/svg">
<g clip-path="url(#clip0_1797_34091)">
<path d="M23.326 13.725C23.1972 13.8242 23.0386 13.8771 22.876 13.875C22.7595 13.875 22.6447 13.8479 22.5406 13.7958C22.4364 13.7437 22.3458 13.6681 22.276 13.575C21.8239 12.9673 21.2355 12.4743 20.5581 12.1356C19.8808 11.797 19.1333 11.622 18.376 11.625C18.1771 11.625 17.9863 11.546 17.8456 11.4053C17.705 11.2647 17.626 11.0739 17.626 10.875C17.626 10.6761 17.705 10.4853 17.8456 10.3446C17.9863 10.204 18.1771 10.125 18.376 10.125C18.8028 10.1245 19.2207 10.0027 19.5809 9.77361C19.9411 9.54456 20.2287 9.21778 20.4102 8.83141C20.5916 8.44505 20.6594 8.01504 20.6057 7.59159C20.5519 7.16814 20.3788 6.76872 20.1065 6.43995C19.8343 6.11119 19.4742 5.86665 19.0682 5.73488C18.6622 5.6031 18.2271 5.58954 17.8136 5.69576C17.4002 5.80199 17.0255 6.02362 16.7334 6.33479C16.4412 6.64596 16.2435 7.03382 16.1635 7.4531C16.1489 7.55336 16.1142 7.64963 16.0614 7.73611C16.0086 7.82258 15.9389 7.89746 15.8564 7.95624C15.7739 8.01501 15.6803 8.05646 15.5813 8.07808C15.4823 8.0997 15.38 8.10104 15.2805 8.08203C15.181 8.06301 15.0864 8.02404 15.0023 7.96745C14.9183 7.91086 14.8466 7.83783 14.7916 7.75277C14.7365 7.66771 14.6993 7.57239 14.6821 7.47254C14.6649 7.3727 14.6682 7.27041 14.6916 7.17185C14.8029 6.58856 15.0511 6.04003 15.4158 5.57141C15.7804 5.10279 16.2512 4.72747 16.7893 4.47635C17.3274 4.22523 17.9174 4.10548 18.5109 4.12697C19.1043 4.14845 19.6841 4.31055 20.2026 4.59992C20.7212 4.8893 21.1636 5.29767 21.4934 5.79144C21.8233 6.2852 22.0311 6.85024 22.0999 7.44005C22.1687 8.02986 22.0965 8.62757 21.8891 9.184C21.6818 9.74043 21.3452 10.2397 20.9072 10.6406C21.9266 11.0826 22.8122 11.784 23.476 12.675C23.5351 12.7538 23.5781 12.8434 23.6025 12.9388C23.627 13.0343 23.6324 13.1335 23.6184 13.231C23.6045 13.3285 23.5715 13.4223 23.5213 13.5071C23.4712 13.5918 23.4048 13.6659 23.326 13.725ZM18.076 19.9219C18.1606 20.1012 18.1717 20.3066 18.1069 20.4941C18.0421 20.6815 17.9065 20.8362 17.7291 20.925C17.6256 20.9711 17.5142 20.9965 17.401 21C17.2604 20.999 17.1229 20.9591 17.0038 20.8846C16.8846 20.8101 16.7884 20.704 16.726 20.5781C16.2935 19.6934 15.6213 18.9479 14.786 18.4265C13.9507 17.905 12.9857 17.6286 12.001 17.6286C11.0162 17.6286 10.0513 17.905 9.21596 18.4265C8.38062 18.9479 7.70846 19.6934 7.27598 20.5781C7.23294 20.6668 7.17284 20.7461 7.09912 20.8116C7.0254 20.877 6.9395 20.9273 6.84633 20.9595C6.75316 20.9917 6.65456 21.0053 6.55615 20.9993C6.45775 20.9934 6.36148 20.9681 6.27285 20.925C6.09548 20.8362 5.95988 20.6815 5.89506 20.4941C5.83024 20.3066 5.84133 20.1012 5.92598 19.9219C6.62299 18.4866 7.80522 17.3443 9.26348 16.6969C8.51706 16.1247 7.96864 15.3332 7.69528 14.4333C7.42191 13.5335 7.43734 12.5706 7.7394 11.68C8.04146 10.7893 8.61497 10.0157 9.37934 9.46783C10.1437 8.91993 11.0605 8.62528 12.001 8.62528C12.9414 8.62528 13.8583 8.91993 14.6226 9.46783C15.387 10.0157 15.9605 10.7893 16.2626 11.68C16.5646 12.5706 16.58 13.5335 16.3067 14.4333C16.0333 15.3332 15.4849 16.1247 14.7385 16.6969C16.1967 17.3443 17.379 18.4866 18.076 19.9219ZM12.001 16.125C12.5943 16.125 13.1743 15.949 13.6677 15.6194C14.161 15.2897 14.5456 14.8212 14.7726 14.273C14.9997 13.7248 15.0591 13.1216 14.9433 12.5397C14.8276 11.9578 14.5419 11.4232 14.1223 11.0037C13.7027 10.5841 13.1682 10.2984 12.5862 10.1826C12.0043 10.0669 11.4011 10.1263 10.8529 10.3533C10.3047 10.5804 9.83621 10.9649 9.50657 11.4583C9.17693 11.9516 9.00098 12.5316 9.00098 13.125C9.00345 13.9199 9.32032 14.6815 9.88239 15.2436C10.4445 15.8056 11.2061 16.1225 12.001 16.125ZM6.37598 10.875C6.37598 10.6761 6.29696 10.4853 6.15631 10.3446C6.01566 10.204 5.82489 10.125 5.62598 10.125C5.19913 10.1245 4.78122 10.0027 4.42103 9.77361C4.06084 9.54456 3.77323 9.21778 3.59179 8.83141C3.41034 8.44505 3.34254 8.01504 3.3963 7.59159C3.45006 7.16814 3.62317 6.76872 3.89541 6.43995C4.16765 6.11119 4.52779 5.86665 4.93379 5.73488C5.33979 5.6031 5.7749 5.58954 6.18832 5.69576C6.60174 5.80199 6.97642 6.02362 7.26861 6.33479C7.5608 6.64596 7.75844 7.03382 7.83848 7.4531C7.85303 7.55336 7.88775 7.64963 7.94053 7.73611C7.99331 7.82258 8.06307 7.89746 8.14559 7.95624C8.2281 8.01501 8.32167 8.05646 8.42065 8.07808C8.51962 8.0997 8.62195 8.10104 8.72147 8.08203C8.82097 8.06301 8.9156 8.02404 8.99963 7.96745C9.08366 7.91086 9.15536 7.83783 9.21039 7.75277C9.26543 7.66771 9.30266 7.57239 9.31984 7.47254C9.33702 7.3727 9.33379 7.27041 9.31035 7.17185C9.19909 6.58856 8.9509 6.04003 8.5862 5.57141C8.22151 5.10279 7.75075 4.72747 7.21265 4.47635C6.67456 4.22523 6.08452 4.10548 5.4911 4.12697C4.89769 4.14845 4.31785 4.31055 3.79933 4.59992C3.2808 4.8893 2.8384 5.29767 2.50855 5.79144C2.1787 6.2852 1.97082 6.85024 1.90203 7.44005C1.83323 8.02986 1.90548 8.62757 2.11284 9.184C2.32019 9.74043 2.65672 10.2397 3.09473 10.6406C2.0754 11.0826 1.18972 11.784 0.52598 12.675C0.406632 12.8341 0.355387 13.0341 0.383518 13.231C0.411648 13.428 0.51685 13.6056 0.67598 13.725C0.804801 13.8242 0.963365 13.8771 1.12598 13.875C1.24241 13.875 1.35725 13.8479 1.46139 13.7958C1.56553 13.7437 1.65612 13.6681 1.72598 13.575C2.17803 12.9673 2.76643 12.4743 3.44382 12.1356C4.1212 11.797 4.86865 11.622 5.62598 11.625C5.82489 11.625 6.01566 11.546 6.15631 11.4053C6.29696 11.2647 6.37598 11.0739 6.37598 10.875Z" fill="#99CC00"/>
</g>
<defs>
<clipPath id="clip0_1797_34091">
<rect width="24" height="24" fill="white" transform="translate(0.000976562)"/>
</clipPath>
</defs>
</svg>
