<svg width="24" height="24" viewBox="0 0 24 24" fill="none" xmlns="http://www.w3.org/2000/svg">
<path d="M17.6768 2H7.13569C6.73579 2 6.41211 2.32368 6.41211 2.72358V21.2764C6.41211 21.6763 6.73579 22 7.13569 22H17.6768C18.0767 22 18.4003 21.6763 18.4003 21.2764V2.72358C18.4003 2.32368 18.0762 2 17.6768 2ZM10.5572 2.88228H14.2557C14.3884 2.88228 14.4969 2.99034 14.4969 3.12348C14.4969 3.25661 14.3884 3.36467 14.2557 3.36467H10.5572C10.4241 3.36467 10.3161 3.25661 10.3161 3.12348C10.3161 2.99034 10.4236 2.88228 10.5572 2.88228ZM12.4062 21.1983C12.0512 21.1983 11.7632 20.9098 11.7632 20.5553C11.7632 20.2007 12.0512 19.9118 12.4062 19.9118C12.7613 19.9118 13.0492 20.2007 13.0492 20.5548C13.0492 20.9088 12.7613 21.1983 12.4062 21.1983ZM16.9532 19.1882H7.85927V4.00769H16.9532V19.1882Z" fill="#99CC00"/>
<path d="M21.801 2.56143C22.3234 3.08382 22.3234 3.9308 21.801 4.45319L4.58356 21.6706C4.06117 22.193 3.21419 22.193 2.6918 21.6706C2.1694 21.1482 2.1694 20.3012 2.6918 19.7788M21.801 2.56143L2.6918 19.7788M21.801 2.56143C21.2786 2.03903 20.4316 2.03903 19.9092 2.56143L2.6918 19.7788M21.801 2.56143L2.6918 19.7788" fill="#99CC00" stroke="#F6FFDC" stroke-width="1.4" stroke-linecap="round"/>
</svg>
