<svg width="20" height="20" viewBox="0 0 20 20" fill="none" xmlns="http://www.w3.org/2000/svg">
<path d="M1.25 3.75V15H9.375V16.25H6.25V17.5H13.75V16.25H10.625V15H18.75V3.75H1.25ZM2.5 5H17.5V13.75H2.5V5Z" fill="#547100"/>
<path d="M11.8914 12.6947L12.8224 11.7628C12.9361 11.649 13 11.4968 13 11.3358C13 11.1748 12.937 11.0225 12.8224 10.9088L11.8205 9.90514C11.7067 9.79139 11.5536 9.72752 11.3926 9.72752C11.2307 9.72752 11.0794 9.79052 10.9647 9.90514L10.1799 10.6891C9.76372 10.5105 9.38562 10.2539 9.06598 9.93314C8.74311 9.61202 8.48848 9.23664 8.30823 8.82014L9.09311 8.03613C9.20686 7.92238 9.27073 7.77013 9.27073 7.60913C9.27103 7.52972 9.25547 7.45105 9.22497 7.37772C9.19447 7.3044 9.14964 7.23791 9.09311 7.18213L8.09123 6.17763C7.97748 6.06388 7.82435 6 7.66335 6C7.50148 6 7.3501 6.063 7.23548 6.17763L6.30447 7.10863C6.11022 7.30288 5.99909 7.57063 5.99909 7.84538C5.99909 7.90226 6.00347 7.95738 6.01309 8.01338C6.20385 9.17189 6.82072 10.3216 7.74823 11.25C8.67748 12.1775 9.82724 12.7935 10.9866 12.986C11.3156 13.0412 11.6542 12.9309 11.8914 12.6947ZM11.0907 12.3657C10.0591 12.195 9.03011 11.6403 8.19448 10.8046C7.35885 9.96902 6.8041 8.94089 6.63347 7.90926C6.6116 7.77976 6.65535 7.64676 6.74897 7.55226L7.66335 6.63788L8.63373 7.60738L7.58373 8.65564L7.57585 8.66351L7.64585 8.85251C7.85655 9.42558 8.18933 9.94597 8.62115 10.3776C9.05296 10.8093 9.57347 11.1419 10.1466 11.3524L10.3356 11.4224L11.3917 10.3654L12.3621 11.3349L11.4477 12.2493C11.3532 12.3438 11.2202 12.3875 11.0907 12.3657Z" fill="#547100"/>
</svg>
