<svg width="20" height="20" viewBox="0 0 20 20" fill="none" xmlns="http://www.w3.org/2000/svg">
<path d="M11.2876 13.7698L11.6456 14.1189C12.0317 13.7229 12.425 13.333 12.8217 12.9396L12.822 12.9392C13.0063 12.7561 13.1781 12.6975 13.3157 12.6975C13.4535 12.6975 13.6263 12.7562 13.8124 12.9397C14.4482 13.5722 15.0829 14.2036 15.7142 14.8381C15.9056 15.0308 15.9644 15.2054 15.9638 15.3434C15.9632 15.4824 15.9021 15.6608 15.7066 15.8589C15.5975 15.9689 15.4791 16.0841 15.3568 16.203C15.1072 16.4457 14.8416 16.7041 14.6074 16.9657L14.607 16.9662C14.2354 17.3827 13.7791 17.5294 13.1801 17.4958L13.1794 17.4957C12.2378 17.4443 11.3542 17.1317 10.4641 16.6996C8.48783 15.7389 6.7986 14.408 5.38084 12.7222L5.38065 12.722C4.32661 11.4701 3.46813 10.1174 2.9065 8.60486L2.90651 8.60485L2.90585 8.60311C2.63029 7.86935 2.45503 7.16686 2.5101 6.44355C2.54138 6.04608 2.6833 5.72947 2.96135 5.46618L2.96135 5.46618L2.9621 5.46547C3.20846 5.23123 3.45639 4.98089 3.69802 4.73692C3.85429 4.57914 4.00792 4.42403 4.15677 4.27765L4.15747 4.27697C4.34141 4.09538 4.51372 4.03636 4.65303 4.03616C4.79253 4.03597 4.96586 4.09469 5.15155 4.27549C5.36432 4.48389 5.57216 4.69317 5.78279 4.90528C5.88926 5.01249 5.99644 5.12043 6.10534 5.22933C6.26073 5.38638 6.41597 5.54162 6.57012 5.69577L6.57074 5.6964C6.72572 5.85137 6.8796 6.00525 7.03332 6.16063L7.03414 6.16145C7.23916 6.36772 7.29852 6.54495 7.29871 6.67826C7.2989 6.81133 7.24024 6.98715 7.03746 7.19118L7.03704 7.1916C6.98074 7.24838 6.92466 7.30501 6.86874 7.36147C6.53547 7.698 6.20774 8.02893 5.87264 8.35276L5.87259 8.35271L5.86655 8.35876C5.77583 8.44948 5.67238 8.58435 5.63906 8.77316C5.6064 8.95824 5.65565 9.11542 5.69922 9.21898C5.98704 9.90393 6.39403 10.5012 6.83454 11.0423L6.83476 11.0426C7.71163 12.1181 8.71312 13.0881 9.91934 13.8468L9.92159 13.8482C10.0664 13.9382 10.2144 14.0137 10.3478 14.0797C10.3781 14.0947 10.4074 14.1091 10.4358 14.1231C10.5376 14.1732 10.6289 14.2181 10.7195 14.2674C10.8456 14.3378 11.0232 14.4004 11.2313 14.3588C11.4283 14.3194 11.5642 14.2029 11.6466 14.1179L11.2876 13.7698ZM11.2876 13.7698C11.6772 13.3703 12.0733 12.9775 12.4695 12.5846L12.4696 12.5845L10.2455 17.1493C8.20449 16.1571 6.45983 14.782 4.99817 13.044C3.91608 11.7588 3.02377 10.3571 2.43777 8.7789C2.15144 8.01644 1.94833 7.23401 2.0116 6.40496C2.05155 5.89554 2.24133 5.45937 2.61757 5.10312C2.86125 4.87142 3.09654 4.63373 3.33207 4.39581C3.48916 4.23712 3.64635 4.07833 3.8062 3.92114C4.32561 3.40839 4.97819 3.40839 5.50093 3.91781C5.71624 4.12868 5.92859 4.34251 6.14093 4.55633C6.24711 4.66325 6.35328 4.77016 6.45983 4.87671C6.61465 5.03319 6.76946 5.18801 6.92428 5.34282C7.07911 5.49765 7.23394 5.65248 7.38876 5.80897C7.9348 6.35834 7.9348 6.99761 7.39209 7.54365C7.33621 7.60001 7.28041 7.65636 7.22462 7.71269C6.89153 8.04904 6.55948 8.38434 6.2201 8.71231C6.11689 8.81552 6.1069 8.89876 6.16017 9.02528C6.4232 9.65123 6.79944 10.2073 7.22229 10.7267C8.07464 11.7721 9.03687 12.7011 10.1856 13.4236C10.3343 13.516 10.4928 13.5939 10.6514 13.6719C10.7555 13.7231 10.8597 13.7744 10.9613 13.8298C11.0912 13.903 11.1811 13.8797 11.2876 13.7698Z" stroke="#547100"/>
<path d="M13.5281 9.93092L14.7567 9.72116C14.5636 8.59246 14.0309 7.57029 13.2218 6.75789C12.3661 5.90221 11.284 5.36283 10.0921 5.19635L9.91895 6.4316C10.8412 6.56145 11.6803 6.97764 12.3428 7.64021C12.9688 8.26616 13.3783 9.05859 13.5281 9.93092Z" fill="#547100"/>
<path d="M15.4492 4.59036C14.0308 3.17199 12.2362 2.27635 10.2552 2L10.082 3.23525C11.7934 3.47498 13.345 4.25075 14.5702 5.47269C15.7322 6.63469 16.4947 8.103 16.771 9.71782L17.9996 9.50806C17.6767 7.63687 16.7943 5.93882 15.4492 4.59036Z" fill="#547100"/>
</svg>
