<svg width="20" height="20" viewBox="0 0 20 20" fill="none" xmlns="http://www.w3.org/2000/svg">
<path d="M13.0003 9.66666H17.8337V10.3333H13.0003V9.66666ZM13.8337 13H17.8337V13.6667H13.8337V13ZM12.167 6.33332H17.8337V6.99999H12.167V6.33332ZM11.167 15V15.3333H3.33366H2.16699V15C2.16699 12.9786 3.8123 11.3333 5.83366 11.3333H7.50033C9.52168 11.3333 11.167 12.9786 11.167 15ZM9.08366 7.08332C9.08366 8.46968 8.05335 9.49999 6.66699 9.49999C5.28063 9.49999 4.25033 8.46968 4.25033 7.08332C4.25033 5.69697 5.28063 4.66666 6.66699 4.66666C8.05335 4.66666 9.08366 5.69697 9.08366 7.08332Z" stroke="#547100"/>
</svg>
