<svg width="16" height="17" viewBox="0 0 16 17" fill="none" xmlns="http://www.w3.org/2000/svg">
<path d="M11.2137 4.71429C11.2137 6.48949 9.77464 7.92857 7.99944 7.92857C6.22424 7.92857 4.78516 6.48949 4.78516 4.71429C4.78516 2.93908 6.22424 1.5 7.99944 1.5C9.77464 1.5 11.2137 2.93908 11.2137 4.71429Z" fill="#A7A7A7"/>
<path fill-rule="evenodd" clip-rule="evenodd" d="M7.99944 2.0625C6.5349 2.0625 5.34766 3.24974 5.34766 4.71429C5.34766 6.17883 6.5349 7.36607 7.99944 7.36607C9.46398 7.36607 10.6512 6.17883 10.6512 4.71429C10.6512 3.24974 9.46398 2.0625 7.99944 2.0625ZM4.22266 4.71429C4.22266 2.62842 5.91358 0.9375 7.99944 0.9375C10.0853 0.9375 11.7762 2.62842 11.7762 4.71429C11.7762 6.80015 10.0853 8.49107 7.99944 8.49107C5.91358 8.49107 4.22266 6.80015 4.22266 4.71429Z" fill="#A7A7A7"/>
<path d="M15.1786 15.8571H1.25C1.25 14.0714 2.64286 10.5 8.21428 10.5C13.7857 10.5 15.1786 14.0714 15.1786 15.8571Z" fill="#A7A7A7"/>
<path fill-rule="evenodd" clip-rule="evenodd" d="M2.23218 12.1245C3.40012 10.8768 5.29958 9.9375 8.21428 9.9375C11.129 9.9375 13.0285 10.8768 14.1964 12.1245C15.3496 13.3566 15.7411 14.8385 15.7411 15.8571C15.7411 16.1678 15.4892 16.4196 15.1786 16.4196H1.25C0.93934 16.4196 0.6875 16.1678 0.6875 15.8571C0.6875 14.8385 1.07897 13.3566 2.23218 12.1245ZM1.86034 15.2946H14.5682C14.4512 14.5726 14.105 13.6732 13.375 12.8933C12.4537 11.909 10.871 11.0625 8.21428 11.0625C5.55756 11.0625 3.97488 11.909 3.05353 12.8933C2.32357 13.6732 1.97739 14.5726 1.86034 15.2946Z" fill="#A7A7A7"/>
</svg>
