<svg width="20" height="20" viewBox="0 0 20 20" fill="none" xmlns="http://www.w3.org/2000/svg">
<path d="M12.0103 5.60815L12.009 8.57314C12.009 8.68572 12.0539 8.79332 12.1338 8.87278L14.2645 10.9934L14.8665 10.3942L12.8605 8.39764L12.8617 5.60815H12.0103Z" fill="#909090" stroke="#909090" stroke-width="0.4"/>
<path fill-rule="evenodd" clip-rule="evenodd" d="M8.17846 4.54466C9.21186 3.20758 10.8046 2.31784 12.6222 2.24328C15.8915 2.10918 18.6603 4.66019 18.7944 7.92907C18.8934 10.3424 17.5291 12.4834 15.4927 13.4928L14.8539 12.8541C16.7441 12.0489 18.0365 10.1352 17.9474 7.96382C17.8325 5.16143 15.4593 2.97533 12.6569 3.09029C11.0985 3.15422 9.73295 3.91709 8.84711 5.06359L8.17846 4.54466Z" fill="#909090"/>
<path d="M12.6222 2.24328L12.6099 1.94353L12.6099 1.94353L12.6222 2.24328ZM8.17846 4.54466L7.94109 4.36121L7.758 4.5981L7.99453 4.78167L8.17846 4.54466ZM15.4927 13.4928L15.2805 13.7049L15.4329 13.8572L15.6259 13.7616L15.4927 13.4928ZM14.8539 12.8541L14.7364 12.5781L14.3277 12.7521L14.6418 13.0662L14.8539 12.8541ZM8.84711 5.06359L8.66318 5.30059L8.90069 5.48492L9.08451 5.24701L8.84711 5.06359ZM12.6099 1.94353C10.6997 2.02189 9.02611 2.95734 7.94109 4.36121L8.41583 4.72812C9.39761 3.45782 10.9095 2.61379 12.6345 2.54303L12.6099 1.94353ZM19.0942 7.91677C18.9533 4.48236 16.0447 1.80265 12.6099 1.94353L12.6345 2.54303C15.7382 2.41572 18.3673 4.83802 18.4947 7.94137L19.0942 7.91677ZM15.6259 13.7616C17.7643 12.7017 19.1982 10.4531 19.0942 7.91677L18.4947 7.94137C18.5886 10.2318 17.2939 12.2651 15.3594 13.224L15.6259 13.7616ZM15.7048 13.2806L15.0661 12.6419L14.6418 13.0662L15.2805 13.7049L15.7048 13.2806ZM17.6477 7.97612C17.7315 10.0185 16.5158 11.82 14.7364 12.5781L14.9715 13.1301C16.9724 12.2777 18.3415 10.2519 18.2472 7.95152L17.6477 7.97612ZM12.6692 3.39004C15.306 3.28187 17.5395 5.33927 17.6477 7.97612L18.2472 7.95152C18.1254 4.98358 15.6125 2.66879 12.6446 2.79054L12.6692 3.39004ZM9.08451 5.24701C9.91872 4.16732 11.2034 3.45017 12.6692 3.39004L12.6446 2.79054C10.9936 2.85827 9.54718 3.66685 8.60972 4.88017L9.08451 5.24701ZM9.03105 4.82659L8.36239 4.30766L7.99453 4.78167L8.66318 5.30059L9.03105 4.82659Z" fill="#909090"/>
<path d="M7.59998 5.80011L7.48897 3.40268L9.99741 5.6891L7.59998 5.80011Z" fill="#909090"/>
<path d="M13.1645 13.5846C12.6417 13.0685 11.9891 13.0685 11.4697 13.5846C11.0735 13.9774 10.6773 14.3703 10.2877 14.7699C10.1812 14.8797 10.0913 14.903 9.96146 14.8298C9.70508 14.69 9.43206 14.5768 9.18568 14.4236C8.037 13.7011 7.07477 12.7722 6.22241 11.7267C5.79956 11.2073 5.42333 10.6513 5.16029 10.0253C5.10702 9.89879 5.11701 9.81555 5.22023 9.71234C5.61644 9.32945 6.00266 8.93656 6.39221 8.54368C6.93493 7.99764 6.93493 7.35837 6.38889 6.809C6.07924 6.49603 5.7696 6.18971 5.45995 5.87674C5.14032 5.55711 4.82401 5.23414 4.50105 4.91784C3.97832 4.40842 3.32573 4.40842 2.80633 4.92117C2.40678 5.31405 2.02389 5.71692 1.61769 6.10315C1.24145 6.4594 1.05167 6.89557 1.01172 7.40499C0.948457 8.23404 1.15156 9.01647 1.4379 9.77893C2.02389 11.3571 2.9162 12.7588 3.99829 14.044C5.45995 15.782 7.20462 17.1571 9.24561 18.1493C10.1646 18.5955 11.1168 18.9384 12.1523 18.995C12.8648 19.035 13.4841 18.8552 13.9802 18.2992C14.3198 17.9196 14.7027 17.5733 15.0623 17.2104C15.595 16.671 15.5983 16.0184 15.0689 15.4857C14.4363 14.8498 13.8004 14.2172 13.1645 13.5846Z" fill="#909090"/>
</svg>
