<svg width="20" height="20" viewBox="0 0 20 20" fill="none" xmlns="http://www.w3.org/2000/svg">
<g clip-path="url(#clip0_1346_4479)">
<path d="M12.5691 4.89538C11.9704 2.11453 10.6935 0.355225 9.51247 0.355225C8.33146 0.355225 7.05454 2.11453 6.45581 4.89538H12.5691Z" fill="#909090"/>
<path d="M6.1073 8.30047C6.10716 9.0597 6.15778 9.81808 6.25883 10.5706H12.766C12.8671 9.81808 12.9177 9.0597 12.9175 8.30047C12.9177 7.54125 12.8671 6.78287 12.766 6.0304H6.25883C6.15778 6.78287 6.10716 7.54125 6.1073 8.30047Z" fill="#909090"/>
<path d="M6.45581 11.7057C7.05454 14.4865 8.33146 16.2458 9.51247 16.2458C10.6935 16.2458 11.9704 14.4865 12.5691 11.7057H6.45581Z" fill="#909090"/>
<path d="M13.7311 4.89542H17.3065C16.7693 3.67285 15.953 2.59319 14.9232 1.74304C13.8934 0.892895 12.6787 0.295919 11.3765 0C12.453 0.94719 13.2975 2.69855 13.7311 4.89542Z" fill="#909090"/>
<path d="M17.7147 6.0304H13.9123C14.0059 6.78346 14.0527 7.54161 14.0525 8.30047C14.0526 9.05935 14.0056 9.8175 13.9117 10.5706H17.7141C18.128 9.08546 18.128 7.51548 17.7141 6.0304H17.7147Z" fill="#909090"/>
<path d="M11.3765 16.6011C12.6789 16.3054 13.8938 15.7085 14.9238 14.8583C15.9539 14.0081 16.7703 12.9284 17.3076 11.7057H13.7322C13.2975 13.9026 12.453 15.6539 11.3765 16.6011Z" fill="#909090"/>
<path d="M5.29363 11.7057H1.71826C2.25558 12.9284 3.07201 14.0081 4.10203 14.8583C5.13206 15.7085 6.34701 16.3054 7.64941 16.6011C6.57169 15.6539 5.72722 13.9026 5.29363 11.7057Z" fill="#909090"/>
<path d="M7.64758 0C6.34518 0.295759 5.13023 0.892661 4.1002 1.74282C3.07018 2.59298 2.25375 3.67272 1.71643 4.89542H5.2918C5.72652 2.69855 6.57099 0.94719 7.64758 0Z" fill="#909090"/>
<path d="M4.97203 8.30047C4.97196 7.5416 5.01897 6.78345 5.11278 6.0304H1.31041C0.896532 7.51548 0.896532 9.08546 1.31041 10.5706H5.11278C5.01897 9.8175 4.97196 9.05935 4.97203 8.30047Z" fill="#909090"/>
<path d="M18.8775 12.8941L18.8794 12.8946C19.2436 12.9857 19.5 13.3128 19.5 13.6892V14.9662C19.5 15.3426 19.2436 15.6697 18.8793 15.7608L18.8775 15.7613L17.89 16.0041C17.8607 16.0799 17.8294 16.1548 17.7961 16.229L18.2305 16.9527C18.2305 16.9527 18.2306 16.9528 18.2306 16.9528C18.4243 17.2755 18.3729 17.6882 18.1074 17.9537L17.7539 17.6001L18.1074 17.9537L17.2051 18.8559C17.205 18.8561 17.2049 18.8562 17.2047 18.8563C16.9378 19.1237 16.5251 19.1718 16.2044 18.9801L16.2038 18.9797L16.461 18.5509L16.2038 18.9797L16.2038 18.9797L16.2037 18.9796L16.2033 18.9794L16.202 18.9786L16.1966 18.9754L16.1761 18.963L16.1003 18.9176L15.8489 18.7667L15.4934 18.5535C15.4062 18.5938 15.3177 18.6314 15.228 18.6661L14.9854 19.6533L14.9849 19.6553C14.8939 20.0195 14.5668 20.2759 14.1903 20.2759H12.9134C12.5377 20.2759 12.2091 20.0201 12.1185 19.6541L12.1183 19.6533L11.8757 18.6662C11.792 18.6338 11.7092 18.599 11.6274 18.5618L11.2807 18.7695L11.0324 18.9184L10.9574 18.9633L10.937 18.9755L10.9317 18.9787L10.9304 18.9795L10.93 18.9797L10.93 18.9798L10.9299 18.9798L10.6728 18.5509L10.9299 18.9798L10.9282 18.9808C10.6075 19.1713 10.1957 19.1228 9.92929 18.8565L9.02647 17.9537L9.37309 17.607L9.02647 17.9537C8.76098 17.6882 8.70955 17.2754 8.90337 16.9527L9.32039 16.2576C9.2823 16.1742 9.24671 16.0896 9.21368 16.0041L8.22617 15.7613L8.22529 15.7611C7.85943 15.6704 7.60364 15.3418 7.60364 14.9662V13.6892C7.60364 13.3127 7.86008 12.9857 8.2243 12.8946L8.22582 12.8942L9.21374 12.6505C9.23524 12.595 9.25783 12.5398 9.28148 12.4851L8.79549 11.6734C8.79542 11.6733 8.79535 11.6732 8.79528 11.6731C8.60171 11.3504 8.6532 10.9378 8.91859 10.6724L9.82142 9.76962L9.82196 9.76907C10.0887 9.50313 10.4996 9.45474 10.8203 9.6453L10.8223 9.64643L10.8222 9.64644L11.5934 10.1092C11.6863 10.066 11.7807 10.0259 11.8763 9.98894C11.9154 9.83025 11.9599 9.64926 11.9999 9.48575L12.0834 9.1449L12.1087 9.04101L12.1157 9.01272L12.1174 9.00536L12.1179 9.00349L12.118 9.00302L12.118 9.00291L12.1181 9.00288L12.6038 9.12143L12.1181 9.00287L12.1185 9.00117C12.2091 8.63531 12.5377 8.37952 12.9134 8.37952H14.1903C14.5668 8.37952 14.8938 8.63596 14.9849 9.00011L14.9854 9.00204L14.9854 9.00204L15.2282 9.98947C15.3082 10.0204 15.3873 10.0535 15.4655 10.0888L16.2034 9.64668C16.2035 9.64664 16.2035 9.6466 16.2036 9.64656C16.5264 9.45257 16.9389 9.50355 17.2046 9.76962L18.8775 12.8941ZM18.8775 12.8941L17.8899 12.6513C17.8584 12.5699 17.8246 12.4894 17.7886 12.4099L18.01 12.041L18.1661 11.7808L18.2134 11.7021L18.2262 11.6807L18.2295 11.6751L18.2304 11.6737L18.2305 11.6734L18.2306 11.6733L18.2307 11.6732L18.2307 11.6732C18.4243 11.3505 18.3729 10.9379 18.1074 10.6724L17.2052 9.77016L18.8775 12.8941ZM13.5518 16.0623C12.5959 16.0623 11.8172 15.2836 11.8172 14.3277C11.8172 13.3718 12.5959 12.5931 13.5518 12.5931C14.5077 12.5931 15.2864 13.3718 15.2864 14.3277C15.2864 15.2836 14.5077 16.0623 13.5518 16.0623Z" fill="#909090" stroke="white"/>
<path d="M18.7581 13.3797L17.5082 13.0723C17.4331 12.8354 17.3365 12.6056 17.2199 12.3858C17.4075 12.0735 17.8019 11.416 17.8019 11.416C17.8773 11.2904 17.8574 11.1295 17.7539 11.026L16.8511 10.1232C16.7476 10.0194 16.587 9.99942 16.4611 10.0752L15.4897 10.6572C15.2711 10.5415 15.0426 10.4458 14.8072 10.3713L14.4999 9.12145C14.4643 8.97929 14.3368 8.87952 14.1903 8.87952H12.9134C12.7668 8.87952 12.639 8.97929 12.6038 9.12143C12.6038 9.12143 12.3909 9.99378 12.2967 10.371C12.0458 10.4505 11.8032 10.5537 11.5722 10.6796L10.565 10.0752C10.439 10.0003 10.2788 10.0197 10.175 10.1232L9.27215 11.026C9.16865 11.1295 9.14869 11.2904 9.22413 11.416L9.84701 12.4563C9.74663 12.6543 9.66246 12.8603 9.59544 13.0714L8.34557 13.3797C8.20341 13.4152 8.10364 13.5427 8.10364 13.6892V14.9662C8.10364 15.1127 8.20341 15.2405 8.34555 15.2757L9.59574 15.5831C9.6715 15.8235 9.77 16.057 9.88941 16.2811L9.33201 17.2101C9.25657 17.3357 9.27653 17.4966 9.38002 17.6001L10.2828 18.5029C10.386 18.6061 10.5469 18.6257 10.6728 18.5509C10.6728 18.5509 11.2979 18.1762 11.604 17.9929C11.8257 18.1111 12.0576 18.2086 12.2967 18.2844L12.6038 19.534C12.639 19.6761 12.7668 19.7759 12.9134 19.7759H14.1903C14.3368 19.7759 14.4643 19.6761 14.4999 19.534L14.8069 18.2844C15.0529 18.2065 15.2898 18.1058 15.5152 17.9836C15.8298 18.1722 16.461 18.5509 16.461 18.5509C16.5867 18.6261 16.7475 18.6067 16.851 18.5029L17.7539 17.6001C17.8574 17.4966 17.8773 17.3357 17.8019 17.2101L17.2279 16.254C17.3411 16.0392 17.435 15.8144 17.5082 15.5831L18.7581 15.2757C18.9003 15.2402 19 15.1127 19 14.9662V13.6892C19 13.5427 18.9003 13.4152 18.7581 13.3797ZM13.5518 16.5623C12.3198 16.5623 11.3172 15.5597 11.3172 14.3277C11.3172 13.0957 12.3198 12.0931 13.5518 12.0931C14.7839 12.0931 15.7864 13.0957 15.7864 14.3277C15.7864 15.5597 14.7839 16.5623 13.5518 16.5623Z" fill="#909090" stroke="white" stroke-width="0.4"/>
<circle cx="13.5518" cy="14.3278" r="1.81606" fill="white"/>
</g>
<defs>
<clipPath id="clip0_1346_4479">
<rect width="20" height="20" fill="white"/>
</clipPath>
</defs>
</svg>
