<svg width="20" height="20" viewBox="0 0 20 20" fill="none" xmlns="http://www.w3.org/2000/svg">
<path d="M19.0001 8.53842V15.0922C19.0001 15.5397 18.6398 15.8999 18.196 15.8999H17.2782V17.9556C17.2782 18.0656 17.1493 18.1187 17.0696 18.0429L14.9268 15.8999H8.47543C8.03169 15.8999 7.67139 15.5397 7.67139 15.0922V12.2401H14.1986C14.7561 12.2401 15.2074 11.7888 15.2074 11.2312V7.73438H18.196C18.6398 7.73437 19.0001 8.09471 19.0001 8.53842Z" fill="#909090"/>
<path d="M3.06617 14.5756C3.06632 14.5755 3.06647 14.5753 3.06662 14.5752L3.06617 14.5756ZM2.01266 12.7402H2.65803V14.8192C2.65803 15.3987 3.3617 15.6943 3.77327 15.2827L6.31584 12.7402H14.1985C15.0321 12.7402 15.7073 12.065 15.7073 11.2313V3.00882C15.7073 2.17515 15.0321 1.5 14.1985 1.5H2.01266C1.17643 1.5 0.5 2.17392 0.5 3.00882V11.2313C0.5 12.0663 1.17642 12.7402 2.01266 12.7402Z" fill="#909090" stroke="white" stroke-miterlimit="10" stroke-linecap="round" stroke-linejoin="round"/>
<path d="M11.5019 8.06821C12.0255 8.06821 12.45 7.6437 12.45 7.12004C12.45 6.59638 12.0255 6.17188 11.5019 6.17188C10.9782 6.17188 10.5537 6.59638 10.5537 7.12004C10.5537 7.6437 10.9782 8.06821 11.5019 8.06821Z" fill="white" stroke="white" stroke-width="0.8" stroke-miterlimit="10" stroke-linecap="round" stroke-linejoin="round"/>
<path d="M8.10368 8.06821C8.62734 8.06821 9.05185 7.6437 9.05185 7.12004C9.05185 6.59638 8.62734 6.17188 8.10368 6.17188C7.58003 6.17188 7.15552 6.59638 7.15552 7.12004C7.15552 7.6437 7.58003 8.06821 8.10368 8.06821Z" fill="white" stroke="white" stroke-width="0.8" stroke-miterlimit="10" stroke-linecap="round" stroke-linejoin="round"/>
<path d="M4.70549 8.06821C5.22915 8.06821 5.65366 7.6437 5.65366 7.12004C5.65366 6.59638 5.22915 6.17188 4.70549 6.17188C4.18183 6.17188 3.75732 6.59638 3.75732 7.12004C3.75732 7.6437 4.18183 8.06821 4.70549 8.06821Z" fill="white" stroke="white" stroke-width="0.8" stroke-miterlimit="10" stroke-linecap="round" stroke-linejoin="round"/>
</svg>
