<svg width="20" height="20" viewBox="0 0 20 20" fill="none" xmlns="http://www.w3.org/2000/svg">
<path d="M8.28117 7.5H3.5937C2.9906 7.5 2.5 7.0094 2.5 6.40618V3.5937C2.5 2.9906 2.9906 2.5 3.5937 2.5H8.28117C8.88438 2.5 9.37499 2.9906 9.37499 3.5937V6.40618C9.37499 7.0094 8.88438 7.5 8.28117 7.5Z" fill="#909090"/>
<path d="M8.28117 17.4999H3.5937C2.9906 17.4999 2.5 17.0093 2.5 16.4062V9.84376C2.5 9.24054 2.9906 8.74994 3.5937 8.74994H8.28117C8.88438 8.74994 9.37499 9.24054 9.37499 9.84376V16.4062C9.37499 17.0093 8.88438 17.4999 8.28117 17.4999Z" fill="#909090"/>
<path d="M16.4062 17.4999H11.7187C11.1155 17.4999 10.6249 17.0093 10.6249 16.4062V13.5938C10.6249 12.9905 11.1155 12.4999 11.7187 12.4999H16.4062C17.0093 12.4999 17.4999 12.9905 17.4999 13.5938V16.4062C17.4999 17.0093 17.0093 17.4999 16.4062 17.4999Z" fill="#909090"/>
<path d="M16.4062 11.25H11.7187C11.1155 11.25 10.6249 10.7594 10.6249 10.1562V3.5937C10.6249 2.9906 11.1155 2.5 11.7187 2.5H16.4062C17.0093 2.5 17.4999 2.9906 17.4999 3.5937V10.1562C17.4999 10.7594 17.0093 11.25 16.4062 11.25Z" fill="#909090"/>
</svg>
