<svg width="24" height="24" viewBox="0 0 24 24" fill="none" xmlns="http://www.w3.org/2000/svg">
<path d="M21.5997 7.18797C21.5923 6.93893 21.4881 6.70257 21.3094 6.52895L17.4743 2.69468C17.3852 2.60514 17.2794 2.53408 17.1627 2.4856C17.0461 2.43711 16.921 2.41215 16.7947 2.41215C16.6683 2.41215 16.5433 2.43711 16.4266 2.4856C16.31 2.53408 16.204 2.60514 16.1149 2.69468L12.2797 6.52895C12.1847 6.61664 12.1085 6.72264 12.0555 6.84058C12.0025 6.95852 11.9739 7.08596 11.9715 7.21523C11.969 7.3445 11.9927 7.47293 12.0412 7.59279C12.0897 7.71266 12.1619 7.82148 12.2535 7.91271C12.3451 8.00395 12.4543 8.07571 12.5744 8.12367C12.6945 8.17164 12.823 8.19483 12.9523 8.19183C13.0816 8.18884 13.2089 8.15973 13.3267 8.10626C13.4444 8.05279 13.5501 7.97606 13.6374 7.88068L15.8321 5.68646L15.8321 20.6248C15.8376 20.8754 15.941 21.1138 16.1202 21.2891C16.2994 21.4644 16.5402 21.5625 16.7909 21.5625C17.0416 21.5625 17.2823 21.4644 17.4615 21.2891C17.6407 21.1138 17.7441 20.8754 17.7496 20.6248L17.7496 5.67897L19.9518 7.88068C20.0862 8.01962 20.2593 8.11472 20.4487 8.15351C20.638 8.19231 20.8347 8.17299 21.0129 8.0981C21.191 8.0232 21.3424 7.89622 21.4471 7.73381C21.5519 7.5714 21.6051 7.38113 21.5997 7.18797ZM12.0101 16.7886C12.0101 16.5975 11.9529 16.4107 11.8459 16.2523C11.7389 16.0939 11.5871 15.971 11.4097 15.8996C11.2324 15.8281 11.0377 15.8113 10.8507 15.8513C10.6638 15.8913 10.493 15.9863 10.3604 16.124L8.16762 18.3182L8.16763 3.3799C8.17043 3.25225 8.14767 3.12532 8.10074 3.00656C8.05382 2.88781 7.98365 2.77962 7.89434 2.68834C7.80503 2.59707 7.69836 2.52455 7.58064 2.47504C7.46292 2.42553 7.33652 2.40002 7.20881 2.40002C7.08109 2.40002 6.95469 2.42553 6.83697 2.47504C6.71925 2.52455 6.61258 2.59707 6.52327 2.68834C6.43396 2.77962 6.36379 2.88781 6.31687 3.00656C6.26995 3.12532 6.24729 3.25225 6.2501 3.3799L6.2501 18.3257L4.04788 16.124C3.95926 16.0323 3.85328 15.9592 3.73606 15.909C3.61885 15.8588 3.49274 15.8325 3.36522 15.8315C3.2377 15.8306 3.11131 15.8552 2.99339 15.9037C2.87547 15.9522 2.76839 16.0238 2.67847 16.1142C2.58855 16.2046 2.51752 16.312 2.46963 16.4302C2.42174 16.5483 2.39792 16.6749 2.39954 16.8023C2.40116 16.9298 2.42828 17.0557 2.47916 17.1726C2.53003 17.2895 2.60367 17.3951 2.69586 17.4832L6.52537 21.3175C6.61448 21.407 6.72032 21.4781 6.83697 21.5266C6.95363 21.5751 7.07871 21.6 7.20504 21.6C7.33137 21.6 7.45646 21.5751 7.57311 21.5266C7.68976 21.4781 7.79572 21.407 7.88482 21.3175L11.7199 17.4832C11.8126 17.393 11.8861 17.285 11.936 17.1656C11.9859 17.0462 12.0111 16.918 12.0101 16.7886Z" fill="white"/>
<path d="M6.87976 20.3201L3.03967 15.84L11.3599 15.84L6.87976 20.3201Z" fill="white"/>
<path d="M17.1198 3.67975L20.9598 8.15985L12.6396 8.15985L17.1198 3.67975Z" fill="white"/>
</svg>
