<svg width="20" height="20" viewBox="0 0 20 20" fill="none" xmlns="http://www.w3.org/2000/svg">
<path d="M5.98995 2.0003C5.78242 2.00649 5.58545 2.0933 5.44077 2.24225L2.24554 5.43813C2.17093 5.51238 2.11171 5.60058 2.07131 5.69779C2.03091 5.79501 2.01011 5.89924 2.01011 6.00452C2.01011 6.1098 2.03091 6.21403 2.07131 6.31124C2.11171 6.40846 2.17093 6.49675 2.24554 6.571L5.44077 9.76697C5.51385 9.84617 5.60218 9.90967 5.70047 9.95383C5.79875 9.99799 5.90495 10.0218 6.01267 10.0239C6.1204 10.0259 6.22742 10.0061 6.32731 9.96574C6.4272 9.92534 6.51788 9.8652 6.59391 9.78884C6.66994 9.71248 6.72973 9.6215 6.76971 9.52143C6.80968 9.42135 6.829 9.31423 6.82651 9.20649C6.82401 9.09875 6.79976 8.99262 6.7552 8.89451C6.71064 8.79639 6.6467 8.70834 6.56722 8.63558L4.7387 6.80667L17.1873 6.80667C17.3961 6.80208 17.5948 6.71591 17.7409 6.56657C17.887 6.41724 17.9687 6.21657 17.9687 6.00766C17.9687 5.79875 17.887 5.59817 17.7409 5.44883C17.5948 5.2995 17.3961 5.21332 17.1873 5.20873L4.73246 5.20873L6.56722 3.37355C6.68299 3.2616 6.76224 3.11729 6.79457 2.95951C6.82691 2.80173 6.81081 2.63784 6.74839 2.48936C6.68598 2.34089 6.58016 2.21473 6.44482 2.12746C6.30948 2.04019 6.15092 1.99587 5.98995 2.0003ZM13.9905 9.99167C13.8312 9.99169 13.6756 10.0393 13.5435 10.1285C13.4115 10.2177 13.3092 10.3442 13.2496 10.492C13.1901 10.6398 13.1761 10.802 13.2094 10.9578C13.2427 11.1136 13.3219 11.2559 13.4367 11.3664L15.2652 13.1937H2.81657C2.71019 13.1914 2.60441 13.2104 2.50545 13.2495C2.40649 13.2886 2.31633 13.347 2.24027 13.4215C2.1642 13.4959 2.10377 13.5848 2.06251 13.6829C2.02125 13.781 2 13.8863 2 13.9927C2 14.0992 2.02125 14.2045 2.06251 14.3026C2.10377 14.4007 2.1642 14.4896 2.24027 14.564C2.31633 14.6384 2.40649 14.6969 2.50545 14.736C2.60441 14.7751 2.71019 14.794 2.81657 14.7917H15.2714L13.4367 16.6268C13.3602 16.7007 13.2993 16.789 13.2575 16.8867C13.2156 16.9844 13.1937 17.0895 13.1929 17.1957C13.1922 17.302 13.2126 17.4073 13.2531 17.5056C13.2935 17.6039 13.3531 17.6931 13.4285 17.768C13.5038 17.843 13.5933 17.9021 13.6918 17.9421C13.7903 17.982 13.8957 18.0018 14.0019 18.0005C14.1082 17.9991 14.2131 17.9765 14.3105 17.9341C14.4079 17.8917 14.4959 17.8304 14.5693 17.7535L17.7646 14.5623C17.8392 14.488 17.8984 14.3998 17.9388 14.3026C17.9792 14.2054 18 14.1012 18 13.9959C18 13.8906 17.9792 13.7864 17.9388 13.6892C17.8984 13.5919 17.8392 13.5037 17.7646 13.4294L14.5693 10.2335C14.4942 10.1562 14.4041 10.095 14.3047 10.0534C14.2052 10.0118 14.0983 9.99083 13.9905 9.99167Z" fill="#909090"/>
<path d="M16.9334 14.267L13.2 17.4671V10.5336L16.9334 14.267Z" fill="#909090"/>
<path d="M3.06638 5.7335L6.7998 2.53342L6.7998 9.46692L3.06638 5.7335Z" fill="#909090"/>
</svg>
