<svg width="20" height="20" viewBox="0 0 20 20" fill="none" xmlns="http://www.w3.org/2000/svg">
<path d="M17.9764 12.7737C17.7943 12.5914 17.5728 12.5002 17.3125 12.5002H12.7811L11.453 13.8283C11.0754 14.1928 10.6328 14.3752 10.1249 14.3752C9.61725 14.3752 9.17443 14.1931 8.79685 13.8283L7.4785 12.5002H2.93748C2.67712 12.5002 2.45578 12.5915 2.27343 12.7737C2.09112 12.9559 2 13.1773 2 13.4378V16.5627C2 16.8231 2.09112 17.0445 2.27343 17.2268C2.45574 17.409 2.67708 17.5 2.93748 17.5H17.3126C17.5729 17.5 17.7944 17.409 17.9765 17.2268C18.1588 17.0445 18.2499 16.8231 18.2499 16.5627V13.4378C18.2499 13.1773 18.1588 12.9559 17.9764 12.7737ZM14.3145 16.0646C14.1907 16.1884 14.0442 16.2502 13.8749 16.2502C13.7056 16.2502 13.5593 16.1884 13.4355 16.0646C13.3118 15.9409 13.25 15.7945 13.25 15.6253C13.25 15.4561 13.3118 15.3094 13.4355 15.1859C13.5593 15.0621 13.7056 15.0001 13.8749 15.0001C14.0442 15.0001 14.1907 15.0621 14.3145 15.1859C14.4381 15.3094 14.5 15.456 14.5 15.6253C14.5 15.7945 14.4381 15.9409 14.3145 16.0646ZM16.8144 16.0646C16.6907 16.1884 16.5442 16.2502 16.3749 16.2502C16.2057 16.2502 16.0592 16.1884 15.9355 16.0646C15.8119 15.9409 15.7501 15.7945 15.7501 15.6253C15.7501 15.4561 15.8119 15.3094 15.9355 15.1859C16.0592 15.0621 16.2056 15.0001 16.3749 15.0001C16.5442 15.0001 16.6907 15.0621 16.8144 15.1859C16.9381 15.3094 17 15.456 17 15.6253C17 15.7945 16.9382 15.9409 16.8144 16.0646Z" fill="#909090"/>
<path d="M9.68547 12.9396C9.80273 13.0632 9.94919 13.125 10.1249 13.125C10.3007 13.125 10.447 13.0632 10.5643 12.9396L14.9394 8.56453C15.1411 8.37576 15.1868 8.14785 15.0761 7.88092C14.9656 7.62708 14.7735 7.50015 14.4999 7.50001H11.9999V3.12502C11.9999 2.95578 11.9379 2.80928 11.8144 2.68559C11.6906 2.56188 11.5442 2.5 11.375 2.5H8.87479C8.70561 2.5 8.55911 2.56188 8.43536 2.68559C8.31171 2.80928 8.24983 2.95574 8.24983 3.12502V7.50005H5.74985C5.47628 7.50005 5.28432 7.62712 5.17363 7.88095C5.06302 8.14778 5.10854 8.37579 5.31042 8.56457L9.68547 12.9396Z" fill="#909090"/>
</svg>
