<svg width="24" height="24" viewBox="0 0 24 24" fill="none" xmlns="http://www.w3.org/2000/svg">
<g clip-path="url(#clip0_1767_8806)">
<path d="M12.0058 12.0049C12.6986 12.0049 13.3758 11.7994 13.9518 11.4146C14.5277 11.0297 14.9767 10.4826 15.2417 9.84261C15.5068 9.20259 15.5761 8.49834 15.4409 7.81892C15.3057 7.13949 14.9721 6.51542 14.4822 6.02562C13.9923 5.53582 13.3682 5.2023 12.6888 5.06723C12.0093 4.93215 11.3051 5.0016 10.6651 5.26678C10.0251 5.53197 9.47816 5.98098 9.09339 6.55703C8.70861 7.13308 8.5033 7.8103 8.50342 8.50304C8.50439 9.43159 8.87373 10.3218 9.53037 10.9783C10.187 11.6349 11.0773 12.004 12.0058 12.0049Z" fill="white"/>
<path d="M16.5873 14.898C15.6998 13.9877 14.5611 13.3626 13.3166 13.1026C12.0721 12.8425 10.7783 12.9594 9.60055 13.4382C8.42278 13.917 7.41447 14.736 6.70443 15.7906C5.99438 16.8452 5.61483 18.0876 5.61426 19.3589C5.61426 19.5215 5.67883 19.6774 5.79376 19.7923C5.90869 19.9072 6.06457 19.9718 6.22711 19.9718H17.7854C17.948 19.9718 18.1039 19.9072 18.2188 19.7923C18.3337 19.6774 18.3983 19.5215 18.3983 19.3589C18.4007 18.7091 18.3003 18.063 18.1011 17.4444C17.8043 16.4881 17.2856 15.6156 16.5873 14.898Z" fill="white"/>
<path d="M19.4034 12.3115C20.8419 12.3115 22.008 11.1454 22.008 9.7069C22.008 8.26842 20.8419 7.10229 19.4034 7.10229C17.965 7.10229 16.7988 8.26842 16.7988 9.7069C16.7988 11.1454 17.965 12.3115 19.4034 12.3115Z" fill="white"/>
<path d="M19.4038 13.0282C18.5823 13.0313 17.7767 13.255 17.0713 13.676C17.2043 13.7949 17.3385 13.9119 17.4641 14.0406C18.2986 14.8983 18.9185 15.9412 19.2733 17.084C19.3948 17.4603 19.4843 17.8461 19.5411 18.2374H23.3873C23.5498 18.2374 23.7057 18.1728 23.8207 18.0579C23.9356 17.943 24.0002 17.7871 24.0002 17.6246C23.9989 16.4059 23.5142 15.2376 22.6525 14.3759C21.7908 13.5142 20.6224 13.0295 19.4038 13.0282Z" fill="white"/>
<path d="M4.59656 12.3115C3.15808 12.3115 1.99196 11.1454 1.99196 9.7069C1.99196 8.26842 3.15808 7.10229 4.59656 7.10229C6.03505 7.10229 7.20117 8.26842 7.20117 9.7069C7.20117 11.1454 6.03505 12.3115 4.59656 12.3115Z" fill="white"/>
<path d="M4.59621 13.0282C5.4177 13.0313 6.22327 13.255 6.92871 13.676C6.79572 13.7949 6.66151 13.9119 6.53588 14.0406C5.7014 14.8983 5.0815 15.9412 4.72674 17.084C4.60524 17.4603 4.51566 17.8461 4.45893 18.2374H0.612689C0.450151 18.2374 0.29427 18.1728 0.179338 18.0579C0.0644069 17.943 -0.000160217 17.7871 -0.000160217 17.6246C0.00113726 16.4059 0.485813 15.2376 1.34752 14.3759C2.20922 13.5142 3.37757 13.0295 4.59621 13.0282Z" fill="white"/>
</g>
<defs>
<clipPath id="clip0_1767_8806">
<rect width="24" height="24" fill="white"/>
</clipPath>
</defs>
</svg>
