<svg width="24" height="24" viewBox="0 0 24 24" fill="none" xmlns="http://www.w3.org/2000/svg">
<path d="M20.0473 5.06717C19.3023 5.06809 18.6974 5.66956 18.6922 6.41456L4.64047 9.67466C4.40337 8.9648 3.6357 8.58153 2.92583 8.81863C2.37233 9.00353 1.99934 9.52198 2 10.1055V13.9564C1.99913 14.7048 2.60514 15.3122 3.35356 15.3131C3.93713 15.3138 4.45558 14.9408 4.64047 14.3873L7.7278 15.1038L7.62741 15.5347C7.42094 16.429 7.9772 17.3216 8.87095 17.5302L12.4538 18.3618C13.3475 18.5698 14.2407 18.014 14.4488 17.1203C14.449 17.1196 14.4491 17.119 14.4493 17.1183L14.5497 16.6874L18.6927 17.6487C18.6949 18.3972 19.3036 19.0022 20.0521 19C20.8007 18.9977 21.4056 18.3891 21.4034 17.6405V6.42235C21.4024 5.67398 20.7957 5.06765 20.0473 5.06717ZM13.6934 16.9429C13.5826 17.4201 13.106 17.7172 12.6287 17.6065L9.04587 16.7749C8.56987 16.663 8.27382 16.1875 8.38358 15.711L8.48397 15.2801L13.7938 16.512L13.6934 16.9429Z" fill="white"/>
<rect x="18.0737" y="4.5" width="3.42542" height="14.744" rx="1.71271" fill="white" stroke="#99CC00"/>
<rect x="2.30859" y="8.70401" width="2.61694" height="6.65931" rx="1.30847" fill="white" stroke="#99CC00"/>
</svg>
