<svg width="20" height="20" viewBox="0 0 20 20" fill="none" xmlns="http://www.w3.org/2000/svg">
<path d="M15.3333 10.6711C15.0388 10.6711 14.8 10.9099 14.8 11.2044C14.8 13.8511 12.6467 16.0044 9.99997 16.0044C7.35325 16.0044 5.19997 13.8511 5.19997 11.2044C5.19997 10.9099 4.96118 10.6711 4.66663 10.6711C4.37209 10.6711 4.1333 10.9099 4.1333 11.2044C4.1333 14.2595 6.48079 16.7762 9.46663 17.0466V18.1377H7.86663C7.57209 18.1377 7.3333 18.3765 7.3333 18.6711C7.3333 18.9656 7.57209 19.2044 7.86663 19.2044H12.1333C12.4278 19.2044 12.6666 18.9656 12.6666 18.6711C12.6666 18.3765 12.4278 18.1377 12.1333 18.1377H10.5333V17.0466C13.5191 16.7762 15.8666 14.2595 15.8666 11.2044C15.8666 10.9099 15.6278 10.6711 15.3333 10.6711Z" fill="#909090"/>
<path d="M10.0001 1C7.9415 1 6.26672 2.67477 6.26672 4.73333V11.2044C6.26672 13.263 7.9415 14.9378 10.0001 14.9378C12.0586 14.9378 13.7334 13.263 13.7334 11.2044V4.73333C13.7334 2.67477 12.0586 1 10.0001 1Z" fill="#909090"/>
<path d="M11.0667 5.30225H8.93336C8.63882 5.30225 8.40002 5.54104 8.40002 5.83558C8.40002 6.13012 8.63882 6.36891 8.93336 6.36891H11.0667C11.3612 6.36891 11.6 6.13012 11.6 5.83558C11.6 5.54104 11.3612 5.30225 11.0667 5.30225Z" fill="white"/>
<path d="M11.0667 7.43555H8.93336C8.63882 7.43555 8.40002 7.67434 8.40002 7.96888C8.40002 8.26342 8.63882 8.50221 8.93336 8.50221H11.0667C11.3612 8.50221 11.6 8.26342 11.6 7.96888C11.6 7.67434 11.3612 7.43555 11.0667 7.43555Z" fill="white"/>
<path d="M11.0667 9.56891H8.93336C8.63882 9.56891 8.40002 9.8077 8.40002 10.1022C8.40002 10.3968 8.63882 10.6356 8.93336 10.6356H11.0667C11.3612 10.6356 11.6 10.3968 11.6 10.1022C11.6 9.8077 11.3612 9.56891 11.0667 9.56891Z" fill="white"/>
<path d="M15.3334 5.30225C15.0388 5.30225 14.8 5.54104 14.8 5.83558V7.96891C14.8 8.26346 15.0388 8.50225 15.3334 8.50225C15.6279 8.50225 15.8667 8.26346 15.8667 7.96891V5.83558C15.8667 5.54104 15.6279 5.30225 15.3334 5.30225Z" fill="#909090"/>
<path d="M17.4667 4.23553C17.1721 4.23553 16.9333 4.47433 16.9333 4.76887V9.03553C16.9333 9.33008 17.1721 9.56887 17.4667 9.56887C17.7612 9.56887 18 9.33008 18 9.03553V4.76887C18 4.47433 17.7612 4.23553 17.4667 4.23553Z" fill="#909090"/>
<path d="M4.1333 5.83558V7.96891C4.1333 8.26346 4.37209 8.50225 4.66663 8.50225C4.96118 8.50225 5.19997 8.26346 5.19997 7.96891V5.83558C5.19997 5.54104 4.96118 5.30225 4.66663 5.30225C4.37209 5.30225 4.1333 5.54104 4.1333 5.83558Z" fill="#909090"/>
<path d="M2.53333 4.23553C2.23879 4.23553 2 4.47433 2 4.76887V9.03553C2 9.33008 2.23879 9.56887 2.53333 9.56887C2.82788 9.56887 3.06667 9.33008 3.06667 9.03553V4.76887C3.06667 4.47433 2.82788 4.23553 2.53333 4.23553Z" fill="#909090"/>
</svg>
