<svg width="24" height="24" viewBox="0 0 24 24" fill="none" xmlns="http://www.w3.org/2000/svg">
<path d="M17.6763 2H7.1352C6.7353 2 6.41162 2.32368 6.41162 2.72358V21.2764C6.41162 21.6763 6.7353 22 7.1352 22H17.6763C18.0762 22 18.3999 21.6763 18.3999 21.2764V2.72358C18.3999 2.32368 18.0757 2 17.6763 2ZM10.5568 2.88228H14.2552C14.3879 2.88228 14.4964 2.99034 14.4964 3.12348C14.4964 3.25661 14.3879 3.36467 14.2552 3.36467H10.5568C10.4236 3.36467 10.3156 3.25661 10.3156 3.12348C10.3156 2.99034 10.4231 2.88228 10.5568 2.88228ZM12.4057 21.1983C12.0507 21.1983 11.7627 20.9098 11.7627 20.5553C11.7627 20.2007 12.0507 19.9118 12.4057 19.9118C12.7608 19.9118 13.0488 20.2007 13.0488 20.5548C13.0488 20.9088 12.7608 21.1983 12.4057 21.1983ZM16.9527 19.1882H7.85878V4.00769H16.9527V19.1882Z" fill="white"/>
<path d="M21.801 2.56133C22.3234 3.08373 22.3234 3.93071 21.801 4.4531L4.58356 21.6705C4.06117 22.1929 3.21419 22.1929 2.6918 21.6705C2.1694 21.1481 2.1694 20.3011 2.6918 19.7787M21.801 2.56133L2.6918 19.7787M21.801 2.56133C21.2786 2.03894 20.4316 2.03894 19.9092 2.56133L2.6918 19.7787M21.801 2.56133L2.6918 19.7787" fill="white" stroke="#99CC00" stroke-width="1.4" stroke-linecap="round"/>
</svg>
