<svg width="20" height="20" viewBox="0 0 20 20" fill="none" xmlns="http://www.w3.org/2000/svg">
<path d="M18 3.13611V12.3961C18 13.024 17.4917 13.5323 16.8639 13.5323H7.75335L4.72504 16.5606C4.61826 16.6674 4.43033 16.5905 4.43033 16.4367V13.5323H3.14043C2.50828 13.5323 2 13.024 2 12.3961V3.13611C2 2.50825 2.50828 2 3.14043 2H16.8639C17.4917 2 18 2.50825 18 3.13611Z" fill="#909090"/>
<path d="M6.08798 9.72268C7.01975 9.72268 7.5581 9.15844 7.5581 8.51656C7.5581 7.97303 7.2734 7.65209 6.79716 7.46056L6.31575 7.26903C5.9741 7.13444 5.73598 7.05162 5.73598 6.83421C5.73598 6.63232 5.90681 6.51844 6.19151 6.51844C6.49175 6.51844 6.72987 6.62197 6.98351 6.8135L7.44422 6.23373C7.10775 5.89726 6.63669 5.72644 6.19151 5.72644C5.37363 5.72644 4.79387 6.24409 4.79387 6.89115C4.79387 7.45021 5.17175 7.78668 5.57551 7.94715L6.06728 8.15421C6.39857 8.29397 6.61081 8.36644 6.61081 8.58903C6.61081 8.79609 6.45034 8.9255 6.10869 8.9255C5.80328 8.9255 5.4461 8.76503 5.17693 8.53209L4.64893 9.16879C5.04751 9.53632 5.58587 9.72268 6.08798 9.72268Z" fill="white"/>
<path d="M8.19829 9.65021H9.02652V8.33021C9.02652 7.94715 8.95405 7.37256 8.90746 6.99468H8.92817L9.23876 7.91609L9.76158 9.32409H10.2689L10.7865 7.91609L11.1075 6.99468H11.1333C11.0816 7.37256 11.0091 7.94715 11.0091 8.33021V9.65021H11.8529V5.79373H10.8486L10.2585 7.46056C10.1861 7.68315 10.1239 7.92644 10.0463 8.15938H10.0204C9.94793 7.92644 9.88582 7.68315 9.80817 7.46056L9.19735 5.79373H8.19829V9.65021Z" fill="white"/>
<path d="M13.9336 9.72268C14.8653 9.72268 15.4037 9.15844 15.4037 8.51656C15.4037 7.97303 15.119 7.65209 14.6427 7.46056L14.1613 7.26903C13.8197 7.13444 13.5816 7.05162 13.5816 6.83421C13.5816 6.63232 13.7524 6.51844 14.0371 6.51844C14.3373 6.51844 14.5755 6.62197 14.8291 6.8135L15.2898 6.23373C14.9533 5.89726 14.4823 5.72644 14.0371 5.72644C13.2192 5.72644 12.6395 6.24409 12.6395 6.89115C12.6395 7.45021 13.0173 7.78668 13.4211 7.94715L13.9129 8.15421C14.2442 8.29397 14.4564 8.36644 14.4564 8.58903C14.4564 8.79609 14.2959 8.9255 13.9543 8.9255C13.6489 8.9255 13.2917 8.76503 13.0225 8.53209L12.4945 9.16879C12.8931 9.53632 13.4315 9.72268 13.9336 9.72268Z" fill="white"/>
</svg>
