<svg width="24" height="24" viewBox="0 0 24 24" fill="none" xmlns="http://www.w3.org/2000/svg">
<path d="M17.0617 12.2287C17.0617 11.4259 17.6693 10.7753 18.4186 10.7753H18.4488C19.1969 10.7753 19.804 11.4233 19.8057 12.2247C19.8121 14.8467 19.808 15.104 19.8043 19.0202C19.8022 21.2191 18.1376 23 16.085 23H11.678C10.3295 23 9.08622 22.2177 8.42914 20.956L4.5 13.4071L4.91045 13.0667C5.76048 12.2854 7.03903 12.3815 7.77855 13.2817L8.87818 14.6204L8.8845 5.41098C8.88502 4.60849 9.49264 3.95825 10.2416 3.95825H10.242C10.9915 3.95825 11.5991 4.60937 11.5991 5.41221V10.9858C11.617 10.2 12.2174 9.56991 12.9552 9.56991H12.9869C13.7365 9.56991 14.3441 10.2207 14.3441 11.0235V11.4915C14.3441 10.6885 14.9515 10.0379 15.7016 10.0379H15.7047C16.4541 10.0379 17.0617 10.6885 17.0617 11.4915V12.2287Z" fill="white"/>
<path d="M10.2373 2C8.46641 2.00193 7.0314 3.43712 7.0293 5.20804C7.0293 5.40643 7.19015 5.56728 7.38853 5.56728C7.58692 5.56728 7.74777 5.40643 7.74777 5.20804C7.74777 3.83302 8.86248 2.71847 10.2373 2.71847C11.6122 2.71847 12.7269 3.83302 12.7269 5.20804C12.7269 5.40643 12.8877 5.56728 13.0861 5.56728C13.2845 5.56728 13.4454 5.40643 13.4454 5.20804C13.4433 3.43712 12.0082 2.00193 10.2373 2Z" fill="white" stroke="white" stroke-width="0.8"/>
</svg>
