<svg width="20" height="20" viewBox="0 0 20 20" fill="none" xmlns="http://www.w3.org/2000/svg">
<path d="M14.1643 12.5845C13.6416 12.0684 12.989 12.0684 12.4696 12.5845C12.0734 12.9774 11.6772 13.3703 11.2876 13.7698C11.1811 13.8797 11.0912 13.903 10.9613 13.8297C10.705 13.6899 10.4319 13.5767 10.1856 13.4235C9.03687 12.701 8.07464 11.7721 7.22229 10.7266C6.79944 10.2072 6.4232 9.6512 6.16017 9.02525C6.1069 8.89873 6.11689 8.81549 6.2201 8.71228C6.61632 8.32938 7.00254 7.9365 7.39209 7.54362C7.9348 6.99758 7.9348 6.35831 7.38876 5.80894C7.07912 5.49597 6.76947 5.18965 6.45983 4.87668C6.14019 4.55705 5.82389 4.23408 5.50093 3.91778C4.97819 3.40836 4.32561 3.40836 3.8062 3.92111C3.40666 4.31399 3.02377 4.71686 2.61757 5.10309C2.24133 5.45934 2.05155 5.89551 2.0116 6.40493C1.94833 7.23397 2.15144 8.01641 2.43777 8.77887C3.02377 10.3571 3.91608 11.7588 4.99817 13.044C6.45983 14.782 8.20449 16.1571 10.2455 17.1493C11.1644 17.5954 12.1167 17.9384 13.1522 17.995C13.8647 18.0349 14.484 17.8551 14.9801 17.2991C15.3197 16.9195 15.7026 16.5733 16.0622 16.2103C16.5949 15.671 16.5982 15.0184 16.0688 14.4857C15.4362 13.8497 14.8003 13.2171 14.1643 12.5845Z" fill="#909090"/>
<path d="M13.5284 9.93098L14.757 9.72122C14.5639 8.59252 14.0311 7.57036 13.2221 6.75795C12.3664 5.90227 11.2843 5.36289 10.0923 5.19641L9.91919 6.43166C10.8415 6.56151 11.6805 6.9777 12.3431 7.64028C12.969 8.26622 13.3786 9.05865 13.5284 9.93098Z" fill="#909090"/>
<path d="M15.4497 4.59036C14.0313 3.17199 12.2367 2.27635 10.2557 2L10.0825 3.23525C11.7939 3.47498 13.3454 4.25075 14.5707 5.47269C15.7327 6.63469 16.4952 8.103 16.7715 9.71782L18.0001 9.50806C17.6771 7.63687 16.7948 5.93882 15.4497 4.59036Z" fill="#909090"/>
</svg>
