<svg width="20" height="20" viewBox="0 0 20 20" fill="none" xmlns="http://www.w3.org/2000/svg">
<path d="M16.7126 15.2973C16.8978 15.4855 17.0011 15.7392 17 16.0033C16.9989 16.2673 16.8936 16.5202 16.7069 16.7069C16.5202 16.8936 16.2673 16.9989 16.0033 17C15.7392 17.0011 15.4855 16.8978 15.2973 16.7126L10 11.4154L4.70273 16.7126C4.51452 16.8978 4.26077 17.0011 3.99675 17C3.73273 16.9989 3.47983 16.8936 3.29313 16.7069C3.10644 16.5202 3.00108 16.2673 3.00001 16.0033C2.99893 15.7392 3.10223 15.4855 3.28739 15.2973L8.58459 10L3.28739 4.70273C3.10223 4.51452 2.99893 4.26077 3.00001 3.99675C3.00108 3.73273 3.10644 3.47983 3.29313 3.29313C3.47983 3.10644 3.73273 3.00108 3.99675 3.00001C4.26077 2.99893 4.51452 3.10223 4.70273 3.28739L10 8.58459L15.2973 3.28739C15.4855 3.10223 15.7392 2.99893 16.0033 3.00001C16.2673 3.00108 16.5202 3.10644 16.7069 3.29313C16.8936 3.47983 16.9989 3.73273 17 3.99675C17.0011 4.26077 16.8978 4.51452 16.7126 4.70273L11.4154 10L16.7126 15.2973Z" fill="#707070"/>
</svg>
