<svg width="20" height="20" viewBox="0 0 20 20" fill="none" xmlns="http://www.w3.org/2000/svg">
<path d="M17.0445 12.4029C16.2214 11.5793 15.0794 11.2303 13.6127 11.6234L8.38277 6.38811L8.4519 6.12673C8.75312 4.99654 8.42765 3.78169 7.60277 2.95681C6.76289 2.11627 5.56888 1.80787 4.43966 2.11806C4.27862 2.16227 4.15328 2.28881 4.11062 2.45028C4.06797 2.61175 4.11475 2.78337 4.23278 2.90147L5.49207 4.16075C5.86023 4.52982 5.85663 5.12088 5.49298 5.48551C5.13219 5.84726 4.52575 5.8467 4.16641 5.48642L2.90687 4.22679C2.78877 4.10863 2.61665 4.06229 2.45518 4.10519C2.29368 4.14807 2.16761 4.27372 2.12355 4.43491C1.81789 5.55173 2.11858 6.75314 2.96249 7.59705C3.78518 8.42034 4.92578 8.77053 6.39332 8.37662L11.6237 13.6119C11.2334 15.0781 11.5701 16.2091 12.4042 17.0432C13.2451 17.8848 14.4397 18.1909 15.5664 17.8817C15.7275 17.8375 15.8529 17.711 15.8956 17.5495C15.9383 17.388 15.8915 17.2164 15.7734 17.0983L14.5144 15.8393C14.1462 15.4702 14.1498 14.8791 14.5135 14.5145C14.8788 14.1511 15.4839 14.1569 15.8401 14.514L17.0997 15.7733C17.2178 15.8914 17.3899 15.9378 17.5514 15.8948C17.7128 15.8519 17.8389 15.7263 17.883 15.5652C18.1886 14.4486 17.888 13.2468 17.0445 12.4029Z" fill="#909090"/>
<path d="M7.01699 10.3307L2.54846 14.7998C1.81718 15.5311 1.81718 16.7203 2.54846 17.4515C3.27975 18.1828 4.46894 18.1828 5.2002 17.4515L9.66863 12.9825L7.01699 10.3307Z" fill="#909090"/>
<path d="M17.8622 2.94542L17.0541 2.13732C16.902 1.98522 16.6659 1.95616 16.4815 2.06676L13.9956 3.55811C13.7341 3.71502 13.6897 4.07586 13.9053 4.29152L14.1032 4.48933L10.9475 7.63207L12.2736 8.95817L15.4293 5.81543L15.708 6.09422C15.9236 6.30981 16.2845 6.26544 16.4414 6.00387L17.9327 3.51801C18.0433 3.33354 18.0143 3.09751 17.8622 2.94542Z" fill="#909090"/>
</svg>
