<svg width="24" height="24" viewBox="0 0 24 24" fill="none" xmlns="http://www.w3.org/2000/svg">
<path d="M5 7.19995H6.6H19.4" stroke="#909090" stroke-width="1.6" stroke-linecap="round" stroke-linejoin="round"/>
<path d="M17.8001 7.19995V18.4C17.8001 18.8243 17.6315 19.2313 17.3315 19.5313C17.0314 19.8314 16.6244 20 16.2001 20H8.2001C7.77575 20 7.36879 19.8314 7.06873 19.5313C6.76867 19.2313 6.6001 18.8243 6.6001 18.4V7.19995H17.8001Z" fill="#909090" stroke="#909090" stroke-linecap="round" stroke-linejoin="round"/>
<path d="M9 7.2V5.6C9 5.17565 9.16857 4.76869 9.46863 4.46863C9.76869 4.16857 10.1757 4 10.6 4H13.8C14.2243 4 14.6313 4.16857 14.9314 4.46863C15.2314 4.76869 15.4 5.17565 15.4 5.6V7.2" stroke="#909090" stroke-width="1.6" stroke-linecap="round" stroke-linejoin="round"/>
<path d="M10.5 11.2V16" stroke="white" stroke-width="1.6" stroke-linecap="round" stroke-linejoin="round"/>
<path d="M13.9004 11.2V16" stroke="white" stroke-width="1.6" stroke-linecap="round" stroke-linejoin="round"/>
</svg>
