<svg width="24" height="24" viewBox="0 0 24 24" fill="none" xmlns="http://www.w3.org/2000/svg">
<path d="M16.2858 7.28571C16.2858 9.65265 14.367 11.5714 12.0001 11.5714C9.63314 11.5714 7.71436 9.65265 7.71436 7.28571C7.71436 4.91878 9.63314 3 12.0001 3C14.367 3 16.2858 4.91878 16.2858 7.28571Z" fill="white"/>
<path fill-rule="evenodd" clip-rule="evenodd" d="M12.0001 4.29169C10.3729 4.29169 9.05371 5.61085 9.05371 7.23812C9.05371 8.86538 10.3729 10.1845 12.0001 10.1845C13.6274 10.1845 14.9466 8.86538 14.9466 7.23812C14.9466 5.61085 13.6274 4.29169 12.0001 4.29169ZM7.80371 7.23812C7.80371 4.92049 9.68252 3.04169 12.0001 3.04169C14.3178 3.04169 16.1966 4.92049 16.1966 7.23812C16.1966 9.55574 14.3178 11.4345 12.0001 11.4345C9.68252 11.4345 7.80371 9.55574 7.80371 7.23812Z" fill="white" stroke="white" stroke-width="0.4"/>
<path d="M20 20H4C4 17.6667 5.6 13 12 13C18.4 13 20 17.6667 20 20Z" fill="white"/>
<path fill-rule="evenodd" clip-rule="evenodd" d="M5.5918 15.4717C6.8895 14.0853 9.00002 13.0417 12.2386 13.0417C15.4771 13.0417 17.5877 14.0853 18.8854 15.4717C20.1667 16.8407 20.6017 18.4873 20.6017 19.6191C20.6017 19.9642 20.3219 20.2441 19.9767 20.2441H4.50049C4.15531 20.2441 3.87549 19.9642 3.87549 19.6191C3.87549 18.4873 4.31045 16.8407 5.5918 15.4717ZM5.17864 18.9941H19.2985C19.1685 18.1918 18.7838 17.1925 17.9728 16.3259C16.949 15.2322 15.1905 14.2917 12.2386 14.2917C9.28667 14.2917 7.52814 15.2322 6.50441 16.3259C5.69334 17.1925 5.3087 18.1918 5.17864 18.9941Z" fill="white" stroke="white" stroke-width="0.4" stroke-linecap="round" stroke-linejoin="round"/>
</svg>
