<svg width="20" height="20" viewBox="0 0 20 20" fill="none" xmlns="http://www.w3.org/2000/svg">
<path d="M17.125 3H2.875C1.83965 3.00047 1.00047 3.83965 1 4.875V14.4C1.00047 15.4354 1.83965 16.2745 2.875 16.275H17.125C18.1604 16.2745 18.9995 15.4354 19 14.4V4.875C18.9995 3.83965 18.1604 3.00047 17.125 3Z" fill="#909090"/>
<path d="M18.25 14.4C18.2482 15.0205 17.7455 15.5232 17.125 15.525H2.875C2.25449 15.5232 1.75176 15.0205 1.75 14.4V4.875C1.75176 4.25449 2.25449 3.75176 2.875 3.75H17.125M17.125 3H2.875C1.83965 3.00047 1.00047 3.83965 1 4.875V14.4C1.00047 15.4354 1.83965 16.2745 2.875 16.275H17.125C18.1604 16.2745 18.9995 15.4354 19 14.4V4.875C18.9995 3.83965 18.1604 3.00047 17.125 3Z" stroke="#909090" stroke-width="0.3"/>
<path d="M6.37747 9.48761C7.44821 9.48761 8.31622 8.61948 8.31622 7.54886C8.31622 6.47812 7.44821 5.61011 6.37747 5.61011C5.30673 5.61011 4.43872 6.47812 4.43872 7.54886C4.44013 8.61901 5.30731 9.4862 6.37747 9.48761Z" fill="white"/>
<path d="M6.37747 6.36386C5.72099 6.36409 5.18896 6.89612 5.18872 7.55261C5.18872 8.20909 5.72087 8.74136 6.37747 8.74136M6.37747 9.48761C7.44821 9.48761 8.31622 8.61948 8.31622 7.54886C8.31622 6.47812 7.44821 5.61011 6.37747 5.61011C5.30673 5.61011 4.43872 6.47812 4.43872 7.54886C4.44013 8.61901 5.30731 9.4862 6.37747 9.48761Z" stroke="white" stroke-width="0.3"/>
<path d="M6.37728 10.2038C5.58404 10.198 4.82267 10.5164 4.26978 11.0851C3.70728 11.6588 3.39978 12.4388 3.39978 13.2863C3.40037 13.4932 3.56794 13.6607 3.77478 13.6613H8.97978C9.18662 13.6607 9.35419 13.4932 9.35478 13.2863C9.35478 12.4388 9.04728 11.6588 8.48478 11.0851C7.93189 10.5164 7.17064 10.198 6.37728 10.2038Z" fill="white"/>
<path d="M4.17603 12.9113C4.24025 12.421 4.46126 11.9647 4.80603 11.6101C5.22099 11.1902 5.78689 10.9538 6.37728 10.9538C6.96767 10.9538 7.53357 11.1902 7.94853 11.6101M6.37728 10.2038C5.58404 10.198 4.82267 10.5164 4.26978 11.0851C3.70728 11.6588 3.39978 12.4388 3.39978 13.2863C3.40037 13.4932 3.56794 13.6607 3.77478 13.6613H8.97978C9.18662 13.6607 9.35419 13.4932 9.35478 13.2863C9.35478 12.4388 9.04728 11.6588 8.48478 11.0851C7.93189 10.5164 7.17064 10.198 6.37728 10.2038Z" stroke="white" stroke-width="0.3"/>
<path d="M16.2025 9.26245H11.8337C11.6267 9.26245 11.4587 9.43026 11.4587 9.63745C11.4587 9.84464 11.6267 10.0125 11.8337 10.0125H16.2025C16.4096 10.0125 16.5775 9.84464 16.5775 9.63745C16.5775 9.43026 16.4096 9.26245 16.2025 9.26245Z" fill="white" stroke="white" stroke-width="0.3"/>
<path d="M16.2025 11.6624H11.8337C11.6267 11.6624 11.4587 11.8302 11.4587 12.0374C11.4587 12.2446 11.6267 12.4124 11.8337 12.4124H16.2025C16.4096 12.4124 16.5775 12.2446 16.5775 12.0374C16.5775 11.8302 16.4096 11.6624 16.2025 11.6624Z" fill="white" stroke="white" stroke-width="0.3"/>
<path d="M16.2025 6.86255H11.8337C11.6267 6.86255 11.4587 7.03036 11.4587 7.23755C11.4587 7.44474 11.6267 7.61255 11.8337 7.61255H16.2025C16.4096 7.61255 16.5775 7.44474 16.5775 7.23755C16.5775 7.03036 16.4096 6.86255 16.2025 6.86255Z" fill="white" stroke="white" stroke-width="0.3"/>
</svg>
