<svg width="18" height="18" viewBox="0 0 18 18" fill="none" xmlns="http://www.w3.org/2000/svg">
<path d="M4.2 7.93333C5.44445 10.4222 7.57778 12.4684 10.0667 13.8L12.0222 11.8444C12.2871 11.5795 12.6462 11.4889 12.9111 11.6667C13.8871 12.0222 14.9538 12.2 16.1111 12.2C16.6444 12.2 17 12.5556 17 13.0889L17 16.1111C17 16.6444 16.6444 17 16.1111 17C7.75556 17 1 10.2444 1 1.88889C1 1.35556 1.35556 1 1.88889 1L5.00174 1C5.53508 1 5.89063 1.35556 5.89063 1.88889C5.89063 2.95556 6.06841 4.02222 6.42397 5.08889C6.5146 5.3573 6.42397 5.71285 6.24619 5.97778L4.2 7.93333Z" fill="#99CC00" stroke="#99CC00"/>
</svg>
