<svg width="24" height="24" viewBox="0 0 24 24" fill="none" xmlns="http://www.w3.org/2000/svg">
<path d="M19.8434 10.4065C20.1674 10.0825 20.1344 9.53952 19.7489 9.28902C17.4425 7.79088 14.7502 6.99561 11.9999 7.00002C9.14245 7.00002 6.47995 7.84002 4.25095 9.28902C4.16177 9.3492 4.08722 9.4286 4.03277 9.52138C3.97831 9.61416 3.94534 9.71796 3.93628 9.82515C3.92721 9.93235 3.94228 10.0402 3.98038 10.1408C4.01849 10.2414 4.07865 10.3322 4.15645 10.4065C4.28425 10.5313 4.45066 10.6089 4.62837 10.6266C4.80608 10.6443 4.98453 10.6011 5.13445 10.504C7.18348 9.19161 9.56664 8.49597 11.9999 8.50002C14.4332 8.49597 16.8164 9.19161 18.8654 10.504C19.1729 10.702 19.5854 10.666 19.8434 10.4065ZM16.5689 13.681C16.9079 13.342 16.8464 12.7735 16.4189 12.556C15.0502 11.8595 13.5357 11.4976 11.9999 11.5C10.4099 11.5 8.90695 11.881 7.58095 12.556C7.15345 12.7735 7.09195 13.342 7.43095 13.681L7.45345 13.7035C7.69345 13.9435 8.06545 13.9885 8.36995 13.8385C9.49979 13.2848 10.7417 12.9979 11.9999 13C13.3019 13 14.5349 13.3015 15.6299 13.84C15.9344 13.99 16.3049 13.945 16.5464 13.7035L16.5689 13.681ZM13.5899 16.66C13.8839 16.366 13.8869 15.88 13.5299 15.67C13.0672 15.3946 12.5385 15.2494 11.9999 15.25C11.4614 15.2494 10.9327 15.3946 10.4699 15.67C10.1129 15.88 10.1159 16.366 10.4099 16.66L11.4689 17.719C11.5386 17.7889 11.6214 17.8443 11.7125 17.8821C11.8036 17.9199 11.9013 17.9394 11.9999 17.9394C12.0986 17.9394 12.1963 17.9199 12.2874 17.8821C12.3785 17.8443 12.4613 17.7889 12.5309 17.719L13.5914 16.6585L13.5899 16.66Z" fill="#43BD77"/>
</svg>
