<svg width="24" height="24" viewBox="0 0 24 24" fill="none" xmlns="http://www.w3.org/2000/svg">
<path d="M19.8435 10.4065C20.1675 10.0825 20.1345 9.53952 19.749 9.28902C17.4425 7.79088 14.7503 6.99561 12 7.00002C9.1425 7.00002 6.48 7.84002 4.251 9.28902C4.16183 9.3492 4.08727 9.4286 4.03282 9.52138C3.97837 9.61416 3.94539 9.71796 3.93633 9.82515C3.92727 9.93235 3.94234 10.0402 3.98044 10.1408C4.01854 10.2414 4.0787 10.3322 4.1565 10.4065C4.28431 10.5313 4.45071 10.6089 4.62842 10.6266C4.80613 10.6443 4.98458 10.6011 5.1345 10.504C7.18354 9.19161 9.5667 8.49597 12 8.50002C14.4333 8.49597 16.8165 9.19161 18.8655 10.504C19.173 10.702 19.5855 10.666 19.8435 10.4065ZM16.569 13.681C16.908 13.342 16.8465 12.7735 16.419 12.556C15.0502 11.8595 13.5358 11.4976 12 11.5C10.41 11.5 8.907 11.881 7.581 12.556C7.1535 12.7735 7.092 13.342 7.431 13.681L7.4535 13.7035C7.6935 13.9435 8.0655 13.9885 8.37 13.8385C9.49984 13.2848 10.7418 12.9979 12 13C13.302 13 14.535 13.3015 15.63 13.84C15.9345 13.99 16.305 13.945 16.5465 13.7035L16.569 13.681ZM13.59 16.66C13.884 16.366 13.887 15.88 13.53 15.67C13.0672 15.3946 12.5386 15.2494 12 15.25C11.4615 15.2494 10.9328 15.3946 10.47 15.67C10.113 15.88 10.116 16.366 10.41 16.66L11.469 17.719C11.5387 17.7889 11.6214 17.8443 11.7126 17.8821C11.8037 17.9199 11.9013 17.9394 12 17.9394C12.0987 17.9394 12.1963 17.9199 12.2875 17.8821C12.3786 17.8443 12.4613 17.7889 12.531 17.719L13.5915 16.6585L13.59 16.66Z" fill="#808080"/>
<path d="M23.2746 24L20.0026 20.7249L16.7305 24L16 23.2699L19.2772 20L16 16.7301L16.7305 16L20.0026 19.2751L23.2746 16.0051L24 16.7301L20.728 20L24 23.2699L23.2746 24Z" fill="#DF0000"/>
</svg>
