<svg width="37" height="38" viewBox="0 0 37 38" fill="none" xmlns="http://www.w3.org/2000/svg">
<path d="M25.3563 14.7102C21.0665 13.2803 16.2641 13.3804 11.8741 14.7102V19.2043C11.8741 19.8131 11.5657 20.3298 11.057 20.4299C9.52698 21.1429 8.09705 22.1643 6.76726 23.4941C6.15443 24.1069 5.33733 24.1069 4.72451 23.4941L1.25182 20.0214C0.638999 19.4086 0.638999 18.5914 1.25182 17.9786C10.8528 8.37768 26.3777 8.37769 35.9786 17.9786C36.5914 18.5914 36.5914 19.4086 35.9786 20.0214L32.4018 23.5982C31.789 24.211 30.9719 24.211 30.3591 23.5982C29.1334 22.3725 27.7035 21.3512 26.0693 20.5341C25.6567 20.3298 25.3523 19.8171 25.2522 19.3084L25.3563 14.7102Z" fill="white"/>
</svg>
