<svg width="254" height="261" viewBox="0 0 254 261" fill="none" xmlns="http://www.w3.org/2000/svg">
<path d="M249.308 145.044V136.016C249.308 136.016 248.9 129.153 242.385 125.023C242.385 125.023 222.615 113.584 221.877 70.4184C221.877 70.4184 220.4 10.425 143.015 10.425H106.962" stroke="#2C343F" stroke-width="7.1668" stroke-miterlimit="10" stroke-linecap="round" stroke-linejoin="round"/>
<path d="M254 148.337C254 152.129 250.908 155.208 247.077 155.208C243.254 155.208 240.154 152.129 240.154 148.337C240.154 144.545 243.254 141.466 247.077 141.466C250.9 141.466 254 144.545 254 148.337Z" fill="#99CC00"/>
<path d="M192.008 128.585C192.008 118.889 199.931 111.028 209.692 111.028C219.462 111.028 227.385 118.889 227.385 128.585V168.089C227.385 177.785 219.469 185.646 209.692 185.646C199.931 185.646 192.008 177.785 192.008 168.089V128.585Z" fill="#464F5B"/>
<path d="M213.323 129.521C220.977 138.956 222.008 149.903 219.831 161.487C217.969 171.413 210.554 181.431 200.185 182.874C202.931 184.625 206.192 185.646 209.692 185.646C219.462 185.646 227.385 177.785 227.385 168.089V128.585C227.385 118.889 219.469 111.028 209.692 111.028C202.054 111.028 195.569 115.841 193.092 122.574C200.569 121.653 208.362 123.403 213.323 129.521Z" fill="#323840"/>
<mask id="mask0_2753_3632" style="mask-type:alpha" maskUnits="userSpaceOnUse" x="198" y="126" width="4" height="50">
<path d="M198.269 128.585C198.269 127.571 199.092 126.758 200.115 126.758C201.131 126.758 201.954 127.579 201.954 128.585V173.209C201.954 174.223 201.131 175.036 200.115 175.036C199.1 175.036 198.269 174.223 198.269 173.209V128.585Z" fill="url(#paint0_linear_2753_3632)"/>
</mask>
<g mask="url(#mask0_2753_3632)">
<path d="M198.269 128.585C198.269 127.571 199.092 126.758 200.115 126.758C201.131 126.758 201.954 127.579 201.954 128.585V173.209C201.954 174.223 201.131 175.036 200.115 175.036C199.1 175.036 198.269 174.223 198.269 173.209V128.585Z" fill="url(#paint1_linear_2753_3632)"/>
</g>
<path d="M225 121.43V175.244C236.885 171.974 245.608 161.172 245.608 148.337C245.6 135.502 236.877 124.7 225 121.43Z" fill="#99CC00"/>
<path d="M237.238 158.616C228.231 152.851 225.923 144.706 225 134.91V175.236C232.685 173.125 239.023 167.851 242.569 160.927C240.692 160.428 238.892 159.675 237.238 158.616Z" fill="#78A000"/>
<path d="M233.777 162.969C233.777 162.969 243.946 255.22 146.677 252.594" stroke="#2C343F" stroke-width="8.6002" stroke-miterlimit="10" stroke-linecap="round" stroke-linejoin="round"/>
<path d="M150.192 252.955C150.192 257.4 146.562 261 142.085 261H131.2C126.723 261 123.092 257.4 123.092 252.955C123.092 248.51 126.715 244.91 131.2 244.91H142.085C146.562 244.91 150.192 248.51 150.192 252.955Z" fill="#232A33"/>
<path d="M4.69226 145.044V136.016C4.69226 136.016 5.09995 129.153 11.6076 125.023C11.6076 125.023 31.3846 113.584 32.123 70.4184C32.123 70.4184 33.5999 10.425 110.985 10.425H147.031" stroke="#2C343F" stroke-width="7.1668" stroke-miterlimit="10" stroke-linecap="round" stroke-linejoin="round"/>
<path d="M0 148.337C0 152.129 3.1 155.208 6.92308 155.208C10.7462 155.208 13.8538 152.129 13.8538 148.337C13.8538 144.545 10.7538 141.466 6.92308 141.466C3.1 141.466 0 144.545 0 148.337Z" fill="#99CC00"/>
<path d="M61.9923 128.585C61.9923 118.889 54.0769 111.028 44.3077 111.028C34.5384 111.028 26.6154 118.889 26.6154 128.585V168.089C26.6154 177.785 34.5384 185.646 44.3077 185.646C54.0769 185.646 61.9923 177.785 61.9923 168.089V128.585Z" fill="#464F5B"/>
<path d="M40.6769 129.521C33.0307 138.956 31.9923 149.903 34.1692 161.487C36.0384 171.413 43.4538 181.431 53.8231 182.874C51.0692 184.625 47.8154 185.646 44.3077 185.646C34.5384 185.646 26.6154 177.785 26.6154 168.089V128.585C26.6154 118.889 34.5384 111.028 44.3077 111.028C51.9461 111.028 58.4307 115.841 60.9077 122.574C53.4307 121.653 45.6384 123.403 40.6769 129.521Z" fill="#323840"/>
<mask id="mask1_2753_3632" style="mask-type:alpha" maskUnits="userSpaceOnUse" x="52" y="126" width="4" height="50">
<path d="M55.7308 128.585C55.7308 127.571 54.9077 126.758 53.8923 126.758C52.8769 126.758 52.0461 127.579 52.0461 128.585V173.209C52.0461 174.223 52.8769 175.036 53.8923 175.036C54.9077 175.036 55.7308 174.223 55.7308 173.209V128.585Z" fill="url(#paint2_linear_2753_3632)"/>
</mask>
<g mask="url(#mask1_2753_3632)">
<path d="M55.7308 128.585C55.7308 127.571 54.9077 126.758 53.8923 126.758C52.8769 126.758 52.0461 127.579 52.0461 128.585V173.209C52.0461 174.223 52.8769 175.036 53.8923 175.036C54.9077 175.036 55.7308 174.223 55.7308 173.209V128.585Z" fill="url(#paint3_linear_2753_3632)"/>
</g>
<path d="M29 121.43V175.244C17.1154 171.974 8.39233 161.172 8.39233 148.337C8.39233 135.502 17.1231 124.7 29 121.43Z" fill="#99CC00"/>
<path d="M16.7616 158.616C25.7692 152.851 28.0769 144.706 29 134.91V175.236C21.3154 173.125 14.9769 167.851 11.4308 160.927C13.3077 160.428 15.1077 159.675 16.7616 158.616Z" fill="#78A000"/>
<path d="M178.131 11.1619C178.131 17.3263 173.123 22.3238 166.946 22.3238H87.0539C80.877 22.3238 75.8693 17.3263 75.8693 11.1619C75.8693 4.99753 80.877 0 87.0539 0H166.946C173.123 0 178.131 4.99753 178.131 11.1619Z" fill="#99CC00"/>
<path d="M75.9077 12.0217C76.3462 17.7793 81.1616 22.3239 87.0462 22.3239H166.938C172.823 22.3239 177.638 17.7869 178.077 12.0217H75.9077Z" fill="#99CC00"/>
<rect x="72.9075" y="135.497" width="3.25278" height="29.9797" rx="1.62639" fill="#99CC00"/>
<rect x="82.4733" y="140.493" width="3.25279" height="19.9865" rx="1.6264" fill="#99CC00"/>
<rect x="92.0391" y="145.49" width="3.25278" height="9.99324" rx="1.62639" fill="#99CC00"/>
<rect x="159.364" y="142.991" width="3.25278" height="14.9899" rx="1.62639" fill="#99CC00"/>
<rect x="149.676" y="145.49" width="3.25278" height="9.99324" rx="1.62639" fill="#99CC00"/>
<rect x="101.605" y="130.5" width="3.25278" height="39.9729" rx="1.62639" fill="#99CC00"/>
<rect x="111.17" y="103.018" width="3.25279" height="94.9358" rx="1.6264" fill="#99CC00"/>
<rect x="120.858" y="90.5269" width="3.25279" height="119.919" rx="1.6264" fill="#99CC00"/>
<rect x="130.423" y="113.012" width="3.25278" height="74.9493" rx="1.62639" fill="#99CC00"/>
<rect x="140.111" y="130.5" width="3.25276" height="39.9729" rx="1.62638" fill="#99CC00"/>
<rect x="168.564" y="140.493" width="3.25278" height="19.9865" rx="1.62639" fill="#99CC00"/>
<rect x="178.13" y="145.49" width="3.25279" height="9.99324" rx="1.6264" fill="#99CC00"/>
<defs>
<linearGradient id="paint0_linear_2753_3632" x1="198.271" y1="150.895" x2="201.955" y2="150.895" gradientUnits="userSpaceOnUse">
<stop stop-color="white"/>
<stop offset="1"/>
</linearGradient>
<linearGradient id="paint1_linear_2753_3632" x1="198.271" y1="150.895" x2="201.955" y2="150.895" gradientUnits="userSpaceOnUse">
<stop stop-color="white"/>
<stop offset="1" stop-color="white"/>
</linearGradient>
<linearGradient id="paint2_linear_2753_3632" x1="52.044" y1="150.895" x2="55.7309" y2="150.895" gradientUnits="userSpaceOnUse">
<stop stop-color="white"/>
<stop offset="1"/>
</linearGradient>
<linearGradient id="paint3_linear_2753_3632" x1="52.044" y1="150.895" x2="55.7309" y2="150.895" gradientUnits="userSpaceOnUse">
<stop stop-color="white"/>
<stop offset="1" stop-color="white"/>
</linearGradient>
</defs>
</svg>
