<svg width="18" height="18" viewBox="0 0 18 18" fill="none" xmlns="http://www.w3.org/2000/svg">
<path d="M10.9809 13C10.7973 13 10.6479 13.15 10.6479 13.3344V15.6687C10.6479 16.0375 10.3492 16.3344 9.98502 16.3344H2.32892C1.96168 16.3344 1.66602 16.0344 1.66602 15.6687V2.33438C1.66602 1.96563 1.96479 1.66875 2.32892 1.66875H9.98502C10.3523 1.66875 10.6479 1.96875 10.6479 2.33438V4.66875C10.6479 4.85313 10.7973 5.00313 10.9809 5.00313C11.1646 5.00313 11.3139 4.85313 11.3139 4.66875V2.33438C11.3139 1.6 10.7195 1 9.98502 1H2.32892C1.59444 1 1 1.59688 1 2.33438V15.6687C1 16.4031 1.59444 17 2.32892 17H9.98502C10.7164 17 11.3139 16.4031 11.3139 15.6656V13.3313C11.3108 13.15 11.1646 13 10.9809 13Z" fill="#DD0000" stroke="#DD0000" stroke-width="0.8"/>
<path d="M16.8914 8.75947L13.7387 5.85635C13.608 5.73447 13.3994 5.74385 13.2781 5.8751C13.2189 5.94072 13.1878 6.02197 13.194 6.10947C13.1971 6.19697 13.2345 6.27822 13.2998 6.33447L15.8363 8.66885H7.73517C7.55466 8.66885 7.4115 8.81572 7.4115 8.99385C7.4115 9.1751 7.55777 9.31885 7.73517 9.31885H15.8363L13.2998 11.6532C13.1691 11.7751 13.1598 11.9813 13.2812 12.1157C13.3434 12.1845 13.4306 12.222 13.5208 12.222C13.6017 12.222 13.6795 12.1907 13.7418 12.1376L16.8945 9.23447C16.9629 9.17197 17.0003 9.08447 17.0003 8.99385C16.9972 8.90947 16.9598 8.82197 16.8914 8.75947Z" fill="#DD0000" stroke="#DD0000" stroke-width="0.8"/>
</svg>
