<svg width="24" height="24" viewBox="0 0 24 24" fill="none" xmlns="http://www.w3.org/2000/svg">
<path d="M7.96429 20.25C7.44333 20.25 6.9437 20.043 6.57533 19.6747C6.20695 19.3063 6 18.8067 6 18.2857V5.71429C6 5.19332 6.20695 4.6937 6.57533 4.32533C6.9437 3.95695 7.44333 3.75 7.96429 3.75C8.48525 3.75 8.98487 3.95695 9.35325 4.32533C9.72162 4.6937 9.92857 5.19332 9.92857 5.71429V18.2857C9.92857 18.8067 9.72162 19.3063 9.35325 19.6747C8.98487 20.043 8.48525 20.25 7.96429 20.25Z" fill="#222222" stroke="white" stroke-width="0.4"/>
<path d="M16.4106 20.25C15.8896 20.25 15.39 20.043 15.0216 19.6747C14.6532 19.3063 14.4463 18.8067 14.4463 18.2857V5.71429C14.4463 5.19332 14.6532 4.6937 15.0216 4.32533C15.39 3.95695 15.8896 3.75 16.4106 3.75C16.9315 3.75 17.4312 3.95695 17.7995 4.32533C18.1679 4.6937 18.3749 5.19332 18.3749 5.71429V18.2857C18.3749 18.8067 18.1679 19.3063 17.7995 19.6747C17.4312 20.043 16.9315 20.25 16.4106 20.25Z" fill="#222222" stroke="white" stroke-width="0.4"/>
</svg>
