<svg width="28" height="28" viewBox="0 0 28 28" fill="none" xmlns="http://www.w3.org/2000/svg">
<path d="M19.8965 13.7221C22.9996 13.7221 25.5151 11.2066 25.5151 8.1035C25.5151 5.00041 22.9996 2.48486 19.8965 2.48486C16.7934 2.48486 14.2778 5.00041 14.2778 8.1035C14.2778 11.2066 16.7934 13.7221 19.8965 13.7221Z" stroke="#808080" stroke-width="1.6" stroke-linecap="round" stroke-linejoin="round"/>
<path d="M19.8965 4.73218V8.10336L22.1439 9.22708" stroke="#808080" stroke-width="1.6" stroke-linecap="round" stroke-linejoin="round"/>
<path d="M21.3889 21.1165V24.0332C21.39 24.3039 21.3345 24.5719 21.2261 24.82C21.1176 25.0681 20.9585 25.2908 20.759 25.4739C20.5594 25.6569 20.3239 25.7963 20.0674 25.883C19.8109 25.9698 19.5391 26.002 19.2694 25.9776C16.2778 25.6525 13.404 24.6302 10.8792 22.9929C8.53011 21.5002 6.53852 19.5086 5.04584 17.1595C3.40276 14.6232 2.38024 11.7355 2.06111 8.73038C2.03682 8.46153 2.06877 8.19056 2.15493 7.93474C2.2411 7.67891 2.37959 7.44383 2.56158 7.24445C2.74358 7.04508 2.96509 6.88579 3.21202 6.77672C3.45895 6.66765 3.72589 6.61119 3.99584 6.61093H6.9125C7.38433 6.60629 7.84174 6.77337 8.19949 7.08104C8.55724 7.3887 8.79091 7.81595 8.85695 8.28316C8.98005 9.21655 9.20836 10.133 9.5375 11.0151C9.66831 11.3631 9.69662 11.7413 9.61908 12.1048C9.54154 12.4684 9.3614 12.8022 9.1 13.0665L7.86528 14.3012C9.24929 16.7352 11.2646 18.7505 13.6986 20.1345L14.9333 18.8998C15.1977 18.6384 15.5314 18.4583 15.895 18.3807C16.2586 18.3032 16.6367 18.3315 16.9847 18.4623C17.8668 18.7915 18.7833 19.0198 19.7167 19.1429C20.1889 19.2095 20.6203 19.4474 20.9286 19.8113C21.2369 20.1752 21.4007 20.6397 21.3889 21.1165Z" stroke="#808080" stroke-width="1.8" stroke-linecap="round" stroke-linejoin="round"/>
</svg>
