<svg width="26" height="26" viewBox="0 0 26 26" fill="none" xmlns="http://www.w3.org/2000/svg">
<path d="M13.016 0C13.9947 0.0106667 14.9694 0.124 15.9254 0.337333C16.1288 0.382733 16.3129 0.490537 16.452 0.645681C16.5911 0.800825 16.6783 0.995557 16.7014 1.20267L16.928 3.23867C16.96 3.52571 17.059 3.80124 17.2169 4.04307C17.3748 4.28491 17.5873 4.48631 17.8372 4.63105C18.0871 4.7758 18.3676 4.85986 18.6559 4.87647C18.9443 4.89307 19.2325 4.84176 19.4974 4.72667L21.3654 3.90667C21.555 3.82313 21.766 3.80059 21.969 3.84215C22.172 3.88371 22.3571 3.98733 22.4987 4.13867C23.848 5.58012 24.8527 7.30881 25.4374 9.19467C25.4987 9.39285 25.4968 9.60519 25.4321 9.80228C25.3674 9.99937 25.2429 10.1714 25.076 10.2947L23.42 11.516C23.1872 11.6871 22.9978 11.9105 22.8673 12.1683C22.7368 12.4261 22.6688 12.711 22.6688 13C22.6688 13.289 22.7368 13.5739 22.8673 13.8317C22.9978 14.0895 23.1872 14.3129 23.42 14.484L25.0774 15.704C25.2448 15.8271 25.3696 15.9994 25.4346 16.1967C25.4996 16.3941 25.5015 16.6068 25.44 16.8053C24.8552 18.6911 23.8504 20.4197 22.5014 21.8613C22.3602 22.0123 22.1756 22.1159 21.9731 22.1576C21.7706 22.1994 21.5602 22.1774 21.3707 22.0947L19.4947 21.272C19.2302 21.156 18.942 21.1039 18.6536 21.12C18.3652 21.136 18.0846 21.2197 17.8346 21.3644C17.5845 21.509 17.372 21.7105 17.2143 21.9525C17.0566 22.1945 16.9581 22.4702 16.9267 22.7573L16.7014 24.792C16.6787 24.9969 16.5932 25.1897 16.4567 25.3441C16.3201 25.4985 16.1392 25.607 15.9387 25.6547C14.0074 26.1141 11.9953 26.1141 10.064 25.6547C9.86351 25.607 9.68261 25.4985 9.54609 25.3441C9.40956 25.1897 9.3241 24.9969 9.30138 24.792L9.07738 22.76C9.04471 22.4736 8.9453 22.1988 8.78713 21.9578C8.62897 21.7168 8.41645 21.5162 8.16668 21.3723C7.91691 21.2283 7.63684 21.145 7.34901 21.129C7.06117 21.1129 6.77358 21.1647 6.50938 21.28L4.63471 22.1013C4.44508 22.1844 4.23435 22.2066 4.03159 22.1648C3.82882 22.123 3.64403 22.0193 3.50271 21.868C2.15299 20.4248 1.14822 18.6943 0.564043 16.8067C0.502572 16.6082 0.504465 16.3954 0.56946 16.1981C0.634455 16.0007 0.759323 15.8285 0.92671 15.7053L2.58404 14.484C2.81717 14.3131 3.00676 14.0897 3.13744 13.8319C3.26813 13.574 3.33623 13.2891 3.33623 13C3.33623 12.7109 3.26813 12.426 3.13744 12.1681C3.00676 11.9103 2.81717 11.6869 2.58404 11.516L0.92671 10.2973C0.75956 10.174 0.634957 10.0017 0.570204 9.80436C0.505452 9.60699 0.503765 9.39437 0.565377 9.196C1.15008 7.31016 2.15483 5.58148 3.50404 4.14C3.64562 3.98866 3.83073 3.88505 4.03376 3.84348C4.23679 3.80192 4.44772 3.82447 4.63738 3.908L6.50404 4.728C6.7694 4.84303 7.05804 4.89422 7.34677 4.87745C7.6355 4.86068 7.91628 4.77643 8.16654 4.63146C8.4168 4.48649 8.62957 4.28484 8.78776 4.04272C8.94595 3.8006 9.04514 3.52475 9.07738 3.23733L9.30404 1.20267C9.32692 0.995139 9.41418 0.799978 9.55359 0.644552C9.69299 0.489126 9.87755 0.381232 10.0814 0.336C11.0374 0.124 12.0147 0.012 13.016 0ZM13.016 2C12.4112 2.0071 11.8078 2.05925 11.2107 2.156L11.0654 3.45867C10.9988 4.05808 10.7923 4.63346 10.4625 5.13838C10.1326 5.64331 9.68874 6.06363 9.16659 6.36545C8.64444 6.66727 8.05866 6.84213 7.45651 6.87592C6.85435 6.90972 6.25268 6.8015 5.70004 6.56L4.50271 6.03467C3.74003 6.96016 3.13299 8.00357 2.70538 9.124L3.76938 9.90667C4.255 10.2636 4.64983 10.7297 4.92197 11.2674C5.1941 11.8051 5.3359 12.3993 5.3359 13.002C5.3359 13.6047 5.1941 14.1989 4.92197 14.7366C4.64983 15.2743 4.255 15.7404 3.76938 16.0973L2.70404 16.8813C3.13071 18.004 3.73871 19.0493 4.50138 19.9773L5.70804 19.448C6.25937 19.2073 6.8595 19.0994 7.46014 19.133C8.06078 19.1665 8.64515 19.3407 9.1662 19.6414C9.68725 19.942 10.1304 20.3608 10.4601 20.8641C10.7897 21.3673 10.9966 21.9409 11.064 22.5387L11.2107 23.8507C12.396 24.0507 13.608 24.0507 14.7934 23.8507L14.94 22.5387C15.0064 21.9401 15.2126 21.3656 15.5419 20.8614C15.8713 20.3572 16.3145 19.9375 16.8359 19.6362C17.3574 19.3348 17.9423 19.1603 18.5436 19.1267C19.1449 19.0931 19.7456 19.2013 20.2974 19.4427L21.504 19.9707C22.2663 19.0446 22.8729 18.0008 23.3 16.88L22.236 16.096C21.7504 15.7391 21.3556 15.273 21.0835 14.7352C20.8113 14.1975 20.6695 13.6033 20.6695 13.0007C20.6695 12.398 20.8113 11.8038 21.0835 11.2661C21.3556 10.7284 21.7504 10.2622 22.236 9.90533L23.2974 9.12267C22.8698 8.00223 22.2627 6.95883 21.5 6.03333L20.3054 6.55733C19.753 6.79913 19.1516 6.90766 18.5496 6.87415C17.9476 6.84065 17.3619 6.66604 16.8398 6.36445C16.3177 6.06285 15.8738 5.6427 15.5441 5.13794C15.2143 4.63317 15.0078 4.05793 14.9414 3.45867L14.7947 2.15733C14.207 2.06124 13.6129 2.0091 13.0174 2.00133L13.016 2ZM13 8C14.3261 8 15.5979 8.52678 16.5356 9.46447C17.4733 10.4021 18 11.6739 18 13C18 14.3261 17.4733 15.5979 16.5356 16.5355C15.5979 17.4732 14.3261 18 13 18C11.674 18 10.4022 17.4732 9.46451 16.5355C8.52683 15.5979 8.00004 14.3261 8.00004 13C8.00004 11.6739 8.52683 10.4021 9.46451 9.46447C10.4022 8.52678 11.674 8 13 8ZM13 10C12.2044 10 11.4413 10.3161 10.8787 10.8787C10.3161 11.4413 10 12.2043 10 13C10 13.7956 10.3161 14.5587 10.8787 15.1213C11.4413 15.6839 12.2044 16 13 16C13.7957 16 14.5588 15.6839 15.1214 15.1213C15.684 14.5587 16 13.7956 16 13C16 12.2043 15.684 11.4413 15.1214 10.8787C14.5588 10.3161 13.7957 10 13 10Z" fill="#808080"/>
</svg>
