<svg width="24" height="27" viewBox="0 0 24 27" fill="none" xmlns="http://www.w3.org/2000/svg">
<path d="M16.8983 11.1719C16.8983 10.6109 16.4436 10.1562 15.8827 10.1562H5.42175C4.86082 10.1562 4.40613 10.6109 4.40613 11.1719C4.40613 11.7328 4.86082 12.1875 5.42175 12.1875H15.8827C16.4436 12.1875 16.8983 11.7328 16.8983 11.1719Z" fill="#808080" stroke="white" stroke-width="0.4"/>
<path d="M5.42175 14.2188C4.86082 14.2188 4.40613 14.6734 4.40613 15.2344C4.40613 15.7953 4.86082 16.25 5.42175 16.25H11.775C12.336 16.25 12.7907 15.7953 12.7907 15.2344C12.7907 14.6734 12.336 14.2188 11.775 14.2188H5.42175Z" fill="#808080" stroke="white" stroke-width="0.4"/>
<path d="M7.80845 23.9688H4.41174C3.29171 23.9688 2.38049 23.0575 2.38049 21.9375V4.0625C2.38049 2.94247 3.29171 2.03125 4.41174 2.03125H16.8983C18.0183 2.03125 18.9295 2.94247 18.9295 4.0625V10.3086C18.9295 10.8695 19.3842 11.3242 19.9452 11.3242C20.5061 11.3242 20.9608 10.8695 20.9608 10.3086V4.0625C20.9608 1.82244 19.1384 0 16.8983 0H4.41174C2.17168 0 0.349243 1.82244 0.349243 4.0625V21.9375C0.349243 24.1776 2.17168 26 4.41174 26H7.80845C8.36938 26 8.82407 25.5453 8.82407 24.9844C8.82407 24.4234 8.36938 23.9688 7.80845 23.9688Z" fill="#808080"/>
<path d="M22.7597 14.7048C21.5717 13.5168 19.6388 13.5168 18.4516 14.704L12.8757 20.2676C12.7572 20.3858 12.6699 20.5313 12.6212 20.6914L11.4069 24.6891C11.2993 25.0436 11.393 25.4284 11.6517 25.6936C11.8455 25.8922 12.1088 26 12.3788 26C12.4691 26 12.5603 25.9879 12.6498 25.9631L16.7491 24.8275C16.9178 24.7808 17.0716 24.6913 17.1955 24.5676L22.7598 19.0138C23.9477 17.8258 23.9477 15.8929 22.7597 14.7048ZM15.9495 22.9413L13.8872 23.5126L14.4908 21.5256L18.2531 17.7716L19.6897 19.2082L15.9495 22.9413ZM21.3242 17.5769L21.1274 17.7733L19.6911 16.3369L19.8872 16.1412C20.2832 15.7452 20.9275 15.7452 21.3235 16.1412C21.7195 16.5372 21.7195 17.1815 21.3242 17.5769Z" fill="#808080" stroke="white" stroke-width="0.4"/>
<path d="M15.8827 6.09375H5.42175C4.86082 6.09375 4.40613 6.54845 4.40613 7.10938C4.40613 7.6703 4.86082 8.125 5.42175 8.125H15.8827C16.4436 8.125 16.8983 7.6703 16.8983 7.10938C16.8983 6.54845 16.4436 6.09375 15.8827 6.09375Z" fill="#808080" stroke="white" stroke-width="0.4"/>
</svg>
