<svg width="24" height="24" viewBox="0 0 24 24" fill="none" xmlns="http://www.w3.org/2000/svg">
<path d="M19.8436 10.4065C20.1676 10.0825 20.1346 9.53952 19.7491 9.28902C17.4426 7.79088 14.7504 6.99561 12.0001 7.00002C9.14257 7.00002 6.48007 7.84002 4.25107 9.28902C4.1619 9.3492 4.08734 9.4286 4.03289 9.52138C3.97843 9.61416 3.94546 9.71796 3.9364 9.82515C3.92733 9.93235 3.94241 10.0402 3.98051 10.1408C4.01861 10.2414 4.07877 10.3322 4.15657 10.4065C4.28437 10.5313 4.45078 10.6089 4.62849 10.6266C4.8062 10.6443 4.98465 10.6011 5.13457 10.504C7.1836 9.19161 9.56677 8.49597 12.0001 8.50002C14.4334 8.49597 16.8165 9.19161 18.8656 10.504C19.1731 10.702 19.5856 10.666 19.8436 10.4065ZM16.5691 13.681C16.9081 13.342 16.8466 12.7735 16.4191 12.556C15.0503 11.8595 13.5359 11.4976 12.0001 11.5C10.4101 11.5 8.90707 11.881 7.58107 12.556C7.15357 12.7735 7.09207 13.342 7.43107 13.681L7.45357 13.7035C7.69357 13.9435 8.06557 13.9885 8.37007 13.8385C9.49991 13.2848 10.7418 12.9979 12.0001 13C13.3021 13 14.5351 13.3015 15.6301 13.84C15.9346 13.99 16.3051 13.945 16.5466 13.7035L16.5691 13.681ZM13.5901 16.66C13.8841 16.366 13.8871 15.88 13.5301 15.67C13.0673 15.3946 12.5386 15.2494 12.0001 15.25C11.4615 15.2494 10.9328 15.3946 10.4701 15.67C10.1131 15.88 10.1161 16.366 10.4101 16.66L11.4691 17.719C11.5387 17.7889 11.6215 17.8443 11.7126 17.8821C11.8037 17.9199 11.9014 17.9394 12.0001 17.9394C12.0987 17.9394 12.1964 17.9199 12.2875 17.8821C12.3786 17.8443 12.4614 17.7889 12.5311 17.719L13.5916 16.6585L13.5901 16.66Z" fill="#43BD77"/>
</svg>
