<svg width="20" height="20" viewBox="0 0 20 20" fill="none" xmlns="http://www.w3.org/2000/svg">
<path d="M18 3.13611V12.3961C18 13.024 17.4917 13.5323 16.8639 13.5323H7.75335L4.72504 16.5606C4.61826 16.6674 4.43033 16.5905 4.43033 16.4367V13.5323H3.14043C2.50828 13.5323 2 13.024 2 12.3961V3.13611C2 2.50825 2.50828 2 3.14043 2H16.8639C17.4917 2 18 2.50825 18 3.13611Z" fill="#6C9100"/>
<path d="M6.08798 9.72274C7.01975 9.72274 7.5581 9.1585 7.5581 8.51662C7.5581 7.97309 7.2734 7.65215 6.79716 7.46062L6.31575 7.26909C5.9741 7.1345 5.73598 7.05168 5.73598 6.83427C5.73598 6.63238 5.90681 6.5185 6.19151 6.5185C6.49175 6.5185 6.72987 6.62203 6.98351 6.81356L7.44422 6.2338C7.10775 5.89733 6.63669 5.7265 6.19151 5.7265C5.37363 5.7265 4.79387 6.24415 4.79387 6.89121C4.79387 7.45027 5.17175 7.78674 5.57551 7.94721L6.06728 8.15427C6.39857 8.29403 6.61081 8.3665 6.61081 8.58909C6.61081 8.79615 6.45034 8.92556 6.10869 8.92556C5.80328 8.92556 5.4461 8.76509 5.17693 8.53215L4.64893 9.16885C5.04751 9.53638 5.58587 9.72274 6.08798 9.72274Z" fill="#CCFF33"/>
<path d="M8.19829 9.65027H9.02652V8.33027C9.02652 7.94721 8.95405 7.37262 8.90746 6.99474H8.92817L9.23876 7.91615L9.76158 9.32415H10.2689L10.7865 7.91615L11.1075 6.99474H11.1333C11.0816 7.37262 11.0091 7.94721 11.0091 8.33027V9.65027H11.8529V5.7938H10.8486L10.2585 7.46062C10.1861 7.68321 10.1239 7.9265 10.0463 8.15944H10.0204C9.94793 7.9265 9.88582 7.68321 9.80817 7.46062L9.19735 5.7938H8.19829V9.65027Z" fill="#CCFF33"/>
<path d="M13.9336 9.72274C14.8653 9.72274 15.4037 9.1585 15.4037 8.51662C15.4037 7.97309 15.119 7.65215 14.6427 7.46062L14.1613 7.26909C13.8197 7.1345 13.5816 7.05168 13.5816 6.83427C13.5816 6.63238 13.7524 6.5185 14.0371 6.5185C14.3373 6.5185 14.5755 6.62203 14.8291 6.81356L15.2898 6.2338C14.9533 5.89733 14.4823 5.7265 14.0371 5.7265C13.2192 5.7265 12.6395 6.24415 12.6395 6.89121C12.6395 7.45027 13.0173 7.78674 13.4211 7.94721L13.9129 8.15427C14.2442 8.29403 14.4564 8.3665 14.4564 8.58909C14.4564 8.79615 14.2959 8.92556 13.9543 8.92556C13.6489 8.92556 13.2917 8.76509 13.0225 8.53215L12.4945 9.16885C12.8931 9.53638 13.4315 9.72274 13.9336 9.72274Z" fill="#CCFF33"/>
</svg>
