<svg width="20" height="20" viewBox="0 0 20 20" fill="none" xmlns="http://www.w3.org/2000/svg">
<path d="M18.1226 8.52093L16.1726 8.04138C16.0554 7.67173 15.9046 7.31327 15.7227 6.97038C16.0155 6.48303 16.6308 5.45728 16.6308 5.45728C16.7485 5.26128 16.7173 5.0103 16.5559 4.84883L15.1473 3.44029C14.9858 3.27833 14.7354 3.24721 14.5389 3.36538L13.0233 4.27346C12.6823 4.093 12.3258 3.94368 11.9587 3.82744L11.4791 1.87745C11.4236 1.65566 11.2247 1.5 10.9961 1.5H9.00391C8.7753 1.5 8.57588 1.65566 8.52093 1.87742C8.52093 1.87742 8.18874 3.23842 8.04185 3.82694C7.65031 3.95096 7.27193 4.11196 6.91151 4.30845L5.34004 3.36538C5.14354 3.24864 4.89356 3.27882 4.73159 3.44029L3.32305 4.84883C3.16158 5.0103 3.13044 5.26128 3.24814 5.45728L4.21993 7.08032C4.06331 7.38917 3.932 7.71064 3.82744 8.03992L1.87745 8.52093C1.65566 8.57638 1.5 8.7753 1.5 9.00391V10.9961C1.5 11.2247 1.65566 11.4241 1.87742 11.4791L3.8279 11.9586C3.94611 12.3336 4.09977 12.6979 4.28607 13.0476L3.41645 14.497C3.29875 14.693 3.32989 14.944 3.49136 15.1054L4.8999 16.514C5.0609 16.675 5.31185 16.7056 5.50835 16.5889C5.50835 16.5889 6.48352 16.0043 6.96115 15.7183C7.30696 15.9026 7.66881 16.0549 8.04188 16.173L8.52097 18.1225C8.57588 18.3444 8.7753 18.5 9.00391 18.5H10.9961C11.2247 18.5 11.4236 18.3443 11.4791 18.1226L11.9582 16.1731C12.3419 16.0515 12.7115 15.8944 13.0632 15.7037C13.5539 15.9979 14.5388 16.5889 14.5388 16.5889C14.7348 16.7061 14.9858 16.676 15.1473 16.514L16.5558 15.1054C16.7173 14.944 16.7484 14.693 16.6307 14.497L15.7353 13.0053C15.9118 12.6702 16.0583 12.3195 16.1726 11.9586L18.1225 11.4791C18.3444 11.4236 18.5 11.2247 18.5 10.9961V9.00391C18.5 8.7753 18.3444 8.57638 18.1226 8.52093ZM10 13.4863C8.07784 13.4863 6.51367 11.9222 6.51367 10C6.51367 8.07784 8.07784 6.51367 10 6.51367C11.9222 6.51367 13.4863 8.07784 13.4863 10C13.4863 11.9222 11.9222 13.4863 10 13.4863Z" fill="#547100"/>
</svg>
