<svg width="19" height="20" viewBox="0 0 19 20" fill="none" xmlns="http://www.w3.org/2000/svg">
<path d="M11.5694 4.89538C10.9706 2.11453 9.69372 0.355225 8.51271 0.355225C7.33171 0.355225 6.05479 2.11453 5.45605 4.89538H11.5694Z" fill="#547100"/>
<path d="M5.10742 8.30047C5.10728 9.0597 5.1579 9.81808 5.25895 10.5706H11.7661C11.8672 9.81808 11.9178 9.0597 11.9177 8.30047C11.9178 7.54125 11.8672 6.78287 11.7661 6.0304H5.25895C5.1579 6.78287 5.10728 7.54125 5.10742 8.30047Z" fill="#547100"/>
<path d="M5.45605 11.7057C6.05479 14.4865 7.33171 16.2458 8.51271 16.2458C9.69372 16.2458 10.9706 14.4865 11.5694 11.7057H5.45605Z" fill="#547100"/>
<path d="M12.7311 4.89542H16.3065C15.7693 3.67285 14.953 2.59319 13.9232 1.74304C12.8934 0.892895 11.6787 0.295919 10.3765 0C11.453 0.94719 12.2975 2.69855 12.7311 4.89542Z" fill="#547100"/>
<path d="M16.7146 6.0304H12.9122C13.0058 6.78346 13.0526 7.54161 13.0524 8.30047C13.0524 9.05935 13.0054 9.8175 12.9116 10.5706H16.714C17.1279 9.08546 17.1279 7.51548 16.714 6.0304H16.7146Z" fill="#547100"/>
<path d="M10.3765 16.6011C11.6789 16.3054 12.8938 15.7085 13.9238 14.8583C14.9539 14.0081 15.7703 12.9284 16.3076 11.7057H12.7322C12.2975 13.9026 11.453 15.6539 10.3765 16.6011Z" fill="#547100"/>
<path d="M4.29363 11.7057H0.718262C1.25558 12.9284 2.07201 14.0081 3.10203 14.8583C4.13206 15.7085 5.34701 16.3054 6.64941 16.6011C5.57169 15.6539 4.72722 13.9026 4.29363 11.7057Z" fill="#547100"/>
<path d="M6.64745 0C5.34505 0.295759 4.1301 0.892661 3.10008 1.74282C2.07006 2.59298 1.25363 3.67272 0.716309 4.89542H4.29168C4.7264 2.69855 5.57087 0.94719 6.64745 0Z" fill="#547100"/>
<path d="M3.97203 8.30047C3.97196 7.5416 4.01897 6.78345 4.11278 6.0304H0.310405C-0.103468 7.51548 -0.103468 9.08546 0.310405 10.5706H4.11278C4.01897 9.8175 3.97196 9.05935 3.97203 8.30047Z" fill="#547100"/>
<path d="M17.8774 12.8941L17.8792 12.8946C18.2435 12.9857 18.4999 13.3128 18.4999 13.6892V14.9662C18.4999 15.3426 18.2435 15.6697 17.8792 15.7608L17.8774 15.7613L16.8899 16.0041C16.8606 16.0799 16.8293 16.1548 16.796 16.229L17.2304 16.9527C17.2304 16.9527 17.2304 16.9528 17.2305 16.9528C17.4242 17.2755 17.3728 17.6882 17.1073 17.9537L16.7537 17.6001L17.1073 17.9537L16.205 18.8559C16.2049 18.8561 16.2048 18.8562 16.2046 18.8563C15.9377 19.1237 15.525 19.1718 15.2043 18.9801L15.2037 18.9797L15.4609 18.5509L15.2037 18.9797L15.2036 18.9797L15.2036 18.9796L15.2032 18.9794L15.2019 18.9786L15.1965 18.9754L15.1759 18.963L15.1001 18.9176L14.8487 18.7667L14.4933 18.5535C14.4061 18.5938 14.3176 18.6314 14.2279 18.6661L13.9853 19.6533L13.9848 19.6553C13.8937 20.0195 13.5666 20.2759 13.1902 20.2759H11.9132C11.5376 20.2759 11.209 20.0201 11.1183 19.6541L11.1181 19.6533L10.8756 18.6662C10.7918 18.6338 10.709 18.599 10.6273 18.5618L10.2806 18.7695L10.0322 18.9184L9.95725 18.9633L9.9369 18.9755L9.93161 18.9787L9.93026 18.9795L9.92992 18.9797L9.92983 18.9798L9.92981 18.9798L9.67272 18.5509L9.92981 18.9798L9.92805 18.9808C9.60741 19.1713 9.19554 19.1228 8.92917 18.8565L8.02635 17.9537L8.37297 17.607L8.02635 17.9537C7.76086 17.6882 7.70943 17.2754 7.90325 16.9527L8.32027 16.2576C8.28218 16.1742 8.24659 16.0896 8.21356 16.0041L7.22605 15.7613L7.22517 15.7611C6.85931 15.6704 6.60352 15.3418 6.60352 14.9662V13.6892C6.60352 13.3127 6.85996 12.9857 7.22418 12.8946L7.2257 12.8942L8.21361 12.6505C8.23512 12.595 8.2577 12.5398 8.28136 12.4851L7.79537 11.6734C7.7953 11.6733 7.79523 11.6732 7.79515 11.6731C7.60159 11.3504 7.65308 10.9378 7.91847 10.6724L8.82129 9.76962L8.82184 9.76907C9.0886 9.50313 9.49948 9.45474 9.82023 9.6453L9.82213 9.64643L9.82213 9.64644L10.5933 10.1092C10.6862 10.066 10.7806 10.0259 10.8762 9.98894C10.9153 9.83025 10.9597 9.64926 10.9998 9.48575L11.0832 9.1449L11.1086 9.04101L11.1155 9.01272L11.1173 9.00536L11.1178 9.00349L11.1179 9.00302L11.1179 9.00291L11.1179 9.00288L11.6037 9.12143L11.1179 9.00287L11.1183 9.00117C11.209 8.63531 11.5376 8.37952 11.9132 8.37952H13.1902C13.5667 8.37952 13.8937 8.63596 13.9848 9.00011L13.9853 9.00204L13.9853 9.00204L14.2281 9.98947C14.3081 10.0204 14.3872 10.0535 14.4653 10.0888L15.2033 9.64668C15.2033 9.64664 15.2034 9.6466 15.2035 9.64656C15.5262 9.45257 15.9388 9.50355 16.2045 9.76962L17.8774 12.8941ZM17.8774 12.8941L16.8898 12.6513C16.8583 12.5699 16.8245 12.4894 16.7884 12.4099L17.0099 12.041L17.166 11.7808L17.2132 11.7021L17.2261 11.6807L17.2294 11.6751L17.2303 11.6737L17.2304 11.6734L17.2305 11.6733L17.2305 11.6732L17.2305 11.6732C17.4242 11.3505 17.3728 10.9379 17.1073 10.6724L16.205 9.77016L17.8774 12.8941ZM12.5517 16.0623C11.5958 16.0623 10.8171 15.2836 10.8171 14.3277C10.8171 13.3718 11.5958 12.5931 12.5517 12.5931C13.5076 12.5931 14.2863 13.3718 14.2863 14.3277C14.2863 15.2836 13.5076 16.0623 12.5517 16.0623Z" fill="#547100" stroke="#99CC00"/>
<path d="M17.758 13.3797L16.5081 13.0723C16.433 12.8354 16.3363 12.6056 16.2197 12.3858C16.4074 12.0735 16.8018 11.416 16.8018 11.416C16.8772 11.2904 16.8573 11.1295 16.7538 11.026L15.8509 10.1232C15.7474 10.0194 15.5869 9.99942 15.4609 10.0752L14.4895 10.6572C14.271 10.5415 14.0425 10.4458 13.8071 10.3713L13.4998 9.12145C13.4642 8.97929 13.3367 8.87952 13.1902 8.87952H11.9132C11.7667 8.87952 11.6389 8.97929 11.6037 9.12143C11.6037 9.12143 11.3907 9.99378 11.2966 10.371C11.0456 10.4505 10.8031 10.5537 10.5721 10.6796L9.56484 10.0752C9.43889 10.0003 9.27866 10.0197 9.17485 10.1232L8.27202 11.026C8.16853 11.1295 8.14857 11.2904 8.22401 11.416L8.84689 12.4563C8.74651 12.6543 8.66234 12.8603 8.59532 13.0714L7.34545 13.3797C7.20329 13.4152 7.10352 13.5427 7.10352 13.6892V14.9662C7.10352 15.1127 7.20329 15.2405 7.34543 15.2757L8.59562 15.5831C8.67138 15.8235 8.76987 16.057 8.88929 16.2811L8.33189 17.2101C8.25645 17.3357 8.27641 17.4966 8.3799 17.6001L9.28273 18.5029C9.38592 18.6061 9.54677 18.6257 9.67272 18.5509C9.67272 18.5509 10.2978 18.1762 10.6039 17.9929C10.8256 18.1111 11.0575 18.2086 11.2966 18.2844L11.6037 19.534C11.6389 19.6761 11.7667 19.7759 11.9132 19.7759H13.1902C13.3367 19.7759 13.4642 19.6761 13.4997 19.534L13.8068 18.2844C14.0528 18.2065 14.2897 18.1058 14.5151 17.9836C14.8296 18.1722 15.4609 18.5509 15.4609 18.5509C15.5866 18.6261 15.7474 18.6067 15.8509 18.5029L16.7537 17.6001C16.8572 17.4966 16.8772 17.3357 16.8018 17.2101L16.2278 16.254C16.341 16.0392 16.4348 15.8144 16.5081 15.5831L17.758 15.2757C17.9001 15.2402 17.9999 15.1127 17.9999 14.9662V13.6892C17.9999 13.5427 17.9001 13.4152 17.758 13.3797ZM12.5517 16.5623C11.3197 16.5623 10.3171 15.5597 10.3171 14.3277C10.3171 13.0957 11.3197 12.0931 12.5517 12.0931C13.7837 12.0931 14.7863 13.0957 14.7863 14.3277C14.7863 15.5597 13.7837 16.5623 12.5517 16.5623Z" fill="#547100" stroke="#99CC00" stroke-width="0.4"/>
<circle cx="12.5519" cy="14.3278" r="1.81606" fill="#99CC00"/>
</svg>
