<svg width="16" height="16" viewBox="0 0 16 16" fill="none" xmlns="http://www.w3.org/2000/svg">
<path d="M12.1643 10.5845C11.6416 10.0684 10.989 10.0684 10.4696 10.5845C10.0734 10.9774 9.67718 11.3703 9.28763 11.7698C9.18108 11.8797 9.09118 11.903 8.96133 11.8297C8.70496 11.6899 8.43194 11.5767 8.18556 11.4235C7.03687 10.701 6.07464 9.7721 5.22229 8.72663C4.79944 8.20723 4.4232 7.6512 4.16017 7.02525C4.1069 6.89873 4.11689 6.81549 4.2201 6.71228C4.61632 6.32938 5.00254 5.9365 5.39209 5.54362C5.9348 4.99758 5.9348 4.35831 5.38876 3.80894C5.07912 3.49597 4.76947 3.18965 4.45983 2.87668C4.14019 2.55705 3.82389 2.23408 3.50093 1.91778C2.97819 1.40836 2.32561 1.40836 1.8062 1.92111C1.40666 2.31399 1.02377 2.71686 0.617567 3.10309C0.241332 3.45934 0.0515496 3.89551 0.0115955 4.40493C-0.0516653 5.23397 0.151435 6.01641 0.437773 6.77887C1.02377 8.35706 1.91608 9.75878 2.99817 11.044C4.45983 12.782 6.20449 14.1571 8.24549 15.1493C9.16443 15.5954 10.1167 15.9384 11.1522 15.995C11.8647 16.0349 12.484 15.8551 12.9801 15.2991C13.3197 14.9195 13.7026 14.5733 14.0622 14.2103C14.5949 13.671 14.5982 13.0184 14.0688 12.4857C13.4362 11.8497 12.8003 11.2171 12.1643 10.5845Z" fill="#6C9100"/>
<path d="M11.5284 7.93098L12.757 7.72122C12.5639 6.59252 12.0311 5.57036 11.2221 4.75795C10.3664 3.90227 9.28429 3.36289 8.09232 3.19641L7.91919 4.43166C8.84147 4.56151 9.6805 4.9777 10.3431 5.64028C10.969 6.26622 11.3786 7.05865 11.5284 7.93098Z" fill="#6C9100"/>
<path d="M13.4497 2.59036C12.0313 1.17199 10.2367 0.27635 8.25565 0L8.08252 1.23525C9.79389 1.47498 11.3454 2.25075 12.5707 3.47269C13.7327 4.63469 14.4952 6.103 14.7715 7.71782L16.0001 7.50806C15.6771 5.63687 14.7948 3.93882 13.4497 2.59036Z" fill="#6C9100"/>
</svg>
