<svg width="24" height="24" viewBox="0 0 24 24" fill="none" xmlns="http://www.w3.org/2000/svg">
<g clip-path="url(#clip0_1081_1465)">
<path d="M12.0058 12.0049C12.6986 12.0049 13.3758 11.7994 13.9518 11.4146C14.5277 11.0297 14.9767 10.4826 15.2417 9.84261C15.5068 9.20259 15.5761 8.49834 15.4409 7.81892C15.3057 7.13949 14.9721 6.51542 14.4822 6.02562C13.9923 5.53582 13.3682 5.2023 12.6888 5.06723C12.0093 4.93215 11.3051 5.0016 10.6651 5.26678C10.0251 5.53197 9.47816 5.98098 9.09339 6.55703C8.70861 7.13308 8.5033 7.8103 8.50342 8.50304C8.50439 9.43159 8.87373 10.3218 9.53037 10.9783C10.187 11.6349 11.0773 12.004 12.0058 12.0049Z" fill="#99CC00"/>
<path d="M16.5876 14.8981C15.7001 13.9877 14.5613 13.3626 13.3168 13.1026C12.0723 12.8426 10.7786 12.9594 9.60079 13.4382C8.42302 13.917 7.41472 14.736 6.70467 15.7906C5.99463 16.8453 5.61508 18.0876 5.6145 19.359C5.6145 19.5215 5.67907 19.6774 5.794 19.7923C5.90893 19.9073 6.06481 19.9718 6.22735 19.9718H17.7857C17.9482 19.9718 18.1041 19.9073 18.219 19.7923C18.334 19.6774 18.3985 19.5215 18.3985 19.359C18.4009 18.7091 18.3006 18.063 18.1013 17.4444C17.8046 16.4882 17.2859 15.6156 16.5876 14.8981Z" fill="#99CC00"/>
<path d="M19.4036 12.3115C20.842 12.3115 22.0082 11.1454 22.0082 9.7069C22.0082 8.26842 20.842 7.10229 19.4036 7.10229C17.9651 7.10229 16.799 8.26842 16.799 9.7069C16.799 11.1454 17.9651 12.3115 19.4036 12.3115Z" fill="#99CC00"/>
<path d="M19.4037 13.0282C18.5822 13.0313 17.7766 13.255 17.0712 13.676C17.2042 13.7949 17.3384 13.9119 17.464 14.0406C18.2985 14.8983 18.9184 15.9412 19.2731 17.084C19.3946 17.4603 19.4842 17.8461 19.5409 18.2374H23.3872C23.5497 18.2374 23.7056 18.1728 23.8205 18.0579C23.9355 17.943 24 17.7871 24 17.6246C23.9987 16.4059 23.5141 15.2376 22.6524 14.3759C21.7907 13.5142 20.6223 13.0295 19.4037 13.0282Z" fill="#99CC00"/>
<path d="M4.59644 12.3115C3.15796 12.3115 1.99183 11.1454 1.99183 9.7069C1.99183 8.26842 3.15796 7.10229 4.59644 7.10229C6.03493 7.10229 7.20105 8.26842 7.20105 9.7069C7.20105 11.1454 6.03493 12.3115 4.59644 12.3115Z" fill="#99CC00"/>
<path d="M4.59645 13.0282C5.41794 13.0313 6.22352 13.255 6.92896 13.676C6.79597 13.7949 6.66175 13.9119 6.53612 14.0406C5.70165 14.8983 5.08175 15.9412 4.72699 17.084C4.60549 17.4603 4.5159 17.8461 4.45917 18.2374H0.612933C0.450395 18.2374 0.294514 18.1728 0.179583 18.0579C0.064651 17.943 8.39233e-05 17.7871 8.39233e-05 17.6246C0.0013814 16.4059 0.486057 15.2376 1.34776 14.3759C2.20947 13.5142 3.37782 13.0295 4.59645 13.0282Z" fill="#99CC00"/>
</g>
<defs>
<clipPath id="clip0_1081_1465">
<rect width="24" height="24" fill="white"/>
</clipPath>
</defs>
</svg>
