<svg width="16" height="22" viewBox="0 0 16 22" fill="none" xmlns="http://www.w3.org/2000/svg">
<path d="M13.0617 11.2287C13.0617 10.4259 13.6693 9.77531 14.4186 9.77531H14.4488C15.1969 9.77531 15.804 10.4233 15.8057 11.2247C15.8121 13.8467 15.808 14.104 15.8043 18.0202C15.8022 20.2191 14.1376 22 12.085 22H7.67804C6.32951 22 5.08622 21.2177 4.42914 19.956L0.5 12.4071L0.910455 12.0667C1.76048 11.2854 3.03903 11.3815 3.77855 12.2817L4.87818 13.6204L4.8845 4.41098C4.88502 3.60849 5.49264 2.95825 6.24163 2.95825H6.24198C6.9915 2.95825 7.59911 3.60937 7.59911 4.41221V9.9858C7.617 9.19998 8.21742 8.56991 8.95519 8.56991H8.98694C9.73646 8.56991 10.3441 9.22067 10.3441 10.0235V10.4915C10.3441 9.68849 10.9515 9.0379 11.7016 9.0379H11.7047C12.4541 9.0379 13.0617 9.68849 13.0617 10.4915V11.2287Z" fill="#99CC00"/>
<path d="M6.23708 1C4.46617 1.00193 3.03116 2.43712 3.02905 4.20804C3.02905 4.40643 3.1899 4.56728 3.38829 4.56728C3.58667 4.56728 3.74752 4.40643 3.74752 4.20804C3.74752 2.83302 4.86224 1.71847 6.23708 1.71847C7.61193 1.71847 8.72664 2.83302 8.72664 4.20804C8.72664 4.40643 8.88749 4.56728 9.08588 4.56728C9.28426 4.56728 9.44511 4.40643 9.44511 4.20804C9.44301 2.43712 8.008 1.00193 6.23708 1Z" fill="#99CC00" stroke="#99CC00" stroke-width="0.8"/>
</svg>
