<svg width="16" height="19" viewBox="0 0 16 19" fill="none" xmlns="http://www.w3.org/2000/svg">
<path d="M13.3334 9.67114C13.0388 9.67114 12.8 9.90993 12.8 10.2045C12.8 12.8512 10.6467 15.0045 8.00003 15.0045C5.35331 15.0045 3.20003 12.8512 3.20003 10.2045C3.20003 9.90993 2.96124 9.67114 2.6667 9.67114C2.37215 9.67114 2.13336 9.90993 2.13336 10.2045C2.13336 13.2596 4.48085 15.7763 7.4667 16.0466V17.1378H5.8667C5.57215 17.1378 5.33336 17.3766 5.33336 17.6711C5.33336 17.9657 5.57215 18.2045 5.8667 18.2045H10.1334C10.4279 18.2045 10.6667 17.9657 10.6667 17.6711C10.6667 17.3766 10.4279 17.1378 10.1334 17.1378H8.53336V16.0466C11.5192 15.7763 13.8667 13.2596 13.8667 10.2045C13.8667 9.90993 13.6279 9.67114 13.3334 9.67114Z" fill="#547100"/>
<path d="M8 0C5.94144 0 4.26666 1.67477 4.26666 3.73333V10.2044C4.26666 12.263 5.94144 13.9378 8 13.9378C10.0586 13.9378 11.7333 12.263 11.7333 10.2044V3.73333C11.7333 1.67477 10.0586 0 8 0Z" fill="#547100"/>
<path d="M9.06669 4.30225H6.93336C6.63882 4.30225 6.40002 4.54104 6.40002 4.83558C6.40002 5.13012 6.63882 5.36891 6.93336 5.36891H9.06669C9.36123 5.36891 9.60002 5.13012 9.60002 4.83558C9.60002 4.54104 9.36123 4.30225 9.06669 4.30225Z" fill="#99CC00"/>
<path d="M9.06669 6.43555H6.93336C6.63882 6.43555 6.40002 6.67434 6.40002 6.96888C6.40002 7.26342 6.63882 7.50221 6.93336 7.50221H9.06669C9.36123 7.50221 9.60002 7.26342 9.60002 6.96888C9.60002 6.67434 9.36123 6.43555 9.06669 6.43555Z" fill="#99CC00"/>
<path d="M9.06669 8.56885H6.93336C6.63882 8.56885 6.40002 8.80764 6.40002 9.10218C6.40002 9.39672 6.63882 9.63551 6.93336 9.63551H9.06669C9.36123 9.63551 9.60002 9.39672 9.60002 9.10218C9.60002 8.80764 9.36123 8.56885 9.06669 8.56885Z" fill="#99CC00"/>
<path d="M13.3333 4.30225C13.0388 4.30225 12.8 4.54104 12.8 4.83558V6.96891C12.8 7.26346 13.0388 7.50225 13.3333 7.50225C13.6279 7.50225 13.8667 7.26346 13.8667 6.96891V4.83558C13.8667 4.54104 13.6279 4.30225 13.3333 4.30225Z" fill="#547100"/>
<path d="M15.4667 3.2356C15.1721 3.2356 14.9333 3.47439 14.9333 3.76893V8.0356C14.9333 8.33014 15.1721 8.56893 15.4667 8.56893C15.7612 8.56893 16 8.33014 16 8.0356V3.76893C16 3.47439 15.7612 3.2356 15.4667 3.2356Z" fill="#547100"/>
<path d="M2.13336 4.83558V6.96891C2.13336 7.26346 2.37215 7.50225 2.6667 7.50225C2.96124 7.50225 3.20003 7.26346 3.20003 6.96891V4.83558C3.20003 4.54104 2.96124 4.30225 2.6667 4.30225C2.37215 4.30225 2.13336 4.54104 2.13336 4.83558Z" fill="#547100"/>
<path d="M0.533333 3.2356C0.238791 3.2356 0 3.47439 0 3.76893V8.0356C0 8.33014 0.238791 8.56893 0.533333 8.56893C0.827876 8.56893 1.06667 8.33014 1.06667 8.0356V3.76893C1.06667 3.47439 0.827876 3.2356 0.533333 3.2356Z" fill="#547100"/>
</svg>
