<svg width="18" height="19" viewBox="0 0 18 19" fill="none" xmlns="http://www.w3.org/2000/svg">
<path d="M13.2858 5.28571C13.2858 7.65265 11.367 9.57143 9.00007 9.57143C6.63314 9.57143 4.71436 7.65265 4.71436 5.28571C4.71436 2.91878 6.63314 1 9.00007 1C11.367 1 13.2858 2.91878 13.2858 5.28571Z" fill="#99CC00"/>
<path fill-rule="evenodd" clip-rule="evenodd" d="M9.00002 2.29163C7.37275 2.29163 6.05359 3.61079 6.05359 5.23805C6.05359 6.86532 7.37275 8.18448 9.00002 8.18448C10.6273 8.18448 11.9464 6.86532 11.9464 5.23805C11.9464 3.61079 10.6273 2.29163 9.00002 2.29163ZM4.80359 5.23805C4.80359 2.92043 6.68239 1.04163 9.00002 1.04163C11.3176 1.04163 13.1964 2.92043 13.1964 5.23805C13.1964 7.55568 11.3176 9.43448 9.00002 9.43448C6.68239 9.43448 4.80359 7.55568 4.80359 5.23805Z" fill="#99CC00" stroke="#99CC00" stroke-width="0.4"/>
<path d="M17 18H1C1 15.6667 2.6 11 9 11C15.4 11 17 15.6667 17 18Z" fill="#99CC00"/>
<path fill-rule="evenodd" clip-rule="evenodd" d="M2.59168 13.4717C3.88938 12.0852 5.9999 11.0416 9.23846 11.0416C12.477 11.0416 14.5875 12.0852 15.8852 13.4717C17.1666 14.8406 17.6016 16.4872 17.6016 17.619C17.6016 17.9642 17.3217 18.244 16.9766 18.244H1.50037C1.15519 18.244 0.875366 17.9642 0.875366 17.619C0.875366 16.4872 1.31033 14.8406 2.59168 13.4717ZM2.17852 16.994H16.2984C16.1683 16.1917 15.7837 15.1924 14.9726 14.3259C13.9489 13.2321 12.1904 12.2916 9.23846 12.2916C6.28655 12.2916 4.52801 13.2321 3.50429 14.3259C2.69322 15.1924 2.30858 16.1917 2.17852 16.994Z" fill="#99CC00" stroke="#99CC00" stroke-width="0.4" stroke-linecap="round" stroke-linejoin="round"/>
</svg>
