<svg width="19" height="18" viewBox="0 0 19 18" fill="none" xmlns="http://www.w3.org/2000/svg">
<path d="M11.0103 4.60815L11.009 7.57314C11.009 7.68572 11.0539 7.79332 11.1338 7.87278L13.2645 9.99345L13.8665 9.39416L11.8605 7.39764L11.8617 4.60815H11.0103Z" fill="#6C9100" stroke="#6C9100" stroke-width="0.4"/>
<path fill-rule="evenodd" clip-rule="evenodd" d="M7.17858 3.54473C8.21198 2.20764 9.80475 1.3179 11.6223 1.24334C14.8916 1.10925 17.6604 3.66025 17.7945 6.92913C17.8935 9.34247 16.5292 11.4835 14.4928 12.4928L13.8541 11.8541C15.7442 11.0489 17.0366 9.13526 16.9475 6.96388C16.8326 4.16149 14.4594 1.97539 11.657 2.09035C10.0987 2.15428 8.73307 2.91715 7.84724 4.06365L7.17858 3.54473Z" fill="#6C9100"/>
<path d="M11.6223 1.24334L11.61 0.943593L11.61 0.943593L11.6223 1.24334ZM7.17858 3.54473L6.94122 3.36127L6.75813 3.59816L6.99465 3.78173L7.17858 3.54473ZM14.4928 12.4928L14.2806 12.705L14.433 12.8573L14.626 12.7616L14.4928 12.4928ZM13.8541 11.8541L13.7365 11.5781L13.3279 11.7522L13.6419 12.0663L13.8541 11.8541ZM7.84724 4.06365L7.66331 4.30065L7.90082 4.48498L8.08463 4.24707L7.84724 4.06365ZM11.61 0.943593C9.69984 1.02195 8.02623 1.9574 6.94122 3.36127L7.41595 3.72818C8.39774 2.45788 9.90965 1.61385 11.6346 1.54309L11.61 0.943593ZM18.0943 6.91684C17.9534 3.48242 15.0449 0.802707 11.61 0.943593L11.6346 1.54309C14.7383 1.41578 17.3675 3.83808 17.4948 6.94143L18.0943 6.91684ZM14.626 12.7616C16.7644 11.7017 18.1983 9.45312 18.0943 6.91684L17.4948 6.94143C17.5887 9.23182 16.2941 11.2652 14.3595 12.224L14.626 12.7616ZM14.7049 12.2807L14.0662 11.642L13.6419 12.0663L14.2806 12.705L14.7049 12.2807ZM16.6478 6.97618C16.7316 9.01857 15.516 10.8201 13.7365 11.5781L13.9716 12.1301C15.9725 11.2778 17.3417 9.25195 17.2473 6.95158L16.6478 6.97618ZM11.6693 2.3901C14.3062 2.28193 16.5396 4.33933 16.6478 6.97618L17.2473 6.95158C17.1255 3.98364 14.6127 1.66885 11.6447 1.7906L11.6693 2.3901ZM8.08463 4.24707C8.91884 3.16738 10.2036 2.45023 11.6693 2.3901L11.6447 1.7906C9.99375 1.85833 8.5473 2.66691 7.60984 3.88023L8.08463 4.24707ZM8.03117 3.82665L7.36251 3.30772L6.99465 3.78173L7.66331 4.30065L8.03117 3.82665Z" fill="#6C9100"/>
<path d="M6.6001 4.80017L6.48909 2.40274L8.99753 4.68916L6.6001 4.80017Z" fill="#6C9100"/>
<path d="M12.1643 12.5846C11.6416 12.0685 10.989 12.0685 10.4696 12.5846C10.0734 12.9775 9.67718 13.3704 9.28763 13.7699C9.18108 13.8798 9.09118 13.9031 8.96133 13.8299C8.70496 13.69 8.43194 13.5768 8.18556 13.4237C7.03687 12.7012 6.07464 11.7722 5.22229 10.7268C4.79944 10.2074 4.4232 9.65132 4.16017 9.02537C4.1069 8.89885 4.11689 8.81562 4.2201 8.7124C4.61632 8.32951 5.00254 7.93662 5.39209 7.54374C5.9348 6.9977 5.9348 6.35843 5.38876 5.80907C5.07912 5.49609 4.76947 5.18978 4.45983 4.8768C4.14019 4.55717 3.82389 4.23421 3.50093 3.9179C2.97819 3.40849 2.32561 3.40849 1.8062 3.92123C1.40666 4.31411 1.02377 4.71698 0.617567 5.10321C0.241332 5.45947 0.0515496 5.89563 0.0115955 6.40505C-0.0516653 7.2341 0.151435 8.01653 0.437773 8.77899C1.02377 10.3572 1.91608 11.7589 2.99817 13.0441C4.45983 14.7821 6.20449 16.1572 8.24549 17.1494C9.16443 17.5955 10.1167 17.9385 11.1522 17.9951C11.8647 18.035 12.484 17.8552 12.9801 17.2992C13.3197 16.9197 13.7026 16.5734 14.0622 16.2105C14.5949 15.6711 14.5982 15.0185 14.0688 14.4858C13.4362 13.8498 12.8003 13.2172 12.1643 12.5846Z" fill="#6C9100"/>
</svg>
