<svg width="16" height="16" viewBox="0 0 16 16" fill="none" xmlns="http://www.w3.org/2000/svg">
<path d="M6.28117 5.5H1.5937C0.990605 5.5 0.5 5.0094 0.5 4.40618V1.5937C0.5 0.990605 0.990605 0.5 1.5937 0.5H6.28117C6.88438 0.5 7.37499 0.990605 7.37499 1.5937V4.40618C7.37499 5.0094 6.88438 5.5 6.28117 5.5Z" fill="#547100"/>
<path d="M6.28117 15.5H1.5937C0.990605 15.5 0.5 15.0094 0.5 14.4063V7.84382C0.5 7.2406 0.990605 6.75 1.5937 6.75H6.28117C6.88438 6.75 7.37499 7.2406 7.37499 7.84382V14.4063C7.37499 15.0094 6.88438 15.5 6.28117 15.5Z" fill="#547100"/>
<path d="M14.4062 15.5H9.71876C9.11554 15.5 8.62494 15.0094 8.62494 14.4063V11.5938C8.62494 10.9906 9.11554 10.5 9.71876 10.5H14.4062C15.0093 10.5 15.4999 10.9906 15.4999 11.5938V14.4063C15.4999 15.0094 15.0093 15.5 14.4062 15.5Z" fill="#547100"/>
<path d="M14.4062 9.24997H9.71876C9.11554 9.24997 8.62494 8.75937 8.62494 8.15615V1.5937C8.62494 0.990605 9.11554 0.5 9.71876 0.5H14.4062C15.0093 0.5 15.4999 0.990605 15.4999 1.5937V8.15615C15.4999 8.75937 15.0093 9.24997 14.4062 9.24997Z" fill="#547100"/>
</svg>
