<svg width="19" height="18" viewBox="0 0 19 18" fill="none" xmlns="http://www.w3.org/2000/svg">
<path d="M19.0001 7.53842V14.0922C19.0001 14.5397 18.6398 14.8999 18.196 14.8999H17.2782V16.9556C17.2782 17.0656 17.1493 17.1187 17.0696 17.0429L14.9268 14.8999H8.47543C8.03169 14.8999 7.67139 14.5397 7.67139 14.0922V11.2401H14.1986C14.7561 11.2401 15.2074 10.7888 15.2074 10.2312V6.73438H18.196C18.6398 6.73437 19.0001 7.09471 19.0001 7.53842Z" fill="#6C9100"/>
<path d="M3.06617 13.5756C3.06632 13.5755 3.06647 13.5753 3.06662 13.5752L3.06617 13.5756ZM2.01266 11.7402H2.65803V13.8192C2.65803 14.3987 3.3617 14.6943 3.77327 14.2827L6.31584 11.7402H14.1985C15.0321 11.7402 15.7073 11.065 15.7073 10.2313V2.00882C15.7073 1.17515 15.0321 0.5 14.1985 0.5H2.01266C1.17643 0.5 0.5 1.17392 0.5 2.00882V10.2313C0.5 11.0663 1.17642 11.7402 2.01266 11.7402Z" fill="#6C9100" stroke="#CCFF33" stroke-miterlimit="10" stroke-linecap="round" stroke-linejoin="round"/>
<path d="M11.5019 7.06821C12.0255 7.06821 12.45 6.6437 12.45 6.12004C12.45 5.59638 12.0255 5.17188 11.5019 5.17188C10.9782 5.17188 10.5537 5.59638 10.5537 6.12004C10.5537 6.6437 10.9782 7.06821 11.5019 7.06821Z" fill="#CCFF33" stroke="#CCFF33" stroke-width="0.8" stroke-miterlimit="10" stroke-linecap="round" stroke-linejoin="round"/>
<path d="M8.10368 7.06821C8.62734 7.06821 9.05185 6.6437 9.05185 6.12004C9.05185 5.59638 8.62734 5.17188 8.10368 5.17188C7.58003 5.17188 7.15552 5.59638 7.15552 6.12004C7.15552 6.6437 7.58003 7.06821 8.10368 7.06821Z" fill="#CCFF33" stroke="#CCFF33" stroke-width="0.8" stroke-miterlimit="10" stroke-linecap="round" stroke-linejoin="round"/>
<path d="M4.70549 7.06821C5.22915 7.06821 5.65366 6.6437 5.65366 6.12004C5.65366 5.59638 5.22915 5.17188 4.70549 5.17188C4.18183 5.17188 3.75732 5.59638 3.75732 6.12004C3.75732 6.6437 4.18183 7.06821 4.70549 7.06821Z" fill="#CCFF33" stroke="#CCFF33" stroke-width="0.8" stroke-miterlimit="10" stroke-linecap="round" stroke-linejoin="round"/>
</svg>
