<svg width="20" height="15" viewBox="0 0 20 15" fill="none" xmlns="http://www.w3.org/2000/svg">
<path d="M17.125 1H2.875C1.83965 1.00047 1.00047 1.83965 1 2.875V12.4C1.00047 13.4354 1.83965 14.2745 2.875 14.275H17.125C18.1604 14.2745 18.9995 13.4354 19 12.4V2.875C18.9995 1.83965 18.1604 1.00047 17.125 1Z" fill="#6C9100"/>
<path d="M18.25 12.4C18.2482 13.0205 17.7455 13.5232 17.125 13.525H2.875C2.25449 13.5232 1.75176 13.0205 1.75 12.4V2.875C1.75176 2.25449 2.25449 1.75176 2.875 1.75H17.125M17.125 1H2.875C1.83965 1.00047 1.00047 1.83965 1 2.875V12.4C1.00047 13.4354 1.83965 14.2745 2.875 14.275H17.125C18.1604 14.2745 18.9995 13.4354 19 12.4V2.875C18.9995 1.83965 18.1604 1.00047 17.125 1Z" stroke="#6C9100" stroke-width="0.3"/>
<path d="M6.37747 7.48761C7.44821 7.48761 8.31622 6.61948 8.31622 5.54886C8.31622 4.47812 7.44821 3.61011 6.37747 3.61011C5.30673 3.61011 4.43872 4.47812 4.43872 5.54886C4.44013 6.61901 5.30731 7.4862 6.37747 7.48761Z" fill="#CCFF33"/>
<path d="M6.37747 4.36386C5.72099 4.36409 5.18896 4.89612 5.18872 5.55261C5.18872 6.20909 5.72087 6.74136 6.37747 6.74136M6.37747 7.48761C7.44821 7.48761 8.31622 6.61948 8.31622 5.54886C8.31622 4.47812 7.44821 3.61011 6.37747 3.61011C5.30673 3.61011 4.43872 4.47812 4.43872 5.54886C4.44013 6.61901 5.30731 7.4862 6.37747 7.48761Z" stroke="#CCFF33" stroke-width="0.3"/>
<path d="M6.3774 8.20381C5.58416 8.19796 4.82279 8.51635 4.2699 9.08506C3.7074 9.65881 3.3999 10.4388 3.3999 11.2863C3.40049 11.4932 3.56807 11.6607 3.7749 11.6613H8.9799C9.18674 11.6607 9.35432 11.4932 9.3549 11.2863C9.3549 10.4388 9.0474 9.65881 8.4849 9.08506C7.93201 8.51635 7.17076 8.19796 6.3774 8.20381Z" fill="#CCFF33"/>
<path d="M4.17615 10.9113C4.24037 10.421 4.46139 9.96467 4.80615 9.61006C5.22111 9.19018 5.78701 8.95381 6.3774 8.95381C6.96779 8.95381 7.53369 9.19018 7.94865 9.61006M6.3774 8.20381C5.58416 8.19796 4.82279 8.51635 4.2699 9.08506C3.7074 9.65881 3.3999 10.4388 3.3999 11.2863C3.40049 11.4932 3.56807 11.6607 3.7749 11.6613H8.9799C9.18674 11.6607 9.35432 11.4932 9.3549 11.2863C9.3549 10.4388 9.0474 9.65881 8.4849 9.08506C7.93201 8.51635 7.17076 8.19796 6.3774 8.20381Z" stroke="#CCFF33" stroke-width="0.3"/>
<path d="M16.2025 7.26245H11.8337C11.6267 7.26245 11.4587 7.43026 11.4587 7.63745C11.4587 7.84464 11.6267 8.01245 11.8337 8.01245H16.2025C16.4096 8.01245 16.5775 7.84464 16.5775 7.63745C16.5775 7.43026 16.4096 7.26245 16.2025 7.26245Z" fill="#CCFF33" stroke="#CCFF33" stroke-width="0.3"/>
<path d="M16.2025 9.66235H11.8337C11.6267 9.66235 11.4587 9.83017 11.4587 10.0374C11.4587 10.2445 11.6267 10.4124 11.8337 10.4124H16.2025C16.4096 10.4124 16.5775 10.2445 16.5775 10.0374C16.5775 9.83017 16.4096 9.66235 16.2025 9.66235Z" fill="#CCFF33" stroke="#CCFF33" stroke-width="0.3"/>
<path d="M16.2025 4.86255H11.8337C11.6267 4.86255 11.4587 5.03036 11.4587 5.23755C11.4587 5.44474 11.6267 5.61255 11.8337 5.61255H16.2025C16.4096 5.61255 16.5775 5.44474 16.5775 5.23755C16.5775 5.03036 16.4096 4.86255 16.2025 4.86255Z" fill="#CCFF33" stroke="#CCFF33" stroke-width="0.3"/>
</svg>
