<svg width="20" height="20" viewBox="0 0 20 20" fill="none" xmlns="http://www.w3.org/2000/svg">
<path d="M19.5996 5.18797C19.5922 4.93893 19.488 4.70257 19.3093 4.52895L15.4742 0.694675C15.3851 0.605135 15.2793 0.534081 15.1626 0.485597C15.046 0.437112 14.9209 0.412153 14.7946 0.412153C14.6682 0.412153 14.5431 0.437112 14.4265 0.485597C14.3098 0.534081 14.2039 0.605135 14.1148 0.694675L10.2796 4.52895C10.1846 4.61664 10.1084 4.72264 10.0554 4.84058C10.0024 4.95852 9.97379 5.08596 9.97133 5.21523C9.96888 5.3445 9.99262 5.47293 10.0411 5.59279C10.0896 5.71266 10.1617 5.82148 10.2534 5.91271C10.345 6.00395 10.4542 6.07571 10.5743 6.12367C10.6944 6.17164 10.8229 6.19483 10.9522 6.19183C11.0815 6.18884 11.2088 6.15973 11.3266 6.10626C11.4443 6.05279 11.55 5.97606 11.6373 5.88068L13.832 3.68646L13.832 18.6248C13.8375 18.8754 13.9409 19.1138 14.1201 19.2891C14.2993 19.4644 14.5401 19.5625 14.7908 19.5625C15.0415 19.5625 15.2822 19.4644 15.4614 19.2891C15.6406 19.1138 15.744 18.8754 15.7495 18.6248L15.7495 3.67897L17.9517 5.88068C18.086 6.01962 18.2592 6.11472 18.4486 6.15351C18.6379 6.19231 18.8346 6.17299 19.0127 6.0981C19.1909 6.0232 19.3423 5.89622 19.447 5.73381C19.5517 5.5714 19.6049 5.38113 19.5996 5.18797ZM10.01 14.7886C10.0099 14.5975 9.95276 14.4107 9.84576 14.2523C9.73876 14.0939 9.58694 13.971 9.40959 13.8996C9.23225 13.8281 9.03759 13.8113 8.85063 13.8513C8.66366 13.8913 8.49289 13.9863 8.36031 14.124L6.1675 16.3182L6.1675 1.3799C6.17031 1.25225 6.14754 1.12532 6.10062 1.00656C6.0537 0.887806 5.98353 0.779617 5.89422 0.688343C5.80491 0.597069 5.69824 0.524549 5.58052 0.475038C5.4628 0.425527 5.3364 0.400024 5.20868 0.400024C5.08097 0.400024 4.95457 0.425527 4.83685 0.475038C4.71913 0.524549 4.61246 0.597069 4.52315 0.688343C4.43384 0.779617 4.36367 0.887806 4.31675 1.00656C4.26982 1.12532 4.24717 1.25225 4.24998 1.3799L4.24998 16.3257L2.04776 14.124C1.95914 14.0323 1.85315 13.9592 1.73594 13.909C1.61873 13.8588 1.49262 13.8325 1.3651 13.8315C1.23758 13.8306 1.11119 13.8552 0.993268 13.9037C0.875345 13.9522 0.768272 14.0238 0.67835 14.1142C0.588426 14.2046 0.5174 14.312 0.46951 14.4302C0.421621 14.5483 0.3978 14.6749 0.399417 14.8023C0.401037 14.9298 0.428159 15.0557 0.479034 15.1726C0.529907 15.2895 0.603545 15.3951 0.695733 15.4832L4.52525 19.3175C4.61435 19.407 4.7202 19.4781 4.83685 19.5266C4.9535 19.5751 5.07859 19.6 5.20492 19.6C5.33125 19.6 5.45633 19.5751 5.57299 19.5266C5.68964 19.4781 5.79559 19.407 5.8847 19.3175L9.71975 15.4832C9.81251 15.393 9.88601 15.285 9.9359 15.1656C9.98578 15.0462 10.011 14.918 10.01 14.7886Z" fill="#99CC00"/>
<path d="M4.87951 18.3202L1.03942 13.8401L9.35962 13.8401L4.87951 18.3202Z" fill="#99CC00"/>
<path d="M15.1198 1.67968L18.9598 6.15979L10.6396 6.15979L15.1198 1.67968Z" fill="#99CC00"/>
</svg>
