<svg width="24" height="24" viewBox="0 0 24 24" fill="none" xmlns="http://www.w3.org/2000/svg">
<path d="M17.6764 2H7.13532C6.73542 2 6.41174 2.32368 6.41174 2.72358V21.2764C6.41174 21.6763 6.73542 22 7.13532 22H17.6764C18.0763 22 18.4 21.6763 18.4 21.2764V2.72358C18.4 2.32368 18.0758 2 17.6764 2ZM10.5569 2.88228H14.2553C14.388 2.88228 14.4965 2.99034 14.4965 3.12348C14.4965 3.25661 14.388 3.36467 14.2553 3.36467H10.5569C10.4237 3.36467 10.3157 3.25661 10.3157 3.12348C10.3157 2.99034 10.4233 2.88228 10.5569 2.88228ZM12.4059 21.1983C12.0508 21.1983 11.7628 20.9098 11.7628 20.5553C11.7628 20.2007 12.0508 19.9118 12.4059 19.9118C12.7609 19.9118 13.0489 20.2007 13.0489 20.5548C13.0489 20.9088 12.7609 21.1983 12.4059 21.1983ZM16.9528 19.1882H7.8589V4.00769H16.9528V19.1882Z" fill="#99CC00"/>
<path d="M21.801 2.5613C22.3234 3.0837 22.3234 3.93068 21.801 4.45307L4.58356 21.6705C4.06117 22.1929 3.21419 22.1929 2.6918 21.6705C2.1694 21.1481 2.1694 20.3011 2.6918 19.7787M21.801 2.5613L2.6918 19.7787M21.801 2.5613C21.2786 2.03891 20.4316 2.03891 19.9092 2.5613L2.6918 19.7787M21.801 2.5613L2.6918 19.7787" fill="#99CC00" stroke="#F6FFDC" stroke-width="1.4" stroke-linecap="round"/>
</svg>
