<svg width="20" height="20" viewBox="0 0 20 20" fill="none" xmlns="http://www.w3.org/2000/svg">
<path d="M17.0444 12.4029C16.2213 11.5793 15.0793 11.2303 13.6126 11.6234L8.38265 6.38811L8.45178 6.12673C8.753 4.99654 8.42753 3.78169 7.60265 2.95681C6.76277 2.11627 5.56876 1.80787 4.43953 2.11806C4.2785 2.16227 4.15316 2.28881 4.1105 2.45028C4.06785 2.61175 4.11463 2.78337 4.23266 2.90147L5.49195 4.16075C5.86011 4.52982 5.85651 5.12088 5.49285 5.48551C5.13207 5.84726 4.52563 5.8467 4.16628 5.48642L2.90675 4.22679C2.78865 4.10863 2.61652 4.06229 2.45506 4.10519C2.29355 4.14807 2.16749 4.27372 2.12343 4.43491C1.81777 5.55173 2.11846 6.75314 2.96237 7.59705C3.78506 8.42034 4.92566 8.77053 6.3932 8.37662L11.6236 13.6119C11.2333 15.0781 11.5699 16.2091 12.404 17.0432C13.245 17.8848 14.4396 18.1909 15.5663 17.8817C15.7274 17.8375 15.8528 17.711 15.8954 17.5495C15.9381 17.388 15.8914 17.2164 15.7733 17.0983L14.5143 15.8393C14.1461 15.4702 14.1497 14.8791 14.5134 14.5145C14.8787 14.1511 15.4838 14.1569 15.8399 14.514L17.0996 15.7733C17.2177 15.8914 17.3898 15.9378 17.5512 15.8948C17.7127 15.8519 17.8388 15.7263 17.8828 15.5652C18.1885 14.4486 17.8879 13.2468 17.0444 12.4029Z" fill="#547100"/>
<path d="M7.01699 10.3307L2.54846 14.7998C1.81718 15.5311 1.81718 16.7203 2.54846 17.4515C3.27975 18.1828 4.46894 18.1828 5.2002 17.4515L9.66863 12.9825L7.01699 10.3307Z" fill="#547100"/>
<path d="M17.8622 2.94542L17.0541 2.13732C16.902 1.98522 16.6659 1.95616 16.4815 2.06676L13.9956 3.55811C13.7341 3.71502 13.6897 4.07586 13.9053 4.29152L14.1032 4.48933L10.9475 7.63207L12.2736 8.95817L15.4293 5.81543L15.708 6.09422C15.9236 6.30981 16.2845 6.26544 16.4414 6.00387L17.9327 3.51801C18.0433 3.33354 18.0143 3.09751 17.8622 2.94542Z" fill="#547100"/>
</svg>
