<svg width="24" height="24" viewBox="0 0 24 24" fill="none" xmlns="http://www.w3.org/2000/svg">
<path d="M5 6.80005H6.4H17.6" stroke="#D40000" stroke-width="1.2" stroke-linecap="round" stroke-linejoin="round"/>
<path d="M16.1999 6.80005V16.6C16.1999 16.9714 16.0524 17.3274 15.7899 17.59C15.5273 17.8525 15.1712 18 14.7999 18H7.7999C7.4286 18 7.0725 17.8525 6.80995 17.59C6.5474 17.3274 6.3999 16.9714 6.3999 16.6V6.80005H16.1999Z" fill="#D40000" stroke="#D40000" stroke-width="0.4" stroke-linecap="round" stroke-linejoin="round"/>
<path d="M8.5 6.8V5.4C8.5 5.0287 8.6475 4.6726 8.91005 4.41005C9.1726 4.1475 9.5287 4 9.9 4H12.7C13.0713 4 13.4274 4.1475 13.6899 4.41005C13.9525 4.6726 14.1 5.0287 14.1 5.4V6.8" stroke="#D40000" stroke-width="1.2" stroke-linecap="round" stroke-linejoin="round"/>
<path d="M9.8125 10.2999V14.4999" stroke="white" stroke-width="1.6" stroke-linecap="round" stroke-linejoin="round"/>
<path d="M12.7876 10.2999V14.4999" stroke="white" stroke-width="1.6" stroke-linecap="round" stroke-linejoin="round"/>
</svg>
