<svg width="18" height="18" viewBox="0 0 18 18" fill="none" xmlns="http://www.w3.org/2000/svg">
<path d="M12.2143 4.71429C12.2143 6.48949 10.7752 7.92857 9.00002 7.92857C7.22482 7.92857 5.78574 6.48949 5.78574 4.71429C5.78574 2.93908 7.22482 1.5 9.00002 1.5C10.7752 1.5 12.2143 2.93908 12.2143 4.71429Z" fill="#A7A7A7"/>
<path fill-rule="evenodd" clip-rule="evenodd" d="M9.00002 2.0625C7.53548 2.0625 6.34824 3.24974 6.34824 4.71429C6.34824 6.17883 7.53548 7.36607 9.00002 7.36607C10.4646 7.36607 11.6518 6.17883 11.6518 4.71429C11.6518 3.24974 10.4646 2.0625 9.00002 2.0625ZM5.22324 4.71429C5.22324 2.62842 6.91416 0.9375 9.00002 0.9375C11.0859 0.9375 12.7768 2.62842 12.7768 4.71429C12.7768 6.80015 11.0859 8.49107 9.00002 8.49107C6.91416 8.49107 5.22324 6.80015 5.22324 4.71429Z" fill="#A7A7A7"/>
<path d="M16.1789 15.8571H2.25034C2.25034 14.0714 3.64319 10.5 9.21462 10.5C14.786 10.5 16.1789 14.0714 16.1789 15.8571Z" fill="#A7A7A7"/>
<path fill-rule="evenodd" clip-rule="evenodd" d="M3.23252 12.1245C4.40045 10.8768 6.29991 9.9375 9.21462 9.9375C12.1293 9.9375 14.0288 10.8768 15.1967 12.1245C16.3499 13.3566 16.7414 14.8385 16.7414 15.8571C16.7414 16.1678 16.4896 16.4196 16.1789 16.4196H2.25034C1.93968 16.4196 1.68784 16.1678 1.68784 15.8571C1.68784 14.8385 2.0793 13.3566 3.23252 12.1245ZM2.86067 15.2946H15.5686C15.4515 14.5726 15.1053 13.6732 14.3754 12.8933C13.454 11.909 11.8713 11.0625 9.21462 11.0625C6.5579 11.0625 4.97522 11.909 4.05386 12.8933C3.3239 13.6732 2.97773 14.5726 2.86067 15.2946Z" fill="#A7A7A7"/>
</svg>
