<svg width="24" height="24" viewBox="0 0 24 24" fill="none" xmlns="http://www.w3.org/2000/svg">
<path d="M20.522 11.5361C20.9621 12.1119 20.9621 12.8891 20.522 13.4639C19.1356 15.2736 15.8095 19 11.9262 19C8.04289 19 4.71675 15.2736 3.33039 13.4639C3.11625 13.1882 3 12.8491 3 12.5C3 12.1509 3.11625 11.8118 3.33039 11.5361C4.71675 9.72636 8.04289 6 11.9262 6C15.8095 6 19.1356 9.72636 20.522 11.5361V11.5361Z" stroke="#99CC00" stroke-width="1.3" stroke-linecap="round" stroke-linejoin="round"/>
<path d="M11.9263 15.2876C13.4648 15.2876 14.7121 14.0403 14.7121 12.5018C14.7121 10.9633 13.4648 9.71613 11.9263 9.71613C10.3878 9.71613 9.14062 10.9633 9.14062 12.5018C9.14062 14.0403 10.3878 15.2876 11.9263 15.2876Z" stroke="#99CC00" stroke-width="1.3" stroke-linecap="round" stroke-linejoin="round"/>
</svg>
