<svg width="25" height="24" viewBox="0 0 25 24" fill="none" xmlns="http://www.w3.org/2000/svg">
<path d="M15.8536 16.5751L15.8536 16.5751L16.3402 16.688L21.0376 17.778L21.4234 17.8675L21.4246 18.2635C21.4263 18.8361 21.8919 19.2988 22.4645 19.2971C23.0371 19.2954 23.4998 18.8298 23.4981 18.2572L23.4981 18.2557L23.4981 5.537C23.4973 4.96431 23.0332 4.50037 22.4607 4.49976C21.8908 4.50072 21.428 4.96093 21.4241 5.53096L21.4213 5.92538L21.0371 6.01453L5.10489 9.71092L4.66175 9.81373L4.51764 9.38226C4.33629 8.83931 3.74913 8.54617 3.2062 8.7275L15.8536 16.5751ZM15.8536 16.5751L15.4832 16.4892L9.46274 15.0924L9.09268 15.0065L9.09288 15.0057L8.60542 14.8925L5.10493 14.0801L4.66178 13.9772L4.51764 14.4087C4.37622 14.8321 3.97968 15.1174 3.53334 15.1169L15.8536 16.5751ZM2.49805 9.71184L2.49805 9.7124L2.49805 14.0786V14.0792C2.49738 14.6516 2.96088 15.1162 3.53331 15.1169L2.49805 9.71184ZM2.49805 9.71184C2.49755 9.26548 2.78283 8.86894 3.20618 8.72751L2.49805 9.71184ZM15.6263 17.5506C15.6263 17.5505 15.6263 17.5503 15.6264 17.5501L15.2564 17.4648L15.6263 17.5506Z" stroke="#99CC00"/>
<rect x="2.91504" y="8.79175" width="1.83333" height="6.41667" rx="0.916667" fill="#99CC00"/>
<rect x="20.998" y="4" width="2.75" height="15.5833" rx="1.375" fill="#99CC00"/>
</svg>
