<svg width="20" height="20" viewBox="0 0 20 20" fill="none" xmlns="http://www.w3.org/2000/svg">
<path fill-rule="evenodd" clip-rule="evenodd" d="M3.27784 14C2.83294 13.9994 2.39792 13.8688 2.02628 13.6242C1.65463 13.3796 1.36257 13.0318 1.18599 12.6234C1.0643 12.3387 1.17566 11.9966 1.43973 11.8622C1.70264 11.729 2.01607 11.8507 2.14122 12.1366C2.32836 12.5741 2.77382 12.8588 3.27784 12.8588C3.95522 12.8588 4.50402 12.3433 4.50402 11.7118C4.50402 11.0804 3.95408 10.5672 3.27784 10.5672C2.6729 10.5659 2.09319 10.3246 1.66607 9.89622C1.23896 9.46782 0.999391 8.88738 1 8.28243C1 7.02411 2.01837 6 3.26981 6C4.17336 6 4.98852 6.53731 5.35017 7.36625C5.47417 7.65327 5.3628 7.99426 5.09874 8.12859C4.83582 8.26406 4.52354 8.14122 4.39954 7.85649C4.30122 7.64054 4.14213 7.45789 3.94171 7.33087C3.74129 7.20385 3.50821 7.13795 3.27095 7.14122C2.59816 7.14122 2.05281 7.65442 2.05281 8.28243C2.05281 8.91045 2.59816 9.42135 3.27095 9.42135C3.87812 9.42044 4.46078 9.66076 4.89076 10.0894C5.32073 10.5181 5.56281 11.1001 5.56372 11.7072C5.56463 12.3144 5.32431 12.8971 4.89563 13.327C4.46694 13.757 3.88501 13.9991 3.27784 14Z" fill="#547100"/>
<path fill-rule="evenodd" clip-rule="evenodd" d="M17.0506 13.9349C16.612 13.9347 16.1829 13.8064 15.8162 13.5658C15.4494 13.3251 15.161 12.9825 14.9863 12.5801C14.8669 12.3 14.9771 11.9648 15.2366 11.8327C15.4961 11.7041 15.8049 11.8224 15.9289 12.1025C16.1149 12.5331 16.5546 12.8109 17.0518 12.8109C17.7188 12.8109 18.2619 12.3046 18.2619 11.6858C18.2619 11.0646 17.7188 10.5595 17.0518 10.5595C16.4653 10.5476 15.9068 10.3067 15.4958 9.88826C15.0848 9.46981 14.8539 8.9071 14.8525 8.32056C14.8512 7.73401 15.0795 7.17024 15.4886 6.74991C15.8977 6.32958 16.4551 6.08608 17.0414 6.07153C17.9335 6.07153 18.7395 6.59966 19.0931 7.41482C19.1532 7.54795 19.1611 7.69882 19.1152 7.83749C19.0692 7.97616 18.9728 8.09249 18.8451 8.16338C18.5879 8.29656 18.2779 8.17601 18.1551 7.89587C18.0575 7.68332 17.9 7.5038 17.7021 7.37922C17.5041 7.25465 17.2741 7.19042 17.0403 7.19438C16.379 7.19438 15.8405 7.6984 15.8405 8.31608C15.8405 8.93376 16.379 9.43663 17.0403 9.43663C18.2906 9.43663 19.2986 10.4458 19.2986 11.6881C19.2977 12.2839 19.0605 12.855 18.6391 13.2762C18.2177 13.6974 17.6464 13.9343 17.0506 13.9349Z" fill="#547100"/>
<path fill-rule="evenodd" clip-rule="evenodd" d="M7.29362 13.9933C6.90097 13.9933 6.74023 13.6362 6.74023 13.1976V6.82911C6.74023 6.48238 6.91704 6.07021 7.22933 6.07021C7.85045 6.07021 10.165 9.0151 10.165 9.0151C10.165 9.0151 12.4612 6.03577 13.0583 6.03577C13.3717 6.03577 13.6013 6.49616 13.6013 6.84174V13.1379C13.6013 13.5765 13.4463 13.9669 13.0537 13.9669C12.6599 13.9669 12.4796 13.6098 12.4796 13.1724V8.15172C12.4796 8.15172 10.3935 10.5559 10.165 10.5559C9.9446 10.5283 7.85045 8.11613 7.85045 8.11613V13.1609C7.8493 13.5995 7.68742 13.9933 7.29362 13.9933Z" fill="#547100"/>
</svg>
