<svg width="24" height="24" viewBox="0 0 24 24" fill="none" xmlns="http://www.w3.org/2000/svg">
<path d="M13.5562 10.86V11.3734H14.0562H14.5562C14.5562 10.7358 15.0305 10.2786 15.5455 10.2786H15.549C16.0632 10.2786 16.5378 10.7357 16.5378 11.3734V12.1823H17.0378H17.5378C17.5378 11.5448 18.0123 11.0877 18.5265 11.0877H18.5596C19.0733 11.0877 19.547 11.5429 19.5484 12.179V12.1791C19.5534 14.2621 19.5525 14.9836 19.5501 16.8565C19.5491 17.5691 19.548 18.4485 19.5469 19.633C19.5448 21.8024 17.9106 23.4999 15.9662 23.4999H11.1312C9.85058 23.4999 8.65088 22.7567 8.01014 21.5264L3.88572 13.6023L4.0254 13.4865L4.03518 13.4783L4.04454 13.4697C4.76222 12.8101 5.83429 12.8854 6.46652 13.6549C6.46653 13.6549 6.46654 13.6549 6.46654 13.6549L7.67298 15.1237L8.55839 16.2016L8.55934 14.8067L8.56627 4.70259V4.70258C8.56669 4.06527 9.04126 3.6084 9.55523 3.6084H9.55562C10.0699 3.6084 10.5446 4.06586 10.5446 4.7036V10.8186L11.5445 10.83C11.5586 10.2075 12.0256 9.76518 12.5324 9.76518H12.5672C13.0816 9.76518 13.5562 10.2224 13.5562 10.86Z" stroke="#99CC00"/>
<path d="M9.55091 0.959961C7.60797 0.962078 6.03356 2.53668 6.03125 4.47963C6.03125 4.69729 6.20772 4.87377 6.42538 4.87377C6.64304 4.87377 6.81951 4.69729 6.81951 4.47963C6.81951 2.97104 8.04251 1.74823 9.55091 1.74823C11.0593 1.74823 12.2823 2.97104 12.2823 4.47963C12.2823 4.69729 12.4588 4.87377 12.6764 4.87377C12.8941 4.87377 13.0706 4.69729 13.0706 4.47963C13.0683 2.53668 11.4939 0.962078 9.55091 0.959961Z" fill="#99CC00" stroke="#99CC00" stroke-width="0.8"/>
</svg>
